<mxfile host="app.diagrams.net" modified="2021-08-09T19:35:18.564Z" agent="5.0 (Macintosh; Intel Mac OS X 10_15_7) AppleWebKit/537.36 (KHTML, like Gecko) Chrome/92.0.4515.131 Safari/537.36" etag="sO3Q3jnm5USLJMeJkxb8" version="14.9.3" type="github" pages="2">
  <diagram id="4cyAIsRMo-Zw9HxS2ONe" name="single_nats">
    <mxGraphModel dx="1426" dy="717" grid="1" gridSize="10" guides="1" tooltips="1" connect="1" arrows="1" fold="1" page="1" pageScale="1" pageWidth="900" pageHeight="400" math="0" shadow="0">
      <root>
        <mxCell id="0" />
        <mxCell id="1" parent="0" />
        <mxCell id="H06JCzwJP9NlG7eEe4fO-116" style="edgeStyle=orthogonalEdgeStyle;rounded=0;orthogonalLoop=1;jettySize=auto;html=1;exitX=0;exitY=0.5;exitDx=0;exitDy=0;entryX=0.5;entryY=0;entryDx=0;entryDy=0;" parent="1" source="H06JCzwJP9NlG7eEe4fO-111" target="H06JCzwJP9NlG7eEe4fO-115" edge="1">
          <mxGeometry relative="1" as="geometry" />
        </mxCell>
        <mxCell id="H06JCzwJP9NlG7eEe4fO-113" value="" style="shape=image;verticalLabelPosition=bottom;labelBackgroundColor=#ffffff;verticalAlign=top;aspect=fixed;imageAspect=0;image=data:image/svg+xml,PHN2ZyB4bWxucz0iaHR0cDovL3d3dy53My5vcmcvMjAwMC9zdmciIHhtbG5zOnhsaW5rPSJodHRwOi8vd3d3LnczLm9yZy8xOTk5L3hsaW5rIiB2aWV3Qm94PSIwIDAgMTA3IDI3IiBmaWxsPSIjZmZmIiBmaWxsLXJ1bGU9ImV2ZW5vZGQiIHN0cm9rZT0iIzAwMCIgc3Ryb2tlLWxpbmVjYXA9InJvdW5kIiBzdHJva2UtbGluZWpvaW49InJvdW5kIj48dXNlIHhsaW5rOmhyZWY9IiNBIiB4PSIuNSIgeT0iLjUiLz48c3ltYm9sIGlkPSJBIiBvdmVyZmxvdz0idmlzaWJsZSI+PGcgc3Ryb2tlPSJub25lIiBmaWxsLXJ1bGU9Im5vbnplcm8iPjxwYXRoIGQ9Ik0wIDIwLjE1aDEwLjYyM2w2LjA5MiA1LjY0di01LjY0aDguMTNWMEgwek00LjAwMyA0LjcySDguNjZsOC45NjIgOC4zNThWNC43MmgyLjk3djEwLjhoLTQuNTA1bC05LjExMy04LjV2OC41aC0yLjk3eiIgZmlsbD0iIzI3YWFlMSIvPjxwYXRoIGQ9Ik02Ljk3MyA3bDkuMTEzIDguNWg0LjUwNlY0LjdoLTIuOTd2OC4zNThMOC42NiA0LjdINC4wMDN2MTAuOGgyLjk3eiIvPjxwYXRoIGQ9Ik0zOS4xNDUgNi41OGwtMy4yMjIgNC42MDdoNi40NDR6TTI2LjkyNyAyMC4xNWgyNC44NDZWMEgyNi45Mjd6bTEwLjMyLTE1LjQ4SDQxLjJsNy43NTMgMTAuODc1aC0zLjU1bC0xLjQ2LTIuMWgtOS42bC0xLjQ2IDIuMWgtMy40TDM3LjIzNSA0LjY3eiIgZmlsbD0iIzM0YTU3NCIvPjxwYXRoIGQ9Ik0zNC4zNjIgMTMuNDNoOS42bDEuNDYgMi4xaDMuNTVMNDEuMjIgNC42OGgtMy45NjJsLTcuNzUzIDEwLjg3NWgzLjR6bTQuNzgzLTYuODQ3bDMuMjIyIDQuNjA2aC02LjQ0NHoiLz48cGF0aCBkPSJNNTMuODcyIDIwLjE1aDI0Ljg1NVYwSDUzLjg3MnptMy45MDItMTUuNDNoMTYuOHYyLjQ0MmgtNi44NDd2OC4zNThoLTMuMDdWNy4xNmgtNi44NzJWNC43MnoiIGZpbGw9IiMzNzVjOTMiLz48cGF0aCBkPSJNNjQuNjQ3IDE1LjUxOGgzLjA3VjcuMTZoNi44NDdWNC43MmgtMTYuOHYyLjQ0Mmg2Ljg3MnoiLz48cGF0aCBkPSJNODAuODA3IDB2MjAuMTRoMjQuODQ2VjB6bTE5LjI1OCAxNC4yNzRjLS44MDYuODA2LTIuNTY4IDEuNDM1LTYuNzQ3IDEuNDM1LTMuMDk2IDAtNi4wNjctLjQ3OC03LjcyOC0xLjE4M1YxMi4wMmMxLjU4Ni43MDUgNS4wNiAxLjM4NSA3LjcyOCAxLjM4NSAyLjM0IDAgMy45NzctLjA3NiA0LjQwNS0uNTNhLjY2LjY2IDAgMCAwIC4xNzYtLjUwMy41Ny41NyAwIDAgMC0uMTc2LS40NTNjLS4yNTItLjI1Mi0uNjU1LS40MjgtNC4zOC0uNTMtMy45NTItLjEtNS45LS41MDQtNi43OTctMS40LS40NTctLjUyLS42OTItMS4xOTctLjY1NS0xLjg4OCAwLS44My4xNS0xLjU2LjgzLTIuMjQuOTA2LS45MDYgMi42OTMtMS4zMzQgNi4zMi0xLjMzNCAyLjcyIDAgNS40MzcuNDI4IDYuODcyIDEuMDA3djIuNTQzYy0xLjYzNi0uNzA1LTQuNDgtMS4yLTYuODQ3LTEuMi0yLjYxOCAwLTMuNzI2LjE1LTQuMDc4LjUwNGEuNzMuNzMgMCAwIDAtLjAyNS45ODJjLjMyNy4zMjcgMS41MzYuNDI4IDQuMzU1LjQ3OCA0LjEyOC4xIDUuOTE2LjQ1MyA2Ljc5NyAxLjMuNDc1LjUzMi43MjggMS4yMjYuNzA1IDEuOTM4YTIuODkgMi44OSAwIDAgMS0uNzU1IDIuMjE1eiIgZmlsbD0iIzhkYzYzZiIvPjxwYXRoIGQ9Ik05My4zNyA4Ljc5N2MtMi44Mi0uMDUtNC4wMjgtLjE1LTQuMzU1LS40NzhhLjczLjczIDAgMCAxIC4wMjUtLjk4MmMuMzI3LS4zMjcgMS40Ni0uNTA0IDQuMDc4LS41MDQgMi4zNjYgMCA1LjIuNTA0IDYuODQ3IDEuMjA4VjUuNTI0Yy0xLjQzNS0uNTgtNC4xOC0xLjAwNy02Ljg3Mi0xLjAwNy0zLjY1IDAtNS40MzcuNDUzLTYuMzIgMS4zMzQtLjY4LjY4LS44MyAxLjQtLjgzIDIuMjRhMi43NiAyLjc2IDAgMCAwIC42NTUgMS44ODhjLjkwNi45MDYgMi44NDUgMS4zIDYuNzk3IDEuNCAzLjcyNi4xIDQuMTI4LjI3NyA0LjM4LjUzYS41Ny41NyAwIDAgMSAuMTc2LjQ1My42OS42OSAwIDAgMS0uMTc2LjUwM2MtLjQ1My40NTMtMi4xLjUzLTQuNDA1LjUzLTIuNjY4IDAtNi4xMTctLjY1NS03LjcyOC0xLjM4NXYyLjU0MmMxLjY2LjcwNSA0LjYzMiAxLjE4MyA3LjcyOCAxLjE4MyA0LjE4IDAgNS45NC0uNjMgNi43NDctMS40MzUuNjA0LS42MDQuNzgtMS40Ljc4LTIuMjRhMi43MyAyLjczIDAgMCAwLS43MDUtMS45MzhjLS45MDYtLjg4LTIuNjkzLTEuMjM0LTYuODIyLTEuMzM0eiIvPjwvZz48L3N5bWJvbD48L3N2Zz4=;" parent="1" vertex="1">
          <mxGeometry x="422.5000000000001" y="29.999999999999943" width="61" height="15.39" as="geometry" />
        </mxCell>
        <mxCell id="H06JCzwJP9NlG7eEe4fO-117" value="" style="group" parent="1" vertex="1" connectable="0">
          <mxGeometry x="408" y="90" width="90" height="40" as="geometry" />
        </mxCell>
        <mxCell id="H06JCzwJP9NlG7eEe4fO-111" value="" style="rounded=1;whiteSpace=wrap;html=1;" parent="H06JCzwJP9NlG7eEe4fO-117" vertex="1">
          <mxGeometry width="90" height="40" as="geometry" />
        </mxCell>
        <mxCell id="H06JCzwJP9NlG7eEe4fO-112" value="" style="shape=image;verticalLabelPosition=bottom;labelBackgroundColor=#ffffff;verticalAlign=top;aspect=fixed;imageAspect=0;image=data:image/png,iVBORw0KGgoAAAANSUhEUgAAAtIAAACrCAYAAABL2HuKAAAACXBIWXMAAC4jAAAuIwF4pT92AAAAGXRFWHRTb2Z0d2FyZQB3d3cuaW5rc2NhcGUub3Jnm+48GgAAIABJREFUeJzsnXl4m9WV/7/nSt6y2ZJtQsK+lq1sCZAUCJIDoaFQ2tIAHZYWSklZYscpHWba30zVmU5bBhpbSghNNzqlpZC0dKEFCsRWwpqwQ9mXpiyBEEtynM229N7z+0N24iReZOt9z5Wc+3mePE9iy/d75Eh6z3vvOd9DsFgsFsPsO31hxdZyXzuAUilNBm5NtTZcL6UnSTAUvQqEn8qo8aeTrfP/JqOVpSrUdLwi9ZykZi/E6shEfN5rJrSLgkhEBVcGHgQw04D648nWhlOlRQN10X8jxg+k9IjwXKKl4UQpPcvgKNMBWCwWy5Yx/qkQTKIBgIDLg7NjEyQ1xSBME1JiJ126RkhrO6R806U1e9GkP2tKuxgIrgxEYCaJBoieMKLLYu+3Xj0zz9PSLzaRtlgs5tHCF6Is47mL/8WArgAk8/skvLbx0WtTIlp9kU5c+kDAeaa0C52aUFMIwLeMBaDxpAlZAk4RFjTyPC39YxNpi8ViHII2khgR06gr7cjusvORImKGdsYIbCyRBjB9fOiWGoP6BcnEWbftpUndCcBnMAzxBLPyzKaDAewtqakyNpEuJGwibbFYCgCS3dHZDh8dCEVPM6PtEV2YBqnPdmLxC/r4mYurARwmrdsHX6kqmW1Qv/CIRFS6u/vXACYZjGJdMl7/vrSocpT0TV1iw6r6t4Q1LYNgE2mLxWKUqrrFBwDYx5S+IlxjStsTBMseWMvXpPq1ngaApHX7wky2vKMP1auC3wLhLLNR0GNGZJlE6/WJ8ARALKlpGRybSFssFqOQdow1jgEAA1/ca2bzRJMxuAqLlclsStVOelVIazsk9/wGgWdjdqzMdBSFQGBm7HRm/o7pOAD50xEAIBJ+PRqqA7cMjE2kLRaLUUiZaxzrodTR+KrhGFyCCUQnC4mtxvILHSGtHZDsDuAAjAt26xmmgzDNhLMXBknzrwH4TccCpcVPR/advrACoGNFRZWyjh0Fhk2kLRaLWQw6MOwIgeZizjKTTVKuUBOOHg6gWkhO/oIeiSgAJ4nr9gPrPb28g8nX7b8dwP6mIwHQPcGpEvcVN2DbqbmMnxbUs+SATaQtFos5ZsfKCDjedBgA9g8kPjrHdBD5wqzEdmvZgENCoKX6aAAF4f1NwPmmYzBJILzoBgIXiqf2c2vjV3SKq8rbdv49eX99h7CmZQhsIm2xWIwR7OIpDBRErSlpXfRNhyxXr8kZTssPYvHpQijr6GX/wIxFnzQdhAmq62InE/h7puPYDrMZG0Zm4dejmedpGRybSFssFnNo6QvRIBB9unZG1KStmgsIDWIB3tgUv6FNSKsvxsuA+qLUnjflsCrUVMXMd0F4EukQmGnAI9lBLMTKNhoWIDaRtlgs5lBiiV8ukOPjr5kOYqRMnHXzWABHC8mZuqAXzo0XAKY9bcohk4L6BYCDTEfSF/bL2zD22HZOltQkkm+otAyNTaQtFos5CqDRcGfoygNDt5ebjmIkZDLlp0DIPYENjCiuCjVVAThcWncITqoN3So61c4kwVCsHoTPm45jFz5MPdzwrrSoAdvO9rbWhjeENS05YBNpi8VihJqzFk0GsK/pOHahehNtvNB0ECOCHblBLCy/A6ig5CY25o5yyCn6JtVcqAlHpxDhJtNx7I6h+mhp205mO4ilQCm0DyWLxbKHoB3nVNMx9AeDirPpkMXKZLa0c/JlIa0dUAHV0/dhTyjvqA3dOk4DvymUxuCdIPmbOgAAC5cZmXqeliGxibTFYjGDXOI3XKbVhKNTTAcxXJggNIiFVyMeycho9aUwXy/EPGvyeUvHmI7DSzRllgL4hOk4+oNNTPrL2nYeJ6qpzExutAyNTaQtFosZuCAm1PWLJnzddAzDobIudggAkTHnDBPOAUwokEEs/TBm2+bOkOkgvCJQF/06A/9iOo4BSFeML39WWtSAbadmqhC3m7Tkhk2kLRaLPHMipSA+wXQYA8K4ZMLZC4Omw8gVpQX9lQ00GgbDTUcBCEjr5ori0VneEQhFjyHGQtNxDAjj+XX3zt0qritv2/lK6uG5G4U1LTliE2mLxSJOdVvVCQAK2R2jwp/2X246iJwhsbIHTqcNHKWzKsiyjl6Y8NmeXfNRw8RZN48lhWUAKkzHMhAm3GMAyNt2mnqelpywibTFYhGHSW6U9UhhxnXFkhyR0KASBr29+ZH6DRJaO0GFWwbUw+SauubCPWEZAd3psiVgHGk6jkEx12go7NhhGw0LGZtIWywWeQrOP3p3CHxodThWZzqOodh3+sIKAMfKqJkaUVyYjYZ90VCjZsphsC56BYEL/kRGZ0i+zGjGj/aDtG2nsjvShYxNpC0WiwEK08psVxgoeCu8zRXqJAAlMmryzgHB2bEJABf2zigAZhoVddI1MxcfDkbUdBxDwx9vXDXvH+Kyfp/0TV178vTka8KalmFgE2mLxSJKzelNkwDsbzqOHDk/GIoV2tCYnSBBG0F2lPyOdBcKcRDLbhD4hEJ/rQzFgaHby7V2lgEYbzqWoWBSjxsSFk6kaTUiES2raRkOBf/hZLFYRhfs9xXFbnQPfii+ynQQg0FyZTJb21XyJSGtHRRBGVAPxMBnTAeRDx3UsRjS/sgjxYR/NCBv20nWP7rQsYm0xWIRhbk4yjq2w7gaU5YKlU6MAMIpMjJ4yswgluJ5vRBx0ZZ3BMPRCwF81XQcucJKy5+OzI6Vidt2sqm+BEuu2ETaYrHIQkWzw9jLpOD4rvNNB9EfVXWLDwAwWUSMYeCCzgRITWzMHwLOrA3dOs50HMOlNrTwUAA/NR3HMMiU+dPPSIsGt0HatpOddKkdxFLg2ETaYrHIkd3ZPdF0GMOGdEE2HZJ2RvUglurQ4k8AKJrBOAyUacrMNB3HsJgdK8uQ/24AE0yHkisMenH9g9/cIi6shDcBCK9tfPTalKimZdjYRNpisYhRXbXteABjTMcxfKguGF54tOkodoUEL+yK/aultHphJTix0SUYxTXlsLqTFxK4yG5uDZU7iPtHmzgFsgwXm0hbLBY5xDve3URdbTqC3ZC7sL+zIX7dR0JaOyieRsM+8HmIRIri2hoMN1/AwLWm4xg2bKoBT7he3zYaFgVF8Wa3WCyjg6JrNNwJ+vLEWTePNR3FdmbHygg4XkKKYMghgVCErxfaq3pl1UmmoxiKwJnR/QH6iek4RoJW8jaMNWctmgxh207WdqJhMWATaYvFIkgx70ijMp0uvcR0EL0Eu3gKA2UiYgbqo2tOvWk8GEdJ67qBpgIfzjJlaQll6C4UUf15H9o2tsx7R1pUZwT7EbJsStVOelVY0zICbCJtsVhEmDjrtr0AHGQ6jjwpnGNwwbIH0vI7gFxafjIAn7SuGxBQ0OPCgxM6bwIV5+kQMZ7IWnYLI1+WthrLL3SENS0jwG86AIul2Jk46+axnVvHlpK/q5L9u9+cso/baUs5b3z0mnYjF4ACIdPd+SlQ0d+7Hxec2TQ9uaKxAI5caRog8nLa1labeFFCaCeIpoOL9O3C+GTljEUHGRlhPQSBcPQcAPNNxzFiyFADnrxtZwF8xhQe26+3pXoCq/T2G+1yVb65W6uu1MNzN0rHZBNpi2UIakO37s2+zJGa+VBiOpQZh4EwCcDeAPZKpzHGV5IGoID+9g8cACVpBMMxANF2ACkASSJ8CI33mbCOCGsBet3Rzhvt8cZ2sScniaJpMnmft7BW16AwLnIyF3bG01ge6RbR6ivLXMxlQPD7nc8AWGw6jr5kR5jz/wEg07GMFFIG6vWnLC0BOkWdTdhUX4JBKk9bEvD7M1OY+GAm7A/G/gQcgGxt+kQAFek04CtJZ/cQnB0bM2mnGwSgOhztYmADwB8B6h8Av8ZErxLhheSKea96sZllE2mLpQ+Vpy0JqJLMp4j4JNI4kQlTHGQmQwMAZfPA/C5BVT1/DmLesVZ2442hSCEYjq4H0zsgvZZBa8H0TyK9lhx+l5zu99seu3FTXhGYoqgdO3aggAsnzrrthvUPXvOxqRhqzlo0WWf0fiJiRpwDmICYyMRGr2Cm81BIiXQo4gfpuwCqMR1KHjjk+J+SFq2u2nY8a5K07eQMp0f3IJY5kdKqRNU0BToZTFMZmEJIH9qb5Y403e3pG9kXoH0BnppdiwEGqsOxDZpijynoFUrrBzbEF7zlxlOxibRlj6Yq1FRFyjebWJ8BqNOA9JEAFLhnppoZJoJ4IkDTCej5RCGwj8C+cgTD0S0A1jNIE1jkGIscfVliVePIG19CET8DU1wMyRgMlHV3p68AcJOpGHSaPyW1p0hQ4ol07YzYoQ5QzAkfAIQDZy6tNHHU3B/VCPw3A6eajiNPXtoQv26zuKr8JsAbm+I3tAlres74mYurSzhTx0znURvOQ3ZTCQCLfJwxUEvMn2PQ5xzyIRiOvgPgYRA/7NMl94/0tWUTacseR3DGj/YjX8nnGfxZADPAXJLdGi6auoOxAA4muXg7E2N9eXXJ16jKYzWj6EYnDwQRX4M5y24x1gykIFcmQxnxQSzax9OLuPqglxLKdJ0F4HemAwmGop9mwr+ajiNfiM2UO2RtO0Vfj6OmrKMq1FRFRP9CrC6Fdk4BSBXQO/tgAFeD6WqHMluC4egyMP0kGa8f1u/fJtKWPYPZsbJgl/4sgS5nxqcZbF/7ufM07q/vymcBh2ma4IdnGkCJxxoHBNo+PDsF3OexTv8wS5U9vJtoWfCBkFYfRkcZEBPOg+FEeq+ZzRMzGrdjNLh0kaGJhsKvR+Zi949mqqqLnk5MVxHwRQAVRdBnPxbAFSC+IhiOvkiMn2h/+a9zOVEq/jeWxTIIVXWLDwiGmpuCnfwhmJYx41zYG8hhkv/FSxFJWW1tA7BIQkgRrpHQ2Y0pS0sgVSZDeFxEZxcYxTiIZXcIfC5CEXOfN5GIymj6DbKN0UUPKb/4Tq0J20424NvuClOWllSHYl8JhmOvKqaVBFwGoMJ0WCPgWCYsJqfzH4Fw9F/3nb5w0OdgE2nLqCQwY9EnA+HorxQ7b4JoPoCA6ZiKFQI9lu8aWq7G8Cn2IQog47UQM86pnLFI3Be7umrb8ZC6OGn5C3rP9MhjpHU9IhhAwNjuenBl1XcAzDSl7zKJthXXvSktmunu/JSw5JZ2Tr4srJkfcyKlwbrmrwUndL7OxLcD+ITpkFwiQMBNW8t9bwTDsSsxZ1m/vvY2kbaMKirPbDo4GI7+jnz6hZ67Ya+P+Ec9PpWfa8P40C01BD7ErXgGg4AnUw83vAvGvQJyyq/01QI6O6OV2G4tGXDs6EqXTcUoOjVS2fIOcarrFtUB9G2PZRIer9+X1UZ8+JV0mRGvRjzi+UaAK0QiKhiOXRlsC7wJpp+g+AduDcS+AP880PbRwz2j4nfCJtKWUcHEWTePDdZFIz5HvQzgAoyCTqWCgPDmxyvmr89nCb8qnQ6p/4+eI1HlkynvYMJVB4ZuL5fQ2q4JLXJhJ6ArUa6el9Dqiw8svQPoKWxgyuHEWbftxazvgLeTIdME/MjD9XeCyEzdMLNYWVpWz4BLzkioCUenBFcGHgf458j6PI96CBzijH4+ULdodt+v20TaUvQEQ9FPp9Olb4DxHQCiSc1ox5WmF8lR1j61GgDaVjS0ApCYxlezEZsuENDpg8wOGQPP5NtkOhI0INVImUb/I5Tc5oja0MJDBXSyRCIqne6+A8BuO2duQqAbNEhu59RAmVFPfbusbSfrgm40rDxtSSAYbo5qYDXk3qsFQ9ZCT/+1uq75h4hEFDCKjs/wLNcijfkAzgJQbTocywAwukH4b5xCd+a71IGh28s3qY0RZnwT9qbQEwicd300mKcL7UevbXto3rodsrSEiH/stSiRvgbAb7zWAbI7jel0t8zxqaEdQJKa2Ag82/N5dLrXQg6p8wA0ea0DANXxwL8zYZbHMssSrfWxYCh6j9B7W3MFxAeU9Nh2jhWU5LSjxO0mcyUQjp5D6L4doL1Mx2IYYqYbq1cFjnZCTZeNjkR6De+HNB5BdpSkpZDJfugG812mOrToiA7qWA6m0dKUVJCwo/JLpuYs81Hbhye5FM7g7NLpXjG+7I7OzZ3fhwuvtyGET62pazqxraXxWW91ehqfSOie0cAOYGVd7BAwTxQRY34ChHcB8jyR7ply6HkiHQzFpjHxdzyWeQPl9DUAAAntSBJeTt5f3yGi1QfWSmoTIKsHenvzI/Ub5BRzZE6kNNgW+CGA+QDZsskemHGuInV38e/iPcrjexqLbBJdHDyCf+K2fBYIhBedyqQfwejp7C9UOlJ1iby6x6vaPjoGEBrEskvit+7euVsB/FJEmkmo6VBJHqWKJ9JKy5UBAXhSM/8BApOYiDBj/MzFnp6UVp62JADiu+Btg/UWwPlC8v76jqq6xQfA4/KR7TDMlDso0dcj3LAadZvKGYsOCrYFVgJohO092pX1Clxf3In0MvahBL8BcJzpUCw50Y4MLsOFNOK6xOpQ7CsE3YLiHx9cDDyOSETnswARG3WYcIiWAMjrOeSofkngzKWV3suI+SuvS8br3xfS2oHg64X99ER7vHEtgBcE5Hx+1h6WWzCpkvTt8HhDicDXJlsXvAwApB25JjxTvsos7Wcu75IzGMFw89k+n34BcuVWxUQbFNW1tc5/vbgT6QPQDJixFrKMAMY1OJX+OdIfD4RiN/Z4VJa6GJVlQPKvkSWhRsOBHCY2ttS/DeB+gRDGKd15uacKc5b5WKzxKX/v8BGpyl2w16Uebni3R/UPEoLE2rNrVbAu9g0CzvdqfQBg4NZE6/xf9f6bBHdrSedZYjYCxoduqeHsCGkx8i6lc5HqUPTLAN0LYLzpWAqQDsVqdnJF/StAMTdoreZGANebDsOSI4yfYhrdNdIfr66LziPiH7oZkmVwXGk0FJpQN7jDBMtY4QHXAOzZ0WfV+o+OhVSZjIGdsZ7pYccKyW1PWNiRSaQBOqdnKqWrVM9sPgmM/3F73V1Ykyqnb+z0FTk3nvZEKPGGkNZ2RG07s2xtV8mXBPUGJLtphdth5zD0x1ZNfF5bfN7TvV8ozkR6NX8GwM2mw7DkzFvYhgUj/eFgOHo1M6JuBuQy3QC2mg7CZRzq7syrS37C2QuDAA5zKZ6hGDDxS7Y2PAjgNc8jYBxZE2o+w6vlyafljpmVvAXX5gp1EqQu3H1KBVKr5r0EQCJRq6yp6jzNzQWrQk1VrOlueHtKl3QcdfFON6qzY2UEHO+hZl+ezLfEbEQI2nYCAAFPmR/EwhQMN/+4Z9PK1kPvAgFdIPp8e8v8VX2/XnyJ9BN8IoC74a3RvMU9uqBwIcK0eSQ/HAw3XwDgNph/U28CsAKMW5jpUnbUscqv9ikfVz422dpQlmxtGJusSZWVlJROVOAjAFwExi0ErASwzXDsI+Gltsdu3JTPAr5u3zSIDWIZbAeVmAhLJMLQpK7xbnWxCWvdE5yq54S0tkNyY+TBvMsROuPPErpau1uKqIh+Dm+nyWkmdenGVfP+0feLwS6ewkCZh7o7YFP10XL1+lk9Qw2VfQjWLboZoLmm4yhQHCa+LNlS/+Cu3ygu+7vVXA3gL4Cor6MlHwiNOIlGdFEOzowdBc23w9wN3ysE/IUUHmhrL38Uz8xND/ro5ZHu9cDHyP55HcAyIOt3vZE66gi4EsDnIHETyHiIfXwDaUwC0WRo7A+ifQDeB1k7uJKeP72lApXY+ffckm8IxDxdzCkp4wx6saWuzl9yafn3AEzwOJIvVNct3CfRsuADtxcmwjTv/SUAAM+tjV/RKaLUF6LpYJEnmB7bmX421fcrCn8A4wYB7fOBkZ/O9aW6LjqPGV9wY60BIfx3qmXe7j0Gkru1yoCfuaRtZy+mGip7CISj3wfzN4Z+5B4JA3R1sqVheX/fLK5E2odaOHgXMjt8FZCbkrdrEjMaeAOMb+EU+v1Ifjg4OzYBnXwPzDQ6rIDim5Ir5j/kxmI9Scl9AO4LhKLHKMJiBjwrAQAAEM4iTQuSrQ1f8VRn0BjEdhjXJVd9473BHtD22I2bAuHoHQRc53Esfmb/VwH8l5uLjp+5uBrakZmOx2YsuIj5ZBEhxvPvP7Fgp2tIckbqyeDKwIcAJnmsfnD1jKYjE6saX81nkcDM5mNZ4ya3ghqAFcnqSf/d/7domoBrIACw0+1/SkKoL1UbPvgkSAn1I2RR7Dc2iKU6FP02A/9uSr/AYSa6LtVS/4uBHlBcifRUeg3WhmXkLGMfJnm+IwdUQGMqbcxrjU7+BYBPuBNQzqwmxfMSK+Z79sGdijf8HZFIXTBe9V0Q/T+vdHr4crAuujLZ0nC7xzq7E4korITUIJbHc3mY30HU8eFaeF5uwnMxZekPhjzBGAZ+JzMdJDYIQXxnrCrUdCCkPImpnxuFSEQj3PxniWNt7VPnARhxIl0bunWcozPLkN3s8Qh6rzuDL2H5hQNZlQpdh+mVjY9emxr6cS6rKiV1+tPLOxvi130kqthDdSj2FSb+ngntEbINQAZCm2wMujHVUj/o7IviSqQt+ZH1bxb/UBougXDsMwBfICjJYHw3WTvpe4NcONwjEtFJ4D+C4WgKwI881WI0V9ctfNCLUoPBCLRUHw2f9t5XGQB0bg4TG1Y1vBkMRR8G4SyPI5pcXdl5bgJwzQ2CIDRBDll/ZSmtXkj5pMo6wDzg8/sDAM8Tacpatv7vSH9eU+bH8HaTIc2gL21+ZF6/E/Zqzlo0WWf0fh7q98GMr7KUbed2PQM3rwBQHW4+BeAfm9AeBAfASyA8zcAzStNbRPq98k797k4nSXOW+SZ0vF9JDlX5tO9QYj2VmaaCMA1unSwxfy8VbxjS2MIm0pbCYk6klBLcJLUbQEAXgy9JxuePqAQlH5KtDQuDddHpYHzRQ5kJmn03Aqj3UGM3yO9M89AJbieYfDlfhFjRImL2OpEGa1wDFxNpEEk1Pn24w19ZDmI9TaovlaH7fb0kOypaghM6UwACHocwfXzolppN8RvahvuDwXD0agYu8SKoXoh4QbJl3oDWlzrNnxJr/TbVaChk27kdA/XRNac3TdKgeyDVNDoI2esw/sLMf8wg80BO743lFzodQBLZP+8A6GkCZKquW3SSZv4cAV/ASG86CdFk6/z/yOWho60u11LkBNoC88EylmkEdGnQBclW+SS6F631N5G1z/MMAr42cdZte3mpsRsslvilx3amn831wakZyb8i+6HrLYQza8LN7uwaRiIKECqTMTWiWO71sr5nmuHuPDM3TTLDe3yl5D9nuD8UCEWPAdDkQTx9oLsTLfMXD/oQybHZ5MgPYsmOcpey7QRgYODM7FiZ9qt7IFVONTD/BFFjN6f3TbY2fDEVn//rkdxg7gxxoqV+Taq14VvJ1oYjlEIdgN8jWw6SK79IttQ35vpgm0hbCoaaU28aT8C35RT56lRr/V/l9HanPd64lr2/eJd3Z7q97e7fFRK72D63a+PYoEQiGoRB691cgrRL9baBluqj4b3bSBaSL+s4MHR7OQjHiYjx4PX0zDLDWZhoWDZ4E2fdPJYUlgEY41FIAPAGynH1kI9iLfXe7kie0ZFXU+ZI8GstZ9uZZVtbbeJFQT0Eu/gmGO03o/fA+Fqyo/ywZEt9c/7J88C0rWhoTbY2fFGzPoyA2wgYYHDXdpYlayZdDVDO5+I2kbYUDFxSfjmkEgZwrO+4W5ModrEEYADI2/KRnagKNVWBpRpFh19DqbX+GYAtHgSzK1dMnHVz3ladkoNYWMsfMW+kzVPg7UCR7fAQR+g++B6AhCsU49OYHcv5SD2dLr0VjCM9jGgL4HwheX99x6CPmrK0BKATPYyjL0YGsZDcjUIWxtNYHvH0VLIvNTOjYTDmSentQpqA/y0p6ToyGW/4mZsN2UPRHm9cm2htuJaZDiXGvQM87K/JjvJLh9srZRNpS4HAxIRrRaQIb5aPqygYq5+MVquGflR+EHBazwhmz1FQ0yD02cKkhp34tccb2wG604t4dqEq3V1ysQvrSF3Y0xXjy3Muk3ELIsmJjYPvuG+IX7eZGA8LRDIu2JWbBWZ1KPYVAF/2MhgiXJNsXfDykLFUbTsenrqF9MVMo6GgbWePntzzDM6OTdAapmYzvK5Zn5xobbhx/YPflNjI6JdkvP79RLzhs0S4HMB2dzFmtI7pdOaMJLm3ibSlIKgOx+oAHCUixvzv6+6dWzAjvTeuun4thle/NWwYKOssIxnnB8EaSp2hEV6EMlFIGOESXZ//GkK/T8bzRt4Xcg4J6YoxZc8M9SBW3p8QAQDnMOWwdkb0MCaOeRoH0+JES8MdOT1YK7nTkWE0EbuGaD9CFsLwNwNGTCc3AThATK8HAn7jY//U9njj89LaA5FoabiDfTiWQXEAq33pzvOHVSbYB5tIWwoC7fGOSx/+nmxtuEdIK0eIkR1B7imalMyRLEt1vPPHu44uzpVk64KXCfD8JADA8dV1sREPGpEskxmq7MFDhBJpfiGXG4U0+f4Mj29sAYCIP4tBrG0ODN1e7viwDN765a5JVeQ+0ZEhVvbATklafEBJTz+CjG1nL5QReZ7BcPPZyE7XFYb/K9Faf9mG+HWb5bUHJ/Vww7upM5Izfew/s+2xG0d8DbaJtMU8kYgi8NkSUgT66XCaCATxfuw9s4D3KxOEdnSYVE6DWAb8efAit2IZXEdfM9KfVUSnQOpz2kCjYeDM6P4A9pHQYs5t52/TiusTDHrU63gA7B+YGf3kQN/soE0xAMd7qJ/UrC/C/fVDNV/1Qazs4fWOvy1ICmltR7IfoYd/inj8z1nmA+gWz3V2hplwTbJ1/ncK9JqbJRLR+Sb5NpG2GKdmZeAEgCTs2Zxu7paojR0WgTOXVkKg2YqIar3WCM5cdCS89+HNkmdjXLJm8h8B/NOlaAaG6aIeS63hI+cfnUeZzMghR9JKLXdrP+WmB/hgOk7/7h3BcPRCgL/mobQY/sJlAAAgAElEQVQG45IBrQD7ocdC8yDvQtoJMzaM0k4WJPM8g4l1VwI4RkKrl+xEwIZCG/biCTaRthiHiWYLCa3x0mZnpJDuPFpChz32qwYAOIIOE/mWIiy/0CHwT1wKZzAqSti5YkQ/yVI7gCMvk8kTuXp6X/+DWPqDGfdAoIaeafc66drQwkMB/NRbYfxXMt7wwHB+JNPd+SmvwukHQ42Gwom0gEvOxFk3jwVTxGudnWBuTrXWDzkRcLRgE2mLeZjPFJFR3CKhM1wYOFZIx/tGMiV29JspYd+QjWND0c2ZnwDodCGeQSHG13samYYBE8Ajrq8enlJ+ZTJ5IFdP/3BjzoN4kvH69wHO+/WVAyfVhm7de/u/ZsfKMuS/G97agK5I1k763rB/Su69DXaEB5RA2rYzCw3hIuMG6XTZNyA6eIUfS6L9m3J65rGJtMU4UokkQEPaO5mAmEISOgr0huciQhPqGPSiG80rPScUd7sQ0qAwcEhwZdWwRpNXz2g+AkVSJjMiZsfKCDhBQoox/ISFZMo7lIP0Z3r/EdiGWwjsYVMwvZfm9MXD9ckFIHg6gk2piRNfEdLajqRtJ5CdrJsowwteatScetN4gBd4qbELCbC6GPGI5826hYR/0O+u4TPAuAjAQeAhHmvZcyB0gXAHTqa8E5Ca05smaaFkQQFvS+gMi0hE0UquE+nEIPq7l8sHZ8cmoJO9HBqxHeWix6x2KKp87LlrDIOuAfC3nB/v802XcOgDAFZafAcw2O2cyFA5DyXJCx7Bzp/Df4CP/seDaHaiZ8rhzwN1sfOI+ToPpdIM+tKIytvmLPNx24dTPIipP9aMKNHPF4VpQm83AAADzwyv0XP46NKyqyDqQkL/mj3N2bMYODlezT8E48bt/5YcmGkpfBjHwYWdPKfUdyhpmU+vDJAQERoG1SsDYQY8bwIEsK1iW9rbZKlbnwKQkMOEezuo7avqnwuGYk+A2NPddALOrQo1HTiMBi+xMpkyf1qijGFntGCpwAheL4lVja8Gw9HXABzhQUjbIWBWdWjREcz6l/DwSkuMxmR83mMj+dmq9R8dCx/GuR1Tv3DuTaHu6kqVGfXgtUvOnGU+tH2Yv4997jyabJ13O1AvKFkY9H/Re5KvBvok0RbLrjDiLq1T5co6OVCqfcamKQ0EA5cJST0yUrP5nBEc1qAy7pYiMPFiN9cbAB8pdVXOjyYWSTQZ9KKZSWNKZkAQkCkr6Xp6JD9IjD+6HUw/VDA5KwEEPVMg3JWIN9w64h/3yzXhMSDuHy1p27kdj8upghs++jyAg73U6ANrh+oL2ubOQ3ZPpJ/i2SCM+A1n2WPIbRLWUGhPm2p2oltrodG2udHTZHSRkFzOJQUjhsWGNSQ2rKp/y80FUx3lywF47ueqGFdjdmzIcoaaU28aDxaa9AlDO4CAiAtEXjcKikRs8Dy2/3wDZTQ3rxXY29OavkoZZMTr9UVtO3fg7fMkbvR0/Z3gP7Svqn9OTq+w2DmRfoqPgcZvMVTttGXPhrAO72KFG0spsNhrzV/i1Ehp5YJD6X8HUC6k5nEizQQiEYcJIjzh+s7HM3PTIPzM1TX7gYHawDb+/JCPKy0/GYDP63iyYu7Vm+dKzVmLJgMSA4KAfG4UEi3zngLoPTejEWYL4HwheX99Rz6LkJwt3JtGLEoFbTuz0Hte1hJXhxYdAaEbVQDMCt8V0ipIdiTSj/JkaNwH6fGYluKD8WtcSK40gzCx2NhQ1mrAKWLSBGYs+iSyzWcSPJlsXeCpY0l1aPEnAIxs6Mhw8ehIVKX1Ugh4bRNh6P93yUEsSt5qTKdZzpM4rxsFYgb/2b1gZCHCNfm+98fPXFwNxqFuxTQYDPmhQABErf168PR5Mjlf8nL9XViRWjH/RUG9giObSD/NY1CCPwIQ2iGwFDUOfu3aWgp57ZQMDz5HTmtgakO3jiOfvgNAiYQeMwnU/8rU8wJwtdGwL22PNH4I8O+9WHsXZmRvpAaGWez32baxZV7O/squoQQHseR5oyA15dBtmGlxoqUh7xI8v5OZDim7AY/e20MiZNvZR9Dj50kXe7t+X3iPmF44GArMCg7uhHShvaU4ITyLT9FLrq2n9TrX1hqa8yvPbJJqvuifKUtLNDJ3AjhOSPGjVG1yudciTGL10ZrL6SnPVle8yLO1+8r49NcH/i4TAJFGPGIPymRyQa6ePu8bhQSnVgIouImoQ7AmVYEbXFlJchCLduRtGGfHJgAytp3b8dBusroudjKAw71afxc+SnZUFO2JjVsorMHNAM43HYilSNBodnO5ZE3HmwCkzNv9yvE1CWntzuxYWWBC5/L+xgJ7yBIsj3g/GhxiOzp/z7feczCSKxqfAMO7RL0HBi7PXsB3p3ZG7FAAMvX8BPlGwylLSwDycOjIDly5UYhHMgy6z6WQJEhq1he55VFMLHZ6sKUdGz31uu+Xbn0KhAexTHCqPGvMY63FyjoY+D2emZuW0itU/ADOQNb1f9ejmy0QqBfMkQ4A8gbt/ZMyHUAPGoyNYmqE9QB+h2nkrh3U8kg3wtG34LFXay8E/mww3NyYbJ0vmlAHZ/xoP3Ty7wCINOT18KGP/Z4/z5pTbxqvgaO91unB86NfAi1h8O0ey4zjTn0pgCW7fkP7eLrYSbqSP0qvruw6gRkyDjou3Sgodv7ApC53Yy2P0WBcMgyv8sGJRBRWypxWM2ONkYl4WokNPgIABp5bG7+i0zMBRZ+Rejo+1r+TUSps/DiFppoOwrKnww8CJJJIZ6FbquuimURLg8AxPlMwFPsqCDcDcp7ZAEDgf3NjjPZQiDpMCNRQJirw22An3+SxJRkIdB3At+2+Y0pS/soOOX7Pd993hTVPlxrw5daNQkUX/21rObYAGOvGep7B+K9kvOEBt5YLtFQfDZ+WsSg1Vh+tp4EEJ8556JITODO6Pxwc5tX6fSFgQ1vtPo9IaBU6YscZFsuAUP6jxoeJYkYsUBf7Q1Wo6UAvBPadvrAiGI5eHayLvQzCTyGcRAO4L9E6/1ciSnJHv6CM9v5ie399F4N+7rkOcFRg5qLTdvsqiU1Ye0niRms35BoNXbtReP+JBdvAeNCNtTxkRbJ20vfcXJB8crZwPs8b8PpDzrazD549T3LoTK/W3hUGtRgZ5V6A2ETaYpxkS/0TBLwtrUvMn1OkXg+Goz8LhmLTepq8Rkw2eW4+OxhqbtpW7vsngKVgyDaxZPlIZXTuE/TyRS4xak/UbXxdQkiRcysAz2v/SOudrPAmn7d0DDNEbBqJTe0Air1eXL1RIFXI7h30XprTF3uQ2IjdJCslP9FQ1LazB/Z7NxqcwDO9WntXmDgupVXo2MErlgKAGBT9LhgyO6g7UwrgqyD+ajAc+wiIrSTC35n1q4B+zcdlCVW6ddP2yWhzIqUTOiaMK+tCUKuS/bXmw4j4cADHbQVOBVAOkqy42420Bl2cfKTxQxk5JnBMqhThSUQiWkIo0bLgg2A4+mcAF3irRBfsNbN54scr5q8HgK2bu05SUp/LJD/RcK+ZzRMzGgdKaBHcbaR0tL5XkepG9jOjkEgz6EueDDIhTJP4MCPg7d73gCyCtp1Z1qUebnjXm6WZGLGwN2vvjo+5VUqr0LGJtKUgSFRPujPY9tGNAEs1rfXH3gBfxIyLss1ePjiUgZMuRTAcZQAZtGW9nx0CwFq0tC4HmMBXtbc2rJQSrJ0RO9QBakXEhHdQNWiRAnucSKPUcegqAP8DAEQ8XeoujJRffEfaYZIbxOJyqUB7vLE9GI6uAiB2fJ4LxGhMxuc95va6VaGmKjA+4fa6/WLCPQYAk9jo8148e56VZzYfBEdN8mr9XUi1tTa8AcwXkitsbGmHpTBYfqED4qshZ4U3XAhCA1RGCIPRKFYX3UPWYUIIkq2hbG+tXwnA84ldTDQXc5ZlmzXlyh4SbSuue1NIaweC9fTKcf8IncEFVt5BdyfiDbd6sbKCmgapHMGjaaU5ILsj7WFDpV8rqdkEYMbzRvznCxSbSFsKhmRLw+PEiJiOowjRIJ6bjDdE5aXFhjWwky5dI6TVF0+SlJ3h/Wra1n0GAEhoEAuAJ01cCJnFGikTG1bVv+X2oj6/748wWrm1E6+jHFd7trrg9Eky4NhRc+pN4yFn2wkAYA9vGFjjWK/W3hUCvyClVQzYRNpSUCRCqR8wuexVPbpJM9GlyZb5PzWiTmIX21c3PnqtuId7+bjyXwNIeq2jQddUzlh0EIC9vdYCACKS3wGcsrQEhCkSUkTeTGxse2jeOgAmbuh2ZTMUfcHL4URgsZvkbW0d5Z6f/OyKqG1nlnTF+PJnPVudZJqUe5AfnFPA2ETaUlhEIjpVnbwIzPebDqUISEDxZ1It9b81IT5x1s1jpRwmIDCIpT/W3Tt3K4i8Hs4CAGf7lJYb+MHyjYY1EzqPBTBGRMzLnT8m4+UdRLg2uaL+Fe8UmACWsoV7ysh0PMEyox6959fdO3erd8uTWGkHEa2V0ioGbCJtKTyWR7pVie8qAPIet8XD85r11OSK+Q+ZCqArXTYVcg3L4tZYvTjKWQLAa7cQAuHfPNboRXM5yQ9ikWzsUsqzGwW/5nu8WjsXGFiUaGm4w0uN6hnNRwAIeKnRCxlwjwEAlvNrz+Lh8zwwdHs5gQ/2av3dYPWBmFYRYBNpS8FRU9d0os7oRwGMMx1LgXJ7+bjyU10bAzxCfGAxBwZ2vEuMhmLjw43vEOOvAlLlAhoA4WVPSwIGQq5UQHMZP+3V4htWNbwJwMPd4EFZk6pJ3eC1CPt8ckmmNjSIRa4foUdRefY8U/72yRDM5xTU+1JaxYC1v7MUFNXh5ss101JIJRXFxQcMmptqrZdI6oZEg6aRTN/VptTEiaYSFwAAK1oM5vNMxuAabMhqDGI7gH/3/EaB+R4QHeWpxu4kNeuLsDzSLaAl566CUvFEuse2s0ZSU2e860tQGTUZclas2shE1ALG7khbCoZgOPafDPolbBK9Kwzg5+wrP7pQkmgAILDUjs5q06Noky3zHgLwmskYXMOAQ8LEWbftBUDo6Nn7UgGlxG3wNBiXiJ1CkdigkrUb4td9JKS1HVHbTgAAf7xx1bx/eLU6ESZ7tXY/eFbnXazYRNpinjnLfMFw9OcAfxcQvK8uDlYo4KRka8NVqYfnbjQdTC+VZzYdDGCiiBibOPrdFWIiFrDC8x7S8mUyTrpLzkqNvTtC76WtpfFZAJ4lRrtD303GGx6QUKo59abxYAjttpupjxa07QQAMKnHvVyfQCJuPz10CWoVBba0Yzis4b3BuBzAwaA9IOHTWA8/YphK7o+e7SUU8Qfb1v0KoC95plGEEOE5DfXtVMu8gnQvURnfdCkbYi9rC4cDdXX9H5eWfw9ApelY8qA9EUq8gbisKDNNl/rEJNIyyRnhz2A0CCitSNbs/T8COgAALqk4BWARWziCmfe2YJlRFo8Hzmjw3oIJiYzzThFhE+lceZLDYNwDoApA4VjyewkBcHAwgEs9WX/K0pIgdf0G4DmerF98OAD/STEvamttjJsOZgjEBrFkuNuYY0df2h67cVMgHP0VAfNMx5IHTyIS8dqBZDc0idXTJ6VGF2umPyiwx4k0vZfm7otFS5sUpold35TQTU8fJs66eWw6jWMkNdnj50nMFSCxVLoCU5aWGLEsLFBsaUcuPM5BEO5GbxK9Z+FRXSNTYELnz20SDQBYC+bvafIdkmydf0FbvOCTaJCUlRnhrU3xG7w7ERkmfgeL4L0VnnewAT/uOct8BJ4qpCY2sbG9Zu9HCdjgoUQaxBdLv/6ZxeqjOxPBdvEJeU63/yTIbiJmyvzpZ7wUYCLJwTKoCXbXSuoVOjaRzgUfbgKwp75wPvZi0WA49iMCLnNxyW4CfgOg3cU1vaQNhJ9p4jOSrfUHJ+Pz/6O95fp/mg4qF/advrACkBlHy0zGbO/6I2t9Rsa8u/NGyf8+q9Z/dCzkrCzlbhSWX+gwcK9XyzN4frKlwdPa2n5UBW3h+BkhB5KdVUmJlnUw6MX1D35zi5caSnZCI6D1J0T1ChybSA/FU3wygCtNh2EQ1zuqg+HoAgCNLi6ZJtYXJVobLh3T6Uxm4BIi/AXANhc13OBFBn7AUKclaybtnWxp+Fp7y/xVUjtobrFljH8qgBIRMQMOE0PBrBebjmGEsNPtFx/EQn45KzUSvvFi9si9g3BXqnX+Ek/WHoTaGbFDIWULZ+gmWQs3Gko0VLJQTft2PUeqGbU4sDXSg9HKfmgsxZ58w0FY7+Zywbrop8D4oZtrgvmmRLzxjwDw/hMLtgG4E8Cdk89bOmbblq6ZxPrMni7tEyCUABLQxcDzAB4n1qu6HN9jmx+p9/IYWA4tZx3FmcJLpFPxhr8Gw7E3ABxuOpbhQa9sfPTalLis3Chmrf1lojcKlah8eBNtvMnNNTUrx699P3BzzZy1/YL10SAjvQ+Ctp1ZCsJ1yF2YEAYwKlyM3MAm0oMxBo0AjjcdhmFcS6THz1xcDa3vAtjFZJbeKx9f3u9FZ929c7cie/R6L5AtSegsKznaIX04AUcwcCAx9gZhEgETefjlO90EvMfAWgBrCXgbrF9VWr28YeKkd0x7H3sFMaYJOTBsaVfJl0SUhgUxEF0K4EemIxkeZi7oRDxdJDkjvCxtEbk2fkUnIDba3XtYzs2CVEZ8R7qyLnYImGVsO3vQHo6r74WhEkLNvL2cjdmxMtxfb63wYBPpgVnD+4Hxn6bDKABcK+0oZaeZgf3cWg8AGPqHPQnzkPTsVj/d82d3piwtqa7cspfWvoCPUMZMAQ1dTlDl1Ft7TXqTYp1wKvwfGxmzXAiQTA0lg55CPJKR0BoumvUvFKn/AjDWdCw5Y6DRMHvz7BwqIsbeTY7bYyCxHel3Ey0LPhBR6oPSYpsAvbRtbJn3DlDvqQgxfyz8vMYFtvHnU8BdoqoFik2kB0KjGSTWIFO4OHDlwy4Yik1j5kvcWKsPyYpxFb907az6mbnpBPAB4M5zHo1UhZoOBGSmaKkCPhJtjze2B8PNvwZorulYcoYc8R1Av5OZDhLy5SJTwz1GBz22cJ8UkjP13hatjybGExI9MKzoY2LZVhsi/BvAdxdbj48X7Lm1v0NBONF0CMZhrEEJnnVhIQJxFO5PLfxdrrvRFncgKLkLUQE2Gu6EUjEUj6N8R/KMjlfFVZVcYxdldGG/XgocUVs4MtNoKGbbuV0QIs9TgVztZcqR46rDUTedt4oWuyM9EFtxGMZgP6hhJn8OAnnpKlTlNTXRQSUorxukCWD4AKzHeNyPoylv0/VA3eJPg3FyvuvsCjN7Zj1l6R8SHNag2F8Qg1gGIrmi/pVAKBqnbONNoWNkEAvJNRq2J+o2vo5VQmqjEEepaWJ7ix5P+uuPfacvrNgqZNvZCymZ5+nozDuK5PdFGdQcDMVakvH698XFCwibSA9EmDIA/mE6jNEAsfakQIyVvwAb0UY5cs1I/9gQv85160W3UUSLGVwEibSBMplIRGElThJSM3KjMKoQuukhoCtRgecktPqyZYx/Kmk3G92HxCFHxm6yPd64NhiOJgBUS+j1IQDF91WetuQMI45AOVB52pKAb3zG8bKnyZZ2WDyldkb0MACzPFhat89oe8+DdS0DMTtWRsBxElIEmSPRfEnU7P0nZF1bChsDnr2BR6qOATBBRMzExMZRBgkNYmGmZ424PQjadvbw0ob4dZvF1NiNMswR6X7S50//reb0pklG9AegNrTw0EA4uthXkn4P2/TXvNSyibTFU7SfLoI3rzMVeHTSeA/WtQxAoJOmMlAmIlbo9dG9LL/QYcJS02EMAWfKnDXiqo7gBDkDExtHE5UzFh0EYG8RMUNNoYJlRlk94c0AAjwdQz6E+Enar56uCsfOMBYDAIQi/kCo+dxAOPpHh3yvE3AdgLEg8nSonk2kLZ7CrD/t1drK2XaEV2tbdofYEWw0LFzHjl3J6PTPUHhTNPvyesffFiSlRUlpqdeLkYmNownl03I3Pabe20K2nTuQfZ5k3rVmsgK3BsLRXwVn/MhVm9uhqArHjguGowuDFHifiO4l4HzsnN8eFayLfsorfVsjbfGMytOWBIC0dx9eTF8BUNANaaMKRVKNhp2JYPsLIkousCl+Q1swHL0LwBWmYxkAMxdYlnLsMDSxcXQhd5OcccQTaUnbzl5I+UWfZ3mnfmhruW8zYNS2lwi4DD7/xcG66O+V1kvbavd5xP3hZEw14diJGjgHwBcBHrqJlHElgMfdjSOLTaQtnqFKnWlg715jTLgyOLPpV8kVjabvxPcM5I5Gn8bySLeQlito1jFFqlATaROJSxWkRqib34kregSnla5LrvqGeG+LqG1nlkTbiuveBK4XE3z/iQXbguHYXwG+SEx0YErAuFiTujjY9mGCwtEHwHiCffpZ1dn997bHbtyU60KTz1s6Jr2xcx/28ZEadBzAxwOxT+nhlyJdVBu6db4Xdes2kbZ4B/MxHiuUQqvfB0LRC1Pxhkc91tqj6Tmq21dErAgbx9rjjc8Hw9HHAXh2fDhS2PF+RPGukPJPB2uZ0kFdPGVAhciBodvLO6hDpIkY5M2O4JCyxNPdH2MwKE8aGVTC+B0IhZBI96WagUtAuARaQZeWIxiObgTofQY2EDgDcAegHDD32v9OQHZnfZ/OzZ2V8AE7/v9G/P84zkH6IgA/z/sZ7YJNpC2eQWCJ0cCTiLAqGGp+gAh3dXPmvk3xG9oEdPcsfP7RX0OZJ8xYRFRwifSm1MSJr0iLZuvphRIXn/yNwmhiI22eQkCpiJixmx65wUAAQGRmXH35+LL7Ojd3poA851l4TyXAlTs+IQgAC3xkqK/CJtKWIqNKSIdANJuB2SVU4gTDzc8B9DITXlPA6yB+P8MqiW5/0tZSjhi5CXVUnBPqUpvKfx+c0PkBgH1Mx9KHNe7XJ+YA03ShPHpj8vTka1ghojUqIdLTxeZzGnBXOTB0e3kHOo4XFWUz5Ubr7p27NRhuXgTQf5rQL3iIpwdnxo5Krqh3dXPBJtIWzyBGBYuepgEAfABNBTCVuGd+MxN8YKAkjWA4ygDakXVZ6ARhCxjdBGxmIL39iAloB5iJOKWZNJg2kmIHjA4Q0gBvVowuZrVVgzt9Sm9NK7Szj9s7ujo6EI9kxJ+5lzBNkzmppPcSLQs+EBByn2fmphGO/QTg75oOZTtGLuhMoJjUIJbVdhBLnsj1PqTHbHOek7aPEd1xz6K5nIy5yGRKddTf7VsAs02HhUu26fAGN5e0ibTFOwg5NxQIQsgee2WPvnpyQ97p2zv+xdwzr317Vt77bYLu+ToB0KzgcwA4QJACQDi6lYAPGfwRgPUM+oCAtQS8rR31zth0+q33n1hQyJZpO5gdK0MnnyAjVtyNYyUlJT/OpLu/Jea3PQRMSnx3PxhuOgrwyZxGUXEM7ilwpBLp50x85hE700CCOzqEl72cojcUHX9bkAyGoz8BsMBUDAUN85cxO/ZtN4cC2UTa4hkMrDcdg0HGMHAIQIcAO0q/GAD5NLb6fDoYjr4F0AvE/AIDz2joJ9vjje3mQu6f4DacAEK5jFpx1kf3sv7Baz6uDkd/B+AS07EA4Ax3y9tDsk+qrAPQxdeYWkj0NBHLlCKZuukhkp1oyOZv7roz9MNSP18OoMZ0LAVITbBTn5sEfu/WgjaRtngGMz9LkjsBxYUCcDjAhzNhTvYLSgfD0dcIWAmmexJIxguiRIS0XMe7Ku5EGgCYaTGICyGRftNI4y2J7XCamdg4mhBsImZzNz2y1ncFMJV18yP1GwLhaAMBvzEdS0HC+CpcTKTtZEOLZ5B2VgKw9Yu5owAcxcA1TPxQkAIfBcPNP66e0XSk2bBkOt4J6JrgVD0noeUlyXj9k2AYn7THMOMcAEAmOSO8ZmJi4yhDLMlk5RPfqRXdce+BdGG4yKRaG+5koj+ajqMgITo7cGZ0f7eWs4m0xTOSq77xHtj20+dBNUBz2adeDoajf60JR6cYikPkYsvAc2vjV3RKaHkNES82HYOJnbHAmUsrARwhIlYAR+hFj9j0SXzY3nL9P4W0diBp25mlPRFKvCGsOSAKmesBWDvY3VHk4MuuLebWQhZLfzCp7wJi5kqjFQJwjgbWBMLRX40P3SJW91Zz1qLJAFy7cx8ULv6yjl4S5epuGO4RYO3ID2LRXadA6rpSpH7jBcOcSClIqInY3JAl6YmGTxaSi0yiZcEHzPg8gKKaFCvElYhEXPmssom0xVNSrfMeA/Ar03GMEhQBl5VQyXOBUPQ0CUGdcSR3dEZPYnR/fRcTfmYwgi3t2Ph3cVXNgjW38p7Eo4nqtqoTAJkmYiZj/1fCO9KF95pMxRseZeAK2DLLXTmwOh6sc2Mhm0hbPKekpPs6AC+YjmMUsS8RWoN1sfmeK8kd/UIr/+hJpAH4fGoJgLQJbWasMdKoKtdo2JGqnfSqkNaohEnJJZnKwE3y7FgZAUK2nT0UQKNhf6RaG+4E4SoA8sOZChQiPAef3ujGWjaRtnjO+ge/uQVM5wIomNqxUYAfzE3BULTBUxUS22E0U0PpIW0PzVsHwp+MiBu5oDMBOFlGCquNTGwcTQgOYqkYU/aMkNZ2gttwgrCfOzvdfuNNxgORbGm4nYALAGw1HYth3mGif0nMSE1NrJjvyv+XTaQtIiTj9e/7HJwLYFQ0kxUMhKZgOHqhJ2tPWVoC0ImerL0bxT2IZSA0eJEJXZ8BP+7qGc1HAAiKiBXozl9xwUKJNL+w7t658skbaemyjlc2PnptSlZzeCRaG/5Ejp4Kwp54mtPGTP+WLKejUi31v3Wzlt0m0hYRguHmsx0fHoZQTd4eBAFYstfM5oluL1xdte14ABVur9sfDPkJfBK0t8xfBQNlTUpBfBAL+5WclRoVhsVYsVJzetMkAAdIaDGbem/LlaVlKY7m18SqxldRRrd9QQkAAAq+SURBVNMYWIQ9o9TjHRA1+th/UCpef5ObEw17sYm0xVMmn7d0TDAc/QVAD0DK/WHPozqt1f+6vqoe5TWUUjBErfAIePvjFfPlHUNYbIIcZ4jsIJY8YL9P7r1Npk6bpCcaFs+pWvL++o5Ua0O9In0yIH/TLQAzKE6ELyTPSB2WbKlv3hC/brNXYjaRtnhGbWjhoZ2bO59AtmPY4iEE/lJ13UJXBw8w9KiuoZRiTJfzGwAJMUFjo5ilSgXwxqYV18v9Pkchgu9taJ8Wv0nO2nbyfqKiJP8886WtpfHZ5BmpTxHjKwC9bDoeF/iAQd/3OfhEqrU+nGhp+IOEHaFNpC2eEAw3n+2Qbw2AY03HsodQwqyudndJqR0dQzWUQrz/xIJtAP9CTNDAKOaaU28aD8ZRImLGdjhHEWJuPPzxxocb35HR2oGwbScAdCTP6CjOuuNIRCfiDf+XbJ33SRCdDeABFNXsB/4YwC+Y1DnJmkkHpFrrv71hVcObkhH4JcUsewaBUPRiZL2jS0zHskdB9HkA33FjqcrTlgSAtAbg+UWQif7mtYZpHMd3m8+nLxDRgn5MQqcvXFp2FAAR1xUCtUjojFoiEYWVCEDgvQ1Q3HuN3WGogwkslsBTgQ1iGRnEyRY8CODBmnDzJxi4gEHnA5iKwtt0fZFBfyHGvclQao3p3z2ZFLeMPgJ10a8T41YU3htvT4BVRu/T9kjjh6YDsVgsFkvxU3N60yRdQueC1VkATwVwkHAI7QCtBvRqBq3OKN/qQivtsom0xTV6kujbXF62nYEfEDALwAzYXe4h4C8mW+f/3nQUFovFYhl9TDh7YdCfUVOYaYpifJIZ+4GwDwH75Onb3QnCP8B4hxgvMfh5RXi+rbXhDYAKutTEJtIWVwjWNc8B028B+FxcNk3A7ERrwwoA2Hf6wootY/xTFevjGOpAgA8AY39kbZxct38rRgjUkGitj5mOw2KxWCx7FhNn3bZXt9O1t3LUXuzTBEYVNBSIKvs+jhhdTLxZMScc7U/4ONNWzCepNpG25E113aI6sL7P9SlSxFcnW+b/NNeHV562JKDK0+ORwQTy6fHQNAGECQCqoDEBisYTuBxMxEBVH6FK9JaisB4Hot5d7zHY8ZzKev4NAGORHTxRcLvjDPwg1drwLdNxWCwWi8WyJ2CbDS15UXN60yTNzm8BcjWJJuA3iWEk0QDQM1VKbLJUbejWcY7P2R+sj4bGsSB8GqApMHiDSswiA1QsFovFYrHYRNqSD5GI0ivp1wDt5eayDHpLdW+7xs01vaDH4P2Vnj/LAfxHMBTbFwrzwfx1ZHeuZSHaJK5psVgsFsseinVWsIyY6pWBGwGqc3tdBb6h7bEbizIhTMbr30+21N8ApiNgYmIUoUNc02KxWCyWPRSbSFtGRHDGj/Zj4D9cX5jxVKK1/s+urytMMl7/PvvKz4aQt24vxPyxpJ7FYrFYLHsyNpG2jAjy+78PwPV6XCZECt3qJldSD8/dyEw/kNSk0THm1WKxWCyWosAm0pZhUxNaNJUZl7i9LgEbUjWTRtmUO5acMueUjisvzjG1FovFYrEUITaRtgwbTfqb8MCZgoE/Y/mFjtvrmqRifLnYmFoAb6+7d+5WQT2LxWKxWPZobCJtGRZ7zWyeCOBzXqzNwD1erGuS7vatlUM/yi24VU7LYrFYLBaLTaQtwyLNdAWAUi/WznB6jRfrmoRLfPsJyj0kqGWxWCwWyx6PTaQtw4KAf/Fo6Y82xW9o82htY2jGGUJSjmZeIaRlsVgsFosFNpG2DIPa0K17g3GMR8u3e7SuQZgIfKmQ2N/a442j8HdosVgsFkvhYhNpS85klBOGV+OvCaPC8q4vgbpF5wI4VkKLiX4soWOxWCwWi2UHNpG25Awxwp4tzjgQkcioeT3Whm4dR8wxIbl/pqr3vk9Iy2KxWCwWSw+jJnGxCOBdWQcAVAQeCZ7q4fpyRCIqo5w7ABwoIUeghaPNNtBisVgslmLAJtKW3CE+3NP1NX/D0/UlCEX8gZWBXxKzJxaB/fBGoqPsNiEti8VisVgsfbCJtCUnxs9cXA2g2ksNAs4PhJqlmvNcZ6+ZzRODFHiAgMukNJnoBjwzNy2lZ7FYLBaLZQc2kbbkRCnrQyR0FNHPgnWxWRJa7sEUCDVfmtH0AoCZUqpE+Euqpf5eKT2LxWKxWCw7YxNpS06QdsZI6DBQBua/VNdF5wHsjUOIazAFQ9FPB8OxJ4joDgATBcXXdaXpSkE9i8VisVgsu1DgiYqlUKiZGQ1rjRZh2TUEfCvRWt8CUMHY41XWxQ5RGl8k4isBeFs33j+OUjirbUWDHQlusVgsFotBbCJtyYmqUNPxitRzhuRfIcadGvhTKpR6BZGIlpNmqqxbdLDSmAZgGhGfCeAIOf3dIfC3E63zv28yBovFYrFYLDaRtuRI5WlLAr6SdNJ0HAA2gfE8FJ4F8AI0PmQfr/N184a2vff5eLg2cONnLq4ugZ5ITHtrzZOI9F4gtQ8x783gTwB0JICx3jyVEUD4WbKl4Wumw7BYLBaLxWITacswCIZj7wK8n+k4BkED2Njz93YADKAbQGnP1yqR7QsoAyBS8+0yDyQ5dR7ikYzpQCwWi8VisQB+0wFYigl+CEAhN7gpAIGevwcGe2DxwS0+Lpljk2iLxWKxWAoH69phGQa8zHQEeya0PFmuztkQv26z6UgsFovFYrHswCbSlpxJtjY8CNDLpuPYk2Cmxckzkhfj/vou07FYLBaLxWLZGVsjbRkWwXDz2QA9YDqOPYDNxDQvEa//pelALBaLxWKx9I/PdACW4mLb2gfeHnPg7L1BmGo6ltEKg571Kd+sROu8FaZjsVgsFovFMjC2tMMybMZjQiMRTHlKj2a6GfT9VE1yetuK698wHYzFYrFYLJbBsaUdlhFReWbTwT5HPQJgsulYRgn3+RzM37Cq4U3TgVgsFovFYskNm0hbRkztjOhhjg8tAPY1HUsR8zoTfTPVUn+v6UAsFovFYrEMD5tIW/Kisi52iI/5PgCHm46lqCC8xBrfT9VOWj7caYwWi8VisVgKA5tIW/Km5tSbxnNZ+RJmXGo6liJgNbH+YSI+/08AselgLBaLxWKxjBybSFtcIxBqvpSI/hfAJNOxFBgJEH7NxL9IrZj/oulgLBaLxWKxuINNpC2uMnHWzWPT6bJvAPxNAONMx2OQrQw89P/bu39X2uM4juPP99cJOUh+DiSDumy6g0lRZFE2g9FiU/IX2Fn8BTbDvZNYb938yGJwduUknZJ8D0rC93zeBjeDyeD4uLwe03f69Ppuz+FTH4ONtN429aCKiIjI16OQlqpoGlttz1ntHDBveH/sPR+kBGy7+1b+Pvw5O1i6iz1IREREqkchLVXm1jq+NkGwWWAaaIu96B2VwHbNfL8Swu7V38WC7j2LiIh8Hwpp+Tgzv2raLs9H3cMUMAL8BHKRV73VNVAAPzKzwyxL9q53Fk5ijxIREZF4FNISTdfkSr5SqR0OwYfABnAGMf8B1hlpkgMl8KJhRTeODQpZlhwpmkVEROQ1hbR8On1j6/W3lHseLdddY96L0xOgO3F6AzSa0YzRgFMHtAB1QJ7nEL76d8zLt2PB8BSsDCE1rOzuKUZqnpSBs4SseNFxc8rv5YcY/ywiIiL/nyfZjN/lfTww6gAAAABJRU5ErkJggg==;perimeterSpacing=1;strokeWidth=1;imageBackground=#ffffff;" parent="H06JCzwJP9NlG7eEe4fO-117" vertex="1">
          <mxGeometry x="8.71999999999997" y="11.879999999999995" width="68.56" height="16.24" as="geometry" />
        </mxCell>
        <mxCell id="H06JCzwJP9NlG7eEe4fO-119" value="&lt;font style=&quot;font-size: 11px&quot;&gt;Targets discovery via docker API&lt;/font&gt;" style="text;html=1;strokeColor=none;fillColor=none;align=center;verticalAlign=middle;whiteSpace=wrap;rounded=0;fontFamily=Manrope;fontSource=https%3A%2F%2Ffonts.googleapis.com%2Fcss%3Ffamily%3DManrope;" parent="1" vertex="1">
          <mxGeometry x="220" y="80" width="125" height="30" as="geometry" />
        </mxCell>
        <mxCell id="H06JCzwJP9NlG7eEe4fO-121" style="edgeStyle=none;rounded=0;orthogonalLoop=1;jettySize=auto;html=1;exitX=0.5;exitY=0;exitDx=0;exitDy=0;fontFamily=Manrope;fontSource=https%3A%2F%2Ffonts.googleapis.com%2Fcss%3Ffamily%3DManrope;" parent="1" source="H06JCzwJP9NlG7eEe4fO-111" target="H06JCzwJP9NlG7eEe4fO-113" edge="1">
          <mxGeometry relative="1" as="geometry" />
        </mxCell>
        <mxCell id="H06JCzwJP9NlG7eEe4fO-123" value="" style="group;aspect=fixed;" parent="1" vertex="1" connectable="0">
          <mxGeometry x="253" y="230" width="400" height="126.95" as="geometry" />
        </mxCell>
        <mxCell id="H06JCzwJP9NlG7eEe4fO-114" value="" style="rounded=1;whiteSpace=wrap;html=1;fillColor=#bac8d3;strokeColor=#23445d;" parent="H06JCzwJP9NlG7eEe4fO-123" vertex="1">
          <mxGeometry width="399.99999999999994" height="126.95" as="geometry" />
        </mxCell>
        <mxCell id="H06JCzwJP9NlG7eEe4fO-1" value="" style="group" parent="H06JCzwJP9NlG7eEe4fO-123" vertex="1" connectable="0">
          <mxGeometry x="63.492063492063494" y="90.13449999999996" width="31.746031746031747" height="31.7375" as="geometry" />
        </mxCell>
        <mxCell id="H06JCzwJP9NlG7eEe4fO-2" value="" style="group" parent="H06JCzwJP9NlG7eEe4fO-1" vertex="1" connectable="0">
          <mxGeometry width="31.746031746031747" height="31.7375" as="geometry" />
        </mxCell>
        <mxCell id="H06JCzwJP9NlG7eEe4fO-3" value="" style="whiteSpace=wrap;html=1;aspect=fixed;fillColor=#001135;strokeColor=none;connectable=1;allowArrows=1;fontFamily=Manrope;fontSource=https%3A%2F%2Ffonts.googleapis.com%2Fcss%3Ffamily%3DManrope;" parent="H06JCzwJP9NlG7eEe4fO-2" vertex="1">
          <mxGeometry width="31.736408566721575" height="31.736408566721575" as="geometry" />
        </mxCell>
        <mxCell id="H06JCzwJP9NlG7eEe4fO-4" value="" style="endArrow=open;html=1;edgeStyle=orthogonalEdgeStyle;rounded=0;endFill=0;startSize=6;endSize=2;strokeColor=#FFFFFF;fontFamily=Manrope;fontSource=https%3A%2F%2Ffonts.googleapis.com%2Fcss%3Ffamily%3DManrope;" parent="H06JCzwJP9NlG7eEe4fO-2" edge="1">
          <mxGeometry width="52.9100529100529" height="52.895833333333336" as="geometry">
            <mxPoint x="3.1746031746031758" y="12.694999999999995" as="sourcePoint" />
            <mxPoint x="11.640211640211643" y="3.1737499999999987" as="targetPoint" />
            <Array as="points">
              <mxPoint x="11.640211640211643" y="12.694999999999995" />
            </Array>
          </mxGeometry>
        </mxCell>
        <mxCell id="H06JCzwJP9NlG7eEe4fO-5" value="" style="endArrow=open;html=1;edgeStyle=orthogonalEdgeStyle;rounded=0;endFill=0;startSize=6;endSize=2;strokeColor=#FFFFFF;fontFamily=Manrope;fontSource=https%3A%2F%2Ffonts.googleapis.com%2Fcss%3Ffamily%3DManrope;" parent="H06JCzwJP9NlG7eEe4fO-2" edge="1">
          <mxGeometry width="52.9100529100529" height="52.895833333333336" as="geometry">
            <mxPoint x="11.640211640211643" y="28.56375" as="sourcePoint" />
            <mxPoint x="3.1746031746031758" y="20.100416666666668" as="targetPoint" />
            <Array as="points">
              <mxPoint x="11.640211640211643" y="20.100416666666668" />
            </Array>
          </mxGeometry>
        </mxCell>
        <mxCell id="H06JCzwJP9NlG7eEe4fO-6" value="" style="endArrow=open;html=1;edgeStyle=orthogonalEdgeStyle;rounded=0;endFill=0;startSize=6;endSize=2;strokeColor=#FFFFFF;fontFamily=Manrope;fontSource=https%3A%2F%2Ffonts.googleapis.com%2Fcss%3Ffamily%3DManrope;" parent="H06JCzwJP9NlG7eEe4fO-2" edge="1">
          <mxGeometry width="52.9100529100529" height="52.895833333333336" as="geometry">
            <mxPoint x="19.04761904761905" y="3.1737499999999987" as="sourcePoint" />
            <mxPoint x="28.571428571428566" y="12.694999999999995" as="targetPoint" />
            <Array as="points">
              <mxPoint x="19.04761904761905" y="12.694999999999995" />
            </Array>
          </mxGeometry>
        </mxCell>
        <mxCell id="H06JCzwJP9NlG7eEe4fO-7" value="" style="endArrow=open;html=1;edgeStyle=orthogonalEdgeStyle;rounded=0;endFill=0;startSize=6;endSize=2;strokeColor=#FFFFFF;fontFamily=Manrope;fontSource=https%3A%2F%2Ffonts.googleapis.com%2Fcss%3Ffamily%3DManrope;" parent="H06JCzwJP9NlG7eEe4fO-2" edge="1">
          <mxGeometry width="52.9100529100529" height="52.895833333333336" as="geometry">
            <mxPoint x="28.571428571428566" y="20.100416666666668" as="sourcePoint" />
            <mxPoint x="19.04761904761905" y="28.56375" as="targetPoint" />
            <Array as="points">
              <mxPoint x="19.04761904761905" y="20.100416666666668" />
            </Array>
          </mxGeometry>
        </mxCell>
        <mxCell id="H06JCzwJP9NlG7eEe4fO-8" value="&lt;font color=&quot;#001135&quot; style=&quot;font-size: 9px&quot;&gt;leaf1&lt;/font&gt;" style="text;html=1;align=center;verticalAlign=middle;resizable=0;points=[];autosize=1;fontSize=14;fontFamily=Manrope;fontColor=#FFFFFF;fontStyle=0" parent="H06JCzwJP9NlG7eEe4fO-123" vertex="1">
          <mxGeometry x="33.4968253968254" y="101.88273250000006" width="30" height="20" as="geometry" />
        </mxCell>
        <mxCell id="H06JCzwJP9NlG7eEe4fO-10" value="" style="group" parent="H06JCzwJP9NlG7eEe4fO-123" vertex="1" connectable="0">
          <mxGeometry x="136.7492063492064" y="90.13449999999996" width="31.746031746031747" height="31.7375" as="geometry" />
        </mxCell>
        <mxCell id="H06JCzwJP9NlG7eEe4fO-11" value="" style="group" parent="H06JCzwJP9NlG7eEe4fO-10" vertex="1" connectable="0">
          <mxGeometry width="31.746031746031747" height="31.7375" as="geometry" />
        </mxCell>
        <mxCell id="H06JCzwJP9NlG7eEe4fO-12" value="" style="whiteSpace=wrap;html=1;aspect=fixed;fillColor=#001135;strokeColor=none;connectable=1;allowArrows=1;fontFamily=Manrope;fontSource=https%3A%2F%2Ffonts.googleapis.com%2Fcss%3Ffamily%3DManrope;" parent="H06JCzwJP9NlG7eEe4fO-11" vertex="1">
          <mxGeometry width="31.736408566721575" height="31.736408566721575" as="geometry" />
        </mxCell>
        <mxCell id="H06JCzwJP9NlG7eEe4fO-13" value="" style="endArrow=open;html=1;edgeStyle=orthogonalEdgeStyle;rounded=0;endFill=0;startSize=6;endSize=2;strokeColor=#FFFFFF;fontFamily=Manrope;fontSource=https%3A%2F%2Ffonts.googleapis.com%2Fcss%3Ffamily%3DManrope;" parent="H06JCzwJP9NlG7eEe4fO-11" edge="1">
          <mxGeometry width="52.9100529100529" height="52.895833333333336" as="geometry">
            <mxPoint x="3.1746031746031758" y="12.694999999999995" as="sourcePoint" />
            <mxPoint x="11.640211640211643" y="3.1737499999999987" as="targetPoint" />
            <Array as="points">
              <mxPoint x="11.640211640211643" y="12.694999999999995" />
            </Array>
          </mxGeometry>
        </mxCell>
        <mxCell id="H06JCzwJP9NlG7eEe4fO-14" value="" style="endArrow=open;html=1;edgeStyle=orthogonalEdgeStyle;rounded=0;endFill=0;startSize=6;endSize=2;strokeColor=#FFFFFF;fontFamily=Manrope;fontSource=https%3A%2F%2Ffonts.googleapis.com%2Fcss%3Ffamily%3DManrope;" parent="H06JCzwJP9NlG7eEe4fO-11" edge="1">
          <mxGeometry width="52.9100529100529" height="52.895833333333336" as="geometry">
            <mxPoint x="11.640211640211643" y="28.56375" as="sourcePoint" />
            <mxPoint x="3.1746031746031758" y="20.100416666666668" as="targetPoint" />
            <Array as="points">
              <mxPoint x="11.640211640211643" y="20.100416666666668" />
            </Array>
          </mxGeometry>
        </mxCell>
        <mxCell id="H06JCzwJP9NlG7eEe4fO-15" value="" style="endArrow=open;html=1;edgeStyle=orthogonalEdgeStyle;rounded=0;endFill=0;startSize=6;endSize=2;strokeColor=#FFFFFF;fontFamily=Manrope;fontSource=https%3A%2F%2Ffonts.googleapis.com%2Fcss%3Ffamily%3DManrope;" parent="H06JCzwJP9NlG7eEe4fO-11" edge="1">
          <mxGeometry width="52.9100529100529" height="52.895833333333336" as="geometry">
            <mxPoint x="19.04761904761905" y="3.1737499999999987" as="sourcePoint" />
            <mxPoint x="28.571428571428566" y="12.694999999999995" as="targetPoint" />
            <Array as="points">
              <mxPoint x="19.04761904761905" y="12.694999999999995" />
            </Array>
          </mxGeometry>
        </mxCell>
        <mxCell id="H06JCzwJP9NlG7eEe4fO-16" value="" style="endArrow=open;html=1;edgeStyle=orthogonalEdgeStyle;rounded=0;endFill=0;startSize=6;endSize=2;strokeColor=#FFFFFF;fontFamily=Manrope;fontSource=https%3A%2F%2Ffonts.googleapis.com%2Fcss%3Ffamily%3DManrope;" parent="H06JCzwJP9NlG7eEe4fO-11" edge="1">
          <mxGeometry width="52.9100529100529" height="52.895833333333336" as="geometry">
            <mxPoint x="28.571428571428566" y="20.100416666666668" as="sourcePoint" />
            <mxPoint x="19.04761904761905" y="28.56375" as="targetPoint" />
            <Array as="points">
              <mxPoint x="19.04761904761905" y="20.100416666666668" />
            </Array>
          </mxGeometry>
        </mxCell>
        <mxCell id="H06JCzwJP9NlG7eEe4fO-17" value="&lt;font color=&quot;#001135&quot; style=&quot;font-size: 9px&quot;&gt;leaf2&lt;/font&gt;" style="text;html=1;align=center;verticalAlign=middle;resizable=0;points=[];autosize=1;fontSize=14;fontFamily=Manrope;fontColor=#FFFFFF;fontStyle=0" parent="H06JCzwJP9NlG7eEe4fO-123" vertex="1">
          <mxGeometry x="100.23539682539693" y="101.8779825" width="40" height="20" as="geometry" />
        </mxCell>
        <mxCell id="H06JCzwJP9NlG7eEe4fO-18" value="&lt;font color=&quot;#001135&quot; style=&quot;font-size: 9px&quot;&gt;spine1&lt;/font&gt;" style="text;html=1;align=center;verticalAlign=middle;resizable=0;points=[];autosize=1;fontSize=14;fontFamily=Manrope;fontColor=#FFFFFF;fontStyle=0" parent="H06JCzwJP9NlG7eEe4fO-123" vertex="1">
          <mxGeometry x="90.0039682539682" y="12.694999999999995" width="40" height="20" as="geometry" />
        </mxCell>
        <mxCell id="H06JCzwJP9NlG7eEe4fO-21" value="" style="group" parent="H06JCzwJP9NlG7eEe4fO-123" vertex="1" connectable="0">
          <mxGeometry x="137.1428571428571" y="6.3474999999999975" width="31.746031746031747" height="31.7375" as="geometry" />
        </mxCell>
        <mxCell id="H06JCzwJP9NlG7eEe4fO-22" value="" style="group" parent="H06JCzwJP9NlG7eEe4fO-21" vertex="1" connectable="0">
          <mxGeometry width="31.746031746031747" height="31.7375" as="geometry" />
        </mxCell>
        <mxCell id="H06JCzwJP9NlG7eEe4fO-23" value="" style="whiteSpace=wrap;html=1;aspect=fixed;fillColor=#001135;strokeColor=none;connectable=1;allowArrows=1;fontFamily=Manrope;fontSource=https%3A%2F%2Ffonts.googleapis.com%2Fcss%3Ffamily%3DManrope;" parent="H06JCzwJP9NlG7eEe4fO-22" vertex="1">
          <mxGeometry width="31.736408566721575" height="31.736408566721575" as="geometry" />
        </mxCell>
        <mxCell id="H06JCzwJP9NlG7eEe4fO-24" value="" style="endArrow=open;html=1;edgeStyle=orthogonalEdgeStyle;rounded=0;endFill=0;startSize=6;endSize=2;strokeColor=#FFFFFF;fontFamily=Manrope;fontSource=https%3A%2F%2Ffonts.googleapis.com%2Fcss%3Ffamily%3DManrope;" parent="H06JCzwJP9NlG7eEe4fO-22" edge="1">
          <mxGeometry width="52.9100529100529" height="52.895833333333336" as="geometry">
            <mxPoint x="3.1746031746031758" y="12.694999999999995" as="sourcePoint" />
            <mxPoint x="11.640211640211643" y="3.1737499999999987" as="targetPoint" />
            <Array as="points">
              <mxPoint x="11.640211640211643" y="12.694999999999995" />
            </Array>
          </mxGeometry>
        </mxCell>
        <mxCell id="H06JCzwJP9NlG7eEe4fO-25" value="" style="endArrow=open;html=1;edgeStyle=orthogonalEdgeStyle;rounded=0;endFill=0;startSize=6;endSize=2;strokeColor=#FFFFFF;fontFamily=Manrope;fontSource=https%3A%2F%2Ffonts.googleapis.com%2Fcss%3Ffamily%3DManrope;" parent="H06JCzwJP9NlG7eEe4fO-22" edge="1">
          <mxGeometry width="52.9100529100529" height="52.895833333333336" as="geometry">
            <mxPoint x="11.640211640211643" y="28.56375" as="sourcePoint" />
            <mxPoint x="3.1746031746031758" y="20.100416666666668" as="targetPoint" />
            <Array as="points">
              <mxPoint x="11.640211640211643" y="20.100416666666668" />
            </Array>
          </mxGeometry>
        </mxCell>
        <mxCell id="H06JCzwJP9NlG7eEe4fO-26" value="" style="endArrow=open;html=1;edgeStyle=orthogonalEdgeStyle;rounded=0;endFill=0;startSize=6;endSize=2;strokeColor=#FFFFFF;fontFamily=Manrope;fontSource=https%3A%2F%2Ffonts.googleapis.com%2Fcss%3Ffamily%3DManrope;" parent="H06JCzwJP9NlG7eEe4fO-22" edge="1">
          <mxGeometry width="52.9100529100529" height="52.895833333333336" as="geometry">
            <mxPoint x="19.04761904761905" y="3.1737499999999987" as="sourcePoint" />
            <mxPoint x="28.571428571428566" y="12.694999999999995" as="targetPoint" />
            <Array as="points">
              <mxPoint x="19.04761904761905" y="12.694999999999995" />
            </Array>
          </mxGeometry>
        </mxCell>
        <mxCell id="H06JCzwJP9NlG7eEe4fO-27" value="" style="endArrow=open;html=1;edgeStyle=orthogonalEdgeStyle;rounded=0;endFill=0;startSize=6;endSize=2;strokeColor=#FFFFFF;fontFamily=Manrope;fontSource=https%3A%2F%2Ffonts.googleapis.com%2Fcss%3Ffamily%3DManrope;" parent="H06JCzwJP9NlG7eEe4fO-22" edge="1">
          <mxGeometry width="52.9100529100529" height="52.895833333333336" as="geometry">
            <mxPoint x="28.571428571428566" y="20.100416666666668" as="sourcePoint" />
            <mxPoint x="19.04761904761905" y="28.56375" as="targetPoint" />
            <Array as="points">
              <mxPoint x="19.04761904761905" y="20.100416666666668" />
            </Array>
          </mxGeometry>
        </mxCell>
        <mxCell id="H06JCzwJP9NlG7eEe4fO-28" style="rounded=0;orthogonalLoop=1;jettySize=auto;html=1;fontFamily=Manrope;fontSize=12;fontColor=#FFFFFF;endArrow=oval;endFill=1;startArrow=oval;startFill=1;entryX=0.25;entryY=0;entryDx=0;entryDy=0;strokeColor=#98A2AE;" parent="H06JCzwJP9NlG7eEe4fO-123" target="H06JCzwJP9NlG7eEe4fO-12" edge="1">
          <mxGeometry relative="1" as="geometry">
            <mxPoint x="152.38095238095238" y="38.08500000000001" as="sourcePoint" />
            <mxPoint x="67.61904761904762" y="96.48199999999999" as="targetPoint" />
          </mxGeometry>
        </mxCell>
        <mxCell id="H06JCzwJP9NlG7eEe4fO-29" style="rounded=0;orthogonalLoop=1;jettySize=auto;html=1;fontFamily=Manrope;fontSize=12;fontColor=#FFFFFF;endArrow=oval;endFill=1;startArrow=oval;startFill=1;entryX=0.25;entryY=0;entryDx=0;entryDy=0;strokeColor=#98A2AE;endSize=6;startSize=6;exitX=0.5;exitY=1;exitDx=0;exitDy=0;" parent="H06JCzwJP9NlG7eEe4fO-123" source="H06JCzwJP9NlG7eEe4fO-23" target="H06JCzwJP9NlG7eEe4fO-3" edge="1">
          <mxGeometry relative="1" as="geometry">
            <mxPoint x="87.9365079365079" y="62.2055" as="sourcePoint" />
            <mxPoint x="53.26031746031742" y="82.51749999999997" as="targetPoint" />
          </mxGeometry>
        </mxCell>
        <mxCell id="H06JCzwJP9NlG7eEe4fO-30" value="" style="group" parent="H06JCzwJP9NlG7eEe4fO-123" vertex="1" connectable="0">
          <mxGeometry x="245.07936507936492" y="6.3474999999999975" width="31.746031746031747" height="31.7375" as="geometry" />
        </mxCell>
        <mxCell id="H06JCzwJP9NlG7eEe4fO-31" value="" style="whiteSpace=wrap;html=1;aspect=fixed;fillColor=#001135;strokeColor=none;connectable=1;allowArrows=1;fontFamily=Manrope;fontSource=https%3A%2F%2Ffonts.googleapis.com%2Fcss%3Ffamily%3DManrope;" parent="H06JCzwJP9NlG7eEe4fO-30" vertex="1">
          <mxGeometry width="31.736408566721575" height="31.736408566721575" as="geometry" />
        </mxCell>
        <mxCell id="H06JCzwJP9NlG7eEe4fO-32" value="" style="endArrow=open;html=1;edgeStyle=orthogonalEdgeStyle;rounded=0;endFill=0;startSize=6;endSize=2;strokeColor=#FFFFFF;fontFamily=Manrope;fontSource=https%3A%2F%2Ffonts.googleapis.com%2Fcss%3Ffamily%3DManrope;" parent="H06JCzwJP9NlG7eEe4fO-30" edge="1">
          <mxGeometry width="52.9100529100529" height="52.895833333333336" as="geometry">
            <mxPoint x="3.1746031746031758" y="12.694999999999995" as="sourcePoint" />
            <mxPoint x="11.640211640211643" y="3.1737499999999987" as="targetPoint" />
            <Array as="points">
              <mxPoint x="11.640211640211643" y="12.694999999999995" />
            </Array>
          </mxGeometry>
        </mxCell>
        <mxCell id="H06JCzwJP9NlG7eEe4fO-33" value="" style="endArrow=open;html=1;edgeStyle=orthogonalEdgeStyle;rounded=0;endFill=0;startSize=6;endSize=2;strokeColor=#FFFFFF;fontFamily=Manrope;fontSource=https%3A%2F%2Ffonts.googleapis.com%2Fcss%3Ffamily%3DManrope;" parent="H06JCzwJP9NlG7eEe4fO-30" edge="1">
          <mxGeometry width="52.9100529100529" height="52.895833333333336" as="geometry">
            <mxPoint x="11.640211640211643" y="28.56375" as="sourcePoint" />
            <mxPoint x="3.1746031746031758" y="20.100416666666668" as="targetPoint" />
            <Array as="points">
              <mxPoint x="11.640211640211643" y="20.100416666666668" />
            </Array>
          </mxGeometry>
        </mxCell>
        <mxCell id="H06JCzwJP9NlG7eEe4fO-34" value="" style="endArrow=open;html=1;edgeStyle=orthogonalEdgeStyle;rounded=0;endFill=0;startSize=6;endSize=2;strokeColor=#FFFFFF;fontFamily=Manrope;fontSource=https%3A%2F%2Ffonts.googleapis.com%2Fcss%3Ffamily%3DManrope;" parent="H06JCzwJP9NlG7eEe4fO-30" edge="1">
          <mxGeometry width="52.9100529100529" height="52.895833333333336" as="geometry">
            <mxPoint x="19.04761904761905" y="3.1737499999999987" as="sourcePoint" />
            <mxPoint x="28.571428571428566" y="12.694999999999995" as="targetPoint" />
            <Array as="points">
              <mxPoint x="19.04761904761905" y="12.694999999999995" />
            </Array>
          </mxGeometry>
        </mxCell>
        <mxCell id="H06JCzwJP9NlG7eEe4fO-35" value="" style="endArrow=open;html=1;edgeStyle=orthogonalEdgeStyle;rounded=0;endFill=0;startSize=6;endSize=2;strokeColor=#FFFFFF;fontFamily=Manrope;fontSource=https%3A%2F%2Ffonts.googleapis.com%2Fcss%3Ffamily%3DManrope;" parent="H06JCzwJP9NlG7eEe4fO-30" edge="1">
          <mxGeometry width="52.9100529100529" height="52.895833333333336" as="geometry">
            <mxPoint x="28.571428571428566" y="20.100416666666668" as="sourcePoint" />
            <mxPoint x="19.04761904761905" y="28.56375" as="targetPoint" />
            <Array as="points">
              <mxPoint x="19.04761904761905" y="20.100416666666668" />
            </Array>
          </mxGeometry>
        </mxCell>
        <mxCell id="H06JCzwJP9NlG7eEe4fO-36" value="&lt;font color=&quot;#001135&quot; style=&quot;font-size: 9px&quot;&gt;spine2&lt;/font&gt;" style="text;html=1;align=center;verticalAlign=middle;resizable=0;points=[];autosize=1;fontSize=14;fontFamily=Manrope;fontColor=#FFFFFF;fontStyle=0" parent="H06JCzwJP9NlG7eEe4fO-123" vertex="1">
          <mxGeometry x="283.0158730158729" y="12.694999999999995" width="40" height="20" as="geometry" />
        </mxCell>
        <mxCell id="H06JCzwJP9NlG7eEe4fO-37" style="rounded=0;orthogonalLoop=1;jettySize=auto;html=1;fontFamily=Manrope;fontSize=12;fontColor=#FFFFFF;endArrow=oval;endFill=1;startArrow=oval;startFill=1;entryX=0.75;entryY=0;entryDx=0;entryDy=0;strokeColor=#98A2AE;endSize=6;startSize=6;exitX=0.5;exitY=1;exitDx=0;exitDy=0;" parent="H06JCzwJP9NlG7eEe4fO-123" source="H06JCzwJP9NlG7eEe4fO-31" target="H06JCzwJP9NlG7eEe4fO-3" edge="1">
          <mxGeometry relative="1" as="geometry">
            <mxPoint x="70.7936507936508" y="62.2055" as="sourcePoint" />
            <mxPoint x="53.968253968254" y="90.76924999999996" as="targetPoint" />
          </mxGeometry>
        </mxCell>
        <mxCell id="H06JCzwJP9NlG7eEe4fO-38" style="rounded=0;orthogonalLoop=1;jettySize=auto;html=1;fontFamily=Manrope;fontSize=12;fontColor=#FFFFFF;endArrow=oval;endFill=1;startArrow=oval;startFill=1;entryX=0.75;entryY=0;entryDx=0;entryDy=0;exitX=0.5;exitY=1;exitDx=0;exitDy=0;strokeColor=#98A2AE;" parent="H06JCzwJP9NlG7eEe4fO-123" source="H06JCzwJP9NlG7eEe4fO-31" target="H06JCzwJP9NlG7eEe4fO-12" edge="1">
          <mxGeometry relative="1" as="geometry">
            <mxPoint x="86.66666666666663" y="62.2055" as="sourcePoint" />
            <mxPoint x="145.32063492063503" y="90.76924999999996" as="targetPoint" />
          </mxGeometry>
        </mxCell>
        <mxCell id="H06JCzwJP9NlG7eEe4fO-39" value="" style="group" parent="H06JCzwJP9NlG7eEe4fO-123" vertex="1" connectable="0">
          <mxGeometry x="241.2698412698413" y="90.13449999999996" width="31.746031746031747" height="31.7375" as="geometry" />
        </mxCell>
        <mxCell id="H06JCzwJP9NlG7eEe4fO-40" value="" style="group" parent="H06JCzwJP9NlG7eEe4fO-39" vertex="1" connectable="0">
          <mxGeometry width="31.746031746031747" height="31.7375" as="geometry" />
        </mxCell>
        <mxCell id="H06JCzwJP9NlG7eEe4fO-41" value="" style="whiteSpace=wrap;html=1;aspect=fixed;fillColor=#001135;strokeColor=none;connectable=1;allowArrows=1;fontFamily=Manrope;fontSource=https%3A%2F%2Ffonts.googleapis.com%2Fcss%3Ffamily%3DManrope;" parent="H06JCzwJP9NlG7eEe4fO-40" vertex="1">
          <mxGeometry width="31.736408566721575" height="31.736408566721575" as="geometry" />
        </mxCell>
        <mxCell id="H06JCzwJP9NlG7eEe4fO-42" value="" style="endArrow=open;html=1;edgeStyle=orthogonalEdgeStyle;rounded=0;endFill=0;startSize=6;endSize=2;strokeColor=#FFFFFF;fontFamily=Manrope;fontSource=https%3A%2F%2Ffonts.googleapis.com%2Fcss%3Ffamily%3DManrope;" parent="H06JCzwJP9NlG7eEe4fO-40" edge="1">
          <mxGeometry width="52.9100529100529" height="52.895833333333336" as="geometry">
            <mxPoint x="3.1746031746031758" y="12.694999999999995" as="sourcePoint" />
            <mxPoint x="11.640211640211643" y="3.1737499999999987" as="targetPoint" />
            <Array as="points">
              <mxPoint x="11.640211640211643" y="12.694999999999995" />
            </Array>
          </mxGeometry>
        </mxCell>
        <mxCell id="H06JCzwJP9NlG7eEe4fO-43" value="" style="endArrow=open;html=1;edgeStyle=orthogonalEdgeStyle;rounded=0;endFill=0;startSize=6;endSize=2;strokeColor=#FFFFFF;fontFamily=Manrope;fontSource=https%3A%2F%2Ffonts.googleapis.com%2Fcss%3Ffamily%3DManrope;" parent="H06JCzwJP9NlG7eEe4fO-40" edge="1">
          <mxGeometry width="52.9100529100529" height="52.895833333333336" as="geometry">
            <mxPoint x="11.640211640211643" y="28.56375" as="sourcePoint" />
            <mxPoint x="3.1746031746031758" y="20.100416666666668" as="targetPoint" />
            <Array as="points">
              <mxPoint x="11.640211640211643" y="20.100416666666668" />
            </Array>
          </mxGeometry>
        </mxCell>
        <mxCell id="H06JCzwJP9NlG7eEe4fO-44" value="" style="endArrow=open;html=1;edgeStyle=orthogonalEdgeStyle;rounded=0;endFill=0;startSize=6;endSize=2;strokeColor=#FFFFFF;fontFamily=Manrope;fontSource=https%3A%2F%2Ffonts.googleapis.com%2Fcss%3Ffamily%3DManrope;" parent="H06JCzwJP9NlG7eEe4fO-40" edge="1">
          <mxGeometry width="52.9100529100529" height="52.895833333333336" as="geometry">
            <mxPoint x="19.04761904761905" y="3.1737499999999987" as="sourcePoint" />
            <mxPoint x="28.571428571428566" y="12.694999999999995" as="targetPoint" />
            <Array as="points">
              <mxPoint x="19.04761904761905" y="12.694999999999995" />
            </Array>
          </mxGeometry>
        </mxCell>
        <mxCell id="H06JCzwJP9NlG7eEe4fO-45" value="" style="endArrow=open;html=1;edgeStyle=orthogonalEdgeStyle;rounded=0;endFill=0;startSize=6;endSize=2;strokeColor=#FFFFFF;fontFamily=Manrope;fontSource=https%3A%2F%2Ffonts.googleapis.com%2Fcss%3Ffamily%3DManrope;" parent="H06JCzwJP9NlG7eEe4fO-40" edge="1">
          <mxGeometry width="52.9100529100529" height="52.895833333333336" as="geometry">
            <mxPoint x="28.571428571428566" y="20.100416666666668" as="sourcePoint" />
            <mxPoint x="19.04761904761905" y="28.56375" as="targetPoint" />
            <Array as="points">
              <mxPoint x="19.04761904761905" y="20.100416666666668" />
            </Array>
          </mxGeometry>
        </mxCell>
        <mxCell id="H06JCzwJP9NlG7eEe4fO-46" value="&lt;font color=&quot;#001135&quot; style=&quot;font-size: 9px&quot;&gt;leaf3&lt;/font&gt;" style="text;html=1;align=center;verticalAlign=middle;resizable=0;points=[];autosize=1;fontSize=14;fontFamily=Manrope;fontColor=#FFFFFF;fontStyle=0" parent="H06JCzwJP9NlG7eEe4fO-123" vertex="1">
          <mxGeometry x="271.10825396825385" y="101.88323249999999" width="40" height="20" as="geometry" />
        </mxCell>
        <mxCell id="H06JCzwJP9NlG7eEe4fO-47" value="" style="group" parent="H06JCzwJP9NlG7eEe4fO-123" vertex="1" connectable="0">
          <mxGeometry x="311.1111111111111" y="90.13449999999996" width="31.746031746031747" height="31.7375" as="geometry" />
        </mxCell>
        <mxCell id="H06JCzwJP9NlG7eEe4fO-48" value="" style="group" parent="H06JCzwJP9NlG7eEe4fO-47" vertex="1" connectable="0">
          <mxGeometry width="31.746031746031747" height="31.7375" as="geometry" />
        </mxCell>
        <mxCell id="H06JCzwJP9NlG7eEe4fO-49" value="" style="whiteSpace=wrap;html=1;aspect=fixed;fillColor=#001135;strokeColor=none;connectable=1;allowArrows=1;fontFamily=Manrope;fontSource=https%3A%2F%2Ffonts.googleapis.com%2Fcss%3Ffamily%3DManrope;" parent="H06JCzwJP9NlG7eEe4fO-48" vertex="1">
          <mxGeometry width="31.736408566721575" height="31.736408566721575" as="geometry" />
        </mxCell>
        <mxCell id="H06JCzwJP9NlG7eEe4fO-50" value="" style="endArrow=open;html=1;edgeStyle=orthogonalEdgeStyle;rounded=0;endFill=0;startSize=6;endSize=2;strokeColor=#FFFFFF;fontFamily=Manrope;fontSource=https%3A%2F%2Ffonts.googleapis.com%2Fcss%3Ffamily%3DManrope;" parent="H06JCzwJP9NlG7eEe4fO-48" edge="1">
          <mxGeometry width="52.9100529100529" height="52.895833333333336" as="geometry">
            <mxPoint x="3.1746031746031758" y="12.694999999999995" as="sourcePoint" />
            <mxPoint x="11.640211640211643" y="3.1737499999999987" as="targetPoint" />
            <Array as="points">
              <mxPoint x="11.640211640211643" y="12.694999999999995" />
            </Array>
          </mxGeometry>
        </mxCell>
        <mxCell id="H06JCzwJP9NlG7eEe4fO-51" value="" style="endArrow=open;html=1;edgeStyle=orthogonalEdgeStyle;rounded=0;endFill=0;startSize=6;endSize=2;strokeColor=#FFFFFF;fontFamily=Manrope;fontSource=https%3A%2F%2Ffonts.googleapis.com%2Fcss%3Ffamily%3DManrope;" parent="H06JCzwJP9NlG7eEe4fO-48" edge="1">
          <mxGeometry width="52.9100529100529" height="52.895833333333336" as="geometry">
            <mxPoint x="11.640211640211643" y="28.56375" as="sourcePoint" />
            <mxPoint x="3.1746031746031758" y="20.100416666666668" as="targetPoint" />
            <Array as="points">
              <mxPoint x="11.640211640211643" y="20.100416666666668" />
            </Array>
          </mxGeometry>
        </mxCell>
        <mxCell id="H06JCzwJP9NlG7eEe4fO-52" value="" style="endArrow=open;html=1;edgeStyle=orthogonalEdgeStyle;rounded=0;endFill=0;startSize=6;endSize=2;strokeColor=#FFFFFF;fontFamily=Manrope;fontSource=https%3A%2F%2Ffonts.googleapis.com%2Fcss%3Ffamily%3DManrope;" parent="H06JCzwJP9NlG7eEe4fO-48" edge="1">
          <mxGeometry width="52.9100529100529" height="52.895833333333336" as="geometry">
            <mxPoint x="19.04761904761905" y="3.1737499999999987" as="sourcePoint" />
            <mxPoint x="28.571428571428566" y="12.694999999999995" as="targetPoint" />
            <Array as="points">
              <mxPoint x="19.04761904761905" y="12.694999999999995" />
            </Array>
          </mxGeometry>
        </mxCell>
        <mxCell id="H06JCzwJP9NlG7eEe4fO-53" value="" style="endArrow=open;html=1;edgeStyle=orthogonalEdgeStyle;rounded=0;endFill=0;startSize=6;endSize=2;strokeColor=#FFFFFF;fontFamily=Manrope;fontSource=https%3A%2F%2Ffonts.googleapis.com%2Fcss%3Ffamily%3DManrope;" parent="H06JCzwJP9NlG7eEe4fO-48" edge="1">
          <mxGeometry width="52.9100529100529" height="52.895833333333336" as="geometry">
            <mxPoint x="28.571428571428566" y="20.100416666666668" as="sourcePoint" />
            <mxPoint x="19.04761904761905" y="28.56375" as="targetPoint" />
            <Array as="points">
              <mxPoint x="19.04761904761905" y="20.100416666666668" />
            </Array>
          </mxGeometry>
        </mxCell>
        <mxCell id="H06JCzwJP9NlG7eEe4fO-54" value="&lt;font color=&quot;#001135&quot; style=&quot;font-size: 9px&quot;&gt;leaf4&lt;/font&gt;" style="text;html=1;align=center;verticalAlign=middle;resizable=0;points=[];autosize=1;fontSize=14;fontFamily=Manrope;fontColor=#FFFFFF;fontStyle=0" parent="H06JCzwJP9NlG7eEe4fO-123" vertex="1">
          <mxGeometry x="342.85634920634874" y="101.87848249999996" width="40" height="20" as="geometry" />
        </mxCell>
        <mxCell id="H06JCzwJP9NlG7eEe4fO-65" style="rounded=0;orthogonalLoop=1;jettySize=auto;html=1;fontFamily=Manrope;fontSize=12;fontColor=#FFFFFF;endArrow=oval;endFill=1;startArrow=oval;startFill=1;entryX=0.25;entryY=0;entryDx=0;entryDy=0;strokeColor=#98A2AE;exitX=0.5;exitY=1;exitDx=0;exitDy=0;" parent="H06JCzwJP9NlG7eEe4fO-123" source="H06JCzwJP9NlG7eEe4fO-23" target="H06JCzwJP9NlG7eEe4fO-49" edge="1">
          <mxGeometry relative="1" as="geometry">
            <mxPoint x="200.63492063492072" y="31.7375" as="sourcePoint" />
            <mxPoint x="271.42857142857133" y="95.21249999999998" as="targetPoint" />
          </mxGeometry>
        </mxCell>
        <mxCell id="H06JCzwJP9NlG7eEe4fO-66" style="rounded=0;orthogonalLoop=1;jettySize=auto;html=1;fontFamily=Manrope;fontSize=12;fontColor=#FFFFFF;endArrow=oval;endFill=1;startArrow=oval;startFill=1;entryX=0.25;entryY=0;entryDx=0;entryDy=0;strokeColor=#98A2AE;endSize=6;startSize=6;exitX=0.5;exitY=1;exitDx=0;exitDy=0;" parent="H06JCzwJP9NlG7eEe4fO-123" source="H06JCzwJP9NlG7eEe4fO-23" target="H06JCzwJP9NlG7eEe4fO-41" edge="1">
          <mxGeometry relative="1" as="geometry">
            <mxPoint x="162.53968253968253" y="38.08500000000001" as="sourcePoint" />
            <mxPoint x="257.0698412698411" y="81.248" as="targetPoint" />
          </mxGeometry>
        </mxCell>
        <mxCell id="H06JCzwJP9NlG7eEe4fO-74" style="rounded=0;orthogonalLoop=1;jettySize=auto;html=1;fontFamily=Manrope;fontSize=12;fontColor=#FFFFFF;endArrow=oval;endFill=1;startArrow=oval;startFill=1;entryX=0.75;entryY=0;entryDx=0;entryDy=0;strokeColor=#98A2AE;endSize=6;startSize=6;exitX=0.5;exitY=1;exitDx=0;exitDy=0;" parent="H06JCzwJP9NlG7eEe4fO-123" source="H06JCzwJP9NlG7eEe4fO-31" target="H06JCzwJP9NlG7eEe4fO-41" edge="1">
          <mxGeometry relative="1" as="geometry">
            <mxPoint x="337.4603174603174" y="61.57075000000001" as="sourcePoint" />
            <mxPoint x="257.7777777777777" y="89.49975000000002" as="targetPoint" />
          </mxGeometry>
        </mxCell>
        <mxCell id="H06JCzwJP9NlG7eEe4fO-75" style="rounded=0;orthogonalLoop=1;jettySize=auto;html=1;fontFamily=Manrope;fontSize=12;fontColor=#FFFFFF;endArrow=oval;endFill=1;startArrow=oval;startFill=1;entryX=0.75;entryY=0;entryDx=0;entryDy=0;exitX=0.5;exitY=1;exitDx=0;exitDy=0;strokeColor=#98A2AE;" parent="H06JCzwJP9NlG7eEe4fO-123" source="H06JCzwJP9NlG7eEe4fO-31" target="H06JCzwJP9NlG7eEe4fO-49" edge="1">
          <mxGeometry relative="1" as="geometry">
            <mxPoint x="353.3333333333334" y="61.57075000000001" as="sourcePoint" />
            <mxPoint x="349.1301587301584" y="89.49975000000002" as="targetPoint" />
          </mxGeometry>
        </mxCell>
        <mxCell id="H06JCzwJP9NlG7eEe4fO-115" value="&lt;font style=&quot;font-size: 9px&quot;&gt;Docker Daemon&lt;/font&gt;" style="rounded=1;whiteSpace=wrap;html=1;fontFamily=Manrope;fontSource=https%3A%2F%2Ffonts.googleapis.com%2Fcss%3Ffamily%3DManrope;labelBackgroundColor=none;fillColor=#dae8fc;strokeColor=#6c8ebf;" parent="H06JCzwJP9NlG7eEe4fO-123" vertex="1">
          <mxGeometry width="76.19047619047619" height="25.38999999999999" as="geometry" />
        </mxCell>
        <mxCell id="H06JCzwJP9NlG7eEe4fO-124" value="" style="endArrow=classic;startArrow=classic;html=1;fontFamily=Manrope;fontSource=https%3A%2F%2Ffonts.googleapis.com%2Fcss%3Ffamily%3DManrope;entryX=0.5;entryY=1;entryDx=0;entryDy=0;exitX=0.5;exitY=0;exitDx=0;exitDy=0;" parent="1" source="H06JCzwJP9NlG7eEe4fO-114" target="H06JCzwJP9NlG7eEe4fO-111" edge="1">
          <mxGeometry width="50" height="50" relative="1" as="geometry">
            <mxPoint x="340" y="260" as="sourcePoint" />
            <mxPoint x="390" y="210" as="targetPoint" />
          </mxGeometry>
        </mxCell>
        <mxCell id="H06JCzwJP9NlG7eEe4fO-125" value="gNMI" style="text;html=1;strokeColor=none;fillColor=none;align=center;verticalAlign=middle;whiteSpace=wrap;rounded=0;labelBackgroundColor=none;fontFamily=Manrope;fontSource=https%3A%2F%2Ffonts.googleapis.com%2Fcss%3Ffamily%3DManrope;" parent="1" vertex="1">
          <mxGeometry x="458" y="170" width="40" height="20" as="geometry" />
        </mxCell>
      </root>
    </mxGraphModel>
  </diagram>
  <diagram id="BNCo7AX0QVGDZsZncH_h" name="single_influxdb">
    <mxGraphModel dx="679" dy="341" grid="1" gridSize="10" guides="1" tooltips="1" connect="1" arrows="1" fold="1" page="1" pageScale="1" pageWidth="900" pageHeight="400" math="0" shadow="0">
      <root>
        <mxCell id="gBTGp2xAHOtJdxLIhFSI-0" />
        <mxCell id="gBTGp2xAHOtJdxLIhFSI-1" parent="gBTGp2xAHOtJdxLIhFSI-0" />
        <mxCell id="70vNNEtvRkJ1yF6m3qAn-0" style="edgeStyle=orthogonalEdgeStyle;rounded=0;orthogonalLoop=1;jettySize=auto;html=1;exitX=0;exitY=0.5;exitDx=0;exitDy=0;entryX=0.5;entryY=0;entryDx=0;entryDy=0;" edge="1" parent="gBTGp2xAHOtJdxLIhFSI-1" source="70vNNEtvRkJ1yF6m3qAn-3" target="70vNNEtvRkJ1yF6m3qAn-64">
          <mxGeometry relative="1" as="geometry" />
        </mxCell>
        <mxCell id="70vNNEtvRkJ1yF6m3qAn-2" value="" style="group" vertex="1" connectable="0" parent="gBTGp2xAHOtJdxLIhFSI-1">
          <mxGeometry x="408" y="90" width="90" height="40" as="geometry" />
        </mxCell>
        <mxCell id="70vNNEtvRkJ1yF6m3qAn-3" value="" style="rounded=1;whiteSpace=wrap;html=1;" vertex="1" parent="70vNNEtvRkJ1yF6m3qAn-2">
          <mxGeometry width="90" height="40" as="geometry" />
        </mxCell>
        <mxCell id="70vNNEtvRkJ1yF6m3qAn-4" value="" style="shape=image;verticalLabelPosition=bottom;labelBackgroundColor=#ffffff;verticalAlign=top;aspect=fixed;imageAspect=0;image=data:image/png,iVBORw0KGgoAAAANSUhEUgAAAtIAAACrCAYAAABL2HuKAAAACXBIWXMAAC4jAAAuIwF4pT92AAAAGXRFWHRTb2Z0d2FyZQB3d3cuaW5rc2NhcGUub3Jnm+48GgAAIABJREFUeJzsnXl4m9WV/7/nSt6y2ZJtQsK+lq1sCZAUCJIDoaFQ2tIAHZYWSklZYscpHWba30zVmU5bBhpbSghNNzqlpZC0dKEFCsRWwpqwQ9mXpiyBEEtynM229N7z+0N24iReZOt9z5Wc+3mePE9iy/d75Eh6z3vvOd9DsFgsFsPsO31hxdZyXzuAUilNBm5NtTZcL6UnSTAUvQqEn8qo8aeTrfP/JqOVpSrUdLwi9ZykZi/E6shEfN5rJrSLgkhEBVcGHgQw04D648nWhlOlRQN10X8jxg+k9IjwXKKl4UQpPcvgKNMBWCwWy5Yx/qkQTKIBgIDLg7NjEyQ1xSBME1JiJ126RkhrO6R806U1e9GkP2tKuxgIrgxEYCaJBoieMKLLYu+3Xj0zz9PSLzaRtlgs5tHCF6Is47mL/8WArgAk8/skvLbx0WtTIlp9kU5c+kDAeaa0C52aUFMIwLeMBaDxpAlZAk4RFjTyPC39YxNpi8ViHII2khgR06gr7cjusvORImKGdsYIbCyRBjB9fOiWGoP6BcnEWbftpUndCcBnMAzxBLPyzKaDAewtqakyNpEuJGwibbFYCgCS3dHZDh8dCEVPM6PtEV2YBqnPdmLxC/r4mYurARwmrdsHX6kqmW1Qv/CIRFS6u/vXACYZjGJdMl7/vrSocpT0TV1iw6r6t4Q1LYNgE2mLxWKUqrrFBwDYx5S+IlxjStsTBMseWMvXpPq1ngaApHX7wky2vKMP1auC3wLhLLNR0GNGZJlE6/WJ8ARALKlpGRybSFssFqOQdow1jgEAA1/ca2bzRJMxuAqLlclsStVOelVIazsk9/wGgWdjdqzMdBSFQGBm7HRm/o7pOAD50xEAIBJ+PRqqA7cMjE2kLRaLUUiZaxzrodTR+KrhGFyCCUQnC4mtxvILHSGtHZDsDuAAjAt26xmmgzDNhLMXBknzrwH4TccCpcVPR/advrACoGNFRZWyjh0Fhk2kLRaLWQw6MOwIgeZizjKTTVKuUBOOHg6gWkhO/oIeiSgAJ4nr9gPrPb28g8nX7b8dwP6mIwHQPcGpEvcVN2DbqbmMnxbUs+SATaQtFos5ZsfKCDjedBgA9g8kPjrHdBD5wqzEdmvZgENCoKX6aAAF4f1NwPmmYzBJILzoBgIXiqf2c2vjV3SKq8rbdv49eX99h7CmZQhsIm2xWIwR7OIpDBRErSlpXfRNhyxXr8kZTssPYvHpQijr6GX/wIxFnzQdhAmq62InE/h7puPYDrMZG0Zm4dejmedpGRybSFssFnNo6QvRIBB9unZG1KStmgsIDWIB3tgUv6FNSKsvxsuA+qLUnjflsCrUVMXMd0F4EukQmGnAI9lBLMTKNhoWIDaRtlgs5lBiiV8ukOPjr5kOYqRMnHXzWABHC8mZuqAXzo0XAKY9bcohk4L6BYCDTEfSF/bL2zD22HZOltQkkm+otAyNTaQtFos5CqDRcGfoygNDt5ebjmIkZDLlp0DIPYENjCiuCjVVAThcWncITqoN3So61c4kwVCsHoTPm45jFz5MPdzwrrSoAdvO9rbWhjeENS05YBNpi8VihJqzFk0GsK/pOHahehNtvNB0ECOCHblBLCy/A6ig5CY25o5yyCn6JtVcqAlHpxDhJtNx7I6h+mhp205mO4ilQCm0DyWLxbKHoB3nVNMx9AeDirPpkMXKZLa0c/JlIa0dUAHV0/dhTyjvqA3dOk4DvymUxuCdIPmbOgAAC5cZmXqeliGxibTFYjGDXOI3XKbVhKNTTAcxXJggNIiFVyMeycho9aUwXy/EPGvyeUvHmI7DSzRllgL4hOk4+oNNTPrL2nYeJ6qpzExutAyNTaQtFosZuCAm1PWLJnzddAzDobIudggAkTHnDBPOAUwokEEs/TBm2+bOkOkgvCJQF/06A/9iOo4BSFeML39WWtSAbadmqhC3m7Tkhk2kLRaLPHMipSA+wXQYA8K4ZMLZC4Omw8gVpQX9lQ00GgbDTUcBCEjr5ori0VneEQhFjyHGQtNxDAjj+XX3zt0qritv2/lK6uG5G4U1LTliE2mLxSJOdVvVCQAK2R2jwp/2X246iJwhsbIHTqcNHKWzKsiyjl6Y8NmeXfNRw8RZN48lhWUAKkzHMhAm3GMAyNt2mnqelpywibTFYhGHSW6U9UhhxnXFkhyR0KASBr29+ZH6DRJaO0GFWwbUw+SauubCPWEZAd3psiVgHGk6jkEx12go7NhhGw0LGZtIWywWeQrOP3p3CHxodThWZzqOodh3+sIKAMfKqJkaUVyYjYZ90VCjZsphsC56BYEL/kRGZ0i+zGjGj/aDtG2nsjvShYxNpC0WiwEK08psVxgoeCu8zRXqJAAlMmryzgHB2bEJABf2zigAZhoVddI1MxcfDkbUdBxDwx9vXDXvH+Kyfp/0TV178vTka8KalmFgE2mLxSJKzelNkwDsbzqOHDk/GIoV2tCYnSBBG0F2lPyOdBcKcRDLbhD4hEJ/rQzFgaHby7V2lgEYbzqWoWBSjxsSFk6kaTUiES2raRkOBf/hZLFYRhfs9xXFbnQPfii+ynQQg0FyZTJb21XyJSGtHRRBGVAPxMBnTAeRDx3UsRjS/sgjxYR/NCBv20nWP7rQsYm0xWIRhbk4yjq2w7gaU5YKlU6MAMIpMjJ4yswgluJ5vRBx0ZZ3BMPRCwF81XQcucJKy5+OzI6Vidt2sqm+BEuu2ETaYrHIQkWzw9jLpOD4rvNNB9EfVXWLDwAwWUSMYeCCzgRITWzMHwLOrA3dOs50HMOlNrTwUAA/NR3HMMiU+dPPSIsGt0HatpOddKkdxFLg2ETaYrHIkd3ZPdF0GMOGdEE2HZJ2RvUglurQ4k8AKJrBOAyUacrMNB3HsJgdK8uQ/24AE0yHkisMenH9g9/cIi6shDcBCK9tfPTalKimZdjYRNpisYhRXbXteABjTMcxfKguGF54tOkodoUEL+yK/aultHphJTix0SUYxTXlsLqTFxK4yG5uDZU7iPtHmzgFsgwXm0hbLBY5xDve3URdbTqC3ZC7sL+zIX7dR0JaOyieRsM+8HmIRIri2hoMN1/AwLWm4xg2bKoBT7he3zYaFgVF8Wa3WCyjg6JrNNwJ+vLEWTePNR3FdmbHygg4XkKKYMghgVCErxfaq3pl1UmmoxiKwJnR/QH6iek4RoJW8jaMNWctmgxh207WdqJhMWATaYvFIkgx70ijMp0uvcR0EL0Eu3gKA2UiYgbqo2tOvWk8GEdJ67qBpgIfzjJlaQll6C4UUf15H9o2tsx7R1pUZwT7EbJsStVOelVY0zICbCJtsVhEmDjrtr0AHGQ6jjwpnGNwwbIH0vI7gFxafjIAn7SuGxBQ0OPCgxM6bwIV5+kQMZ7IWnYLI1+WthrLL3SENS0jwG86AIul2Jk46+axnVvHlpK/q5L9u9+cso/baUs5b3z0mnYjF4ACIdPd+SlQ0d+7Hxec2TQ9uaKxAI5caRog8nLa1labeFFCaCeIpoOL9O3C+GTljEUHGRlhPQSBcPQcAPNNxzFiyFADnrxtZwF8xhQe26+3pXoCq/T2G+1yVb65W6uu1MNzN0rHZBNpi2UIakO37s2+zJGa+VBiOpQZh4EwCcDeAPZKpzHGV5IGoID+9g8cACVpBMMxANF2ACkASSJ8CI33mbCOCGsBet3Rzhvt8cZ2sScniaJpMnmft7BW16AwLnIyF3bG01ge6RbR6ivLXMxlQPD7nc8AWGw6jr5kR5jz/wEg07GMFFIG6vWnLC0BOkWdTdhUX4JBKk9bEvD7M1OY+GAm7A/G/gQcgGxt+kQAFek04CtJZ/cQnB0bM2mnGwSgOhztYmADwB8B6h8Av8ZErxLhheSKea96sZllE2mLpQ+Vpy0JqJLMp4j4JNI4kQlTHGQmQwMAZfPA/C5BVT1/DmLesVZ2442hSCEYjq4H0zsgvZZBa8H0TyK9lhx+l5zu99seu3FTXhGYoqgdO3aggAsnzrrthvUPXvOxqRhqzlo0WWf0fiJiRpwDmICYyMRGr2Cm81BIiXQo4gfpuwCqMR1KHjjk+J+SFq2u2nY8a5K07eQMp0f3IJY5kdKqRNU0BToZTFMZmEJIH9qb5Y403e3pG9kXoH0BnppdiwEGqsOxDZpijynoFUrrBzbEF7zlxlOxibRlj6Yq1FRFyjebWJ8BqNOA9JEAFLhnppoZJoJ4IkDTCej5RCGwj8C+cgTD0S0A1jNIE1jkGIscfVliVePIG19CET8DU1wMyRgMlHV3p68AcJOpGHSaPyW1p0hQ4ol07YzYoQ5QzAkfAIQDZy6tNHHU3B/VCPw3A6eajiNPXtoQv26zuKr8JsAbm+I3tAlres74mYurSzhTx0znURvOQ3ZTCQCLfJwxUEvMn2PQ5xzyIRiOvgPgYRA/7NMl94/0tWUTacseR3DGj/YjX8nnGfxZADPAXJLdGi6auoOxAA4muXg7E2N9eXXJ16jKYzWj6EYnDwQRX4M5y24x1gykIFcmQxnxQSzax9OLuPqglxLKdJ0F4HemAwmGop9mwr+ajiNfiM2UO2RtO0Vfj6OmrKMq1FRFRP9CrC6Fdk4BSBXQO/tgAFeD6WqHMluC4egyMP0kGa8f1u/fJtKWPYPZsbJgl/4sgS5nxqcZbF/7ufM07q/vymcBh2ma4IdnGkCJxxoHBNo+PDsF3OexTv8wS5U9vJtoWfCBkFYfRkcZEBPOg+FEeq+ZzRMzGrdjNLh0kaGJhsKvR+Zi949mqqqLnk5MVxHwRQAVRdBnPxbAFSC+IhiOvkiMn2h/+a9zOVEq/jeWxTIIVXWLDwiGmpuCnfwhmJYx41zYG8hhkv/FSxFJWW1tA7BIQkgRrpHQ2Y0pS0sgVSZDeFxEZxcYxTiIZXcIfC5CEXOfN5GIymj6DbKN0UUPKb/4Tq0J20424NvuClOWllSHYl8JhmOvKqaVBFwGoMJ0WCPgWCYsJqfzH4Fw9F/3nb5w0OdgE2nLqCQwY9EnA+HorxQ7b4JoPoCA6ZiKFQI9lu8aWq7G8Cn2IQog47UQM86pnLFI3Be7umrb8ZC6OGn5C3rP9MhjpHU9IhhAwNjuenBl1XcAzDSl7zKJthXXvSktmunu/JSw5JZ2Tr4srJkfcyKlwbrmrwUndL7OxLcD+ITpkFwiQMBNW8t9bwTDsSsxZ1m/vvY2kbaMKirPbDo4GI7+jnz6hZ67Ya+P+Ec9PpWfa8P40C01BD7ErXgGg4AnUw83vAvGvQJyyq/01QI6O6OV2G4tGXDs6EqXTcUoOjVS2fIOcarrFtUB9G2PZRIer9+X1UZ8+JV0mRGvRjzi+UaAK0QiKhiOXRlsC7wJpp+g+AduDcS+AP880PbRwz2j4nfCJtKWUcHEWTePDdZFIz5HvQzgAoyCTqWCgPDmxyvmr89nCb8qnQ6p/4+eI1HlkynvYMJVB4ZuL5fQ2q4JLXJhJ6ArUa6el9Dqiw8svQPoKWxgyuHEWbftxazvgLeTIdME/MjD9XeCyEzdMLNYWVpWz4BLzkioCUenBFcGHgf458j6PI96CBzijH4+ULdodt+v20TaUvQEQ9FPp9Olb4DxHQCiSc1ox5WmF8lR1j61GgDaVjS0ApCYxlezEZsuENDpg8wOGQPP5NtkOhI0INVImUb/I5Tc5oja0MJDBXSyRCIqne6+A8BuO2duQqAbNEhu59RAmVFPfbusbSfrgm40rDxtSSAYbo5qYDXk3qsFQ9ZCT/+1uq75h4hEFDCKjs/wLNcijfkAzgJQbTocywAwukH4b5xCd+a71IGh28s3qY0RZnwT9qbQEwicd300mKcL7UevbXto3rodsrSEiH/stSiRvgbAb7zWAbI7jel0t8zxqaEdQJKa2Ag82/N5dLrXQg6p8wA0ea0DANXxwL8zYZbHMssSrfWxYCh6j9B7W3MFxAeU9Nh2jhWU5LSjxO0mcyUQjp5D6L4doL1Mx2IYYqYbq1cFjnZCTZeNjkR6De+HNB5BdpSkpZDJfugG812mOrToiA7qWA6m0dKUVJCwo/JLpuYs81Hbhye5FM7g7NLpXjG+7I7OzZ3fhwuvtyGET62pazqxraXxWW91ehqfSOie0cAOYGVd7BAwTxQRY34ChHcB8jyR7ply6HkiHQzFpjHxdzyWeQPl9DUAAAntSBJeTt5f3yGi1QfWSmoTIKsHenvzI/Ub5BRzZE6kNNgW+CGA+QDZsskemHGuInV38e/iPcrjexqLbBJdHDyCf+K2fBYIhBedyqQfwejp7C9UOlJ1iby6x6vaPjoGEBrEskvit+7euVsB/FJEmkmo6VBJHqWKJ9JKy5UBAXhSM/8BApOYiDBj/MzFnp6UVp62JADiu+Btg/UWwPlC8v76jqq6xQfA4/KR7TDMlDso0dcj3LAadZvKGYsOCrYFVgJohO092pX1Clxf3In0MvahBL8BcJzpUCw50Y4MLsOFNOK6xOpQ7CsE3YLiHx9cDDyOSETnswARG3WYcIiWAMjrOeSofkngzKWV3suI+SuvS8br3xfS2oHg64X99ER7vHEtgBcE5Hx+1h6WWzCpkvTt8HhDicDXJlsXvAwApB25JjxTvsos7Wcu75IzGMFw89k+n34BcuVWxUQbFNW1tc5/vbgT6QPQDJixFrKMAMY1OJX+OdIfD4RiN/Z4VJa6GJVlQPKvkSWhRsOBHCY2ttS/DeB+gRDGKd15uacKc5b5WKzxKX/v8BGpyl2w16Uebni3R/UPEoLE2rNrVbAu9g0CzvdqfQBg4NZE6/xf9f6bBHdrSedZYjYCxoduqeHsCGkx8i6lc5HqUPTLAN0LYLzpWAqQDsVqdnJF/StAMTdoreZGANebDsOSI4yfYhrdNdIfr66LziPiH7oZkmVwXGk0FJpQN7jDBMtY4QHXAOzZ0WfV+o+OhVSZjIGdsZ7pYccKyW1PWNiRSaQBOqdnKqWrVM9sPgmM/3F73V1Ykyqnb+z0FTk3nvZEKPGGkNZ2RG07s2xtV8mXBPUGJLtphdth5zD0x1ZNfF5bfN7TvV8ozkR6NX8GwM2mw7DkzFvYhgUj/eFgOHo1M6JuBuQy3QC2mg7CZRzq7syrS37C2QuDAA5zKZ6hGDDxS7Y2PAjgNc8jYBxZE2o+w6vlyafljpmVvAXX5gp1EqQu3H1KBVKr5r0EQCJRq6yp6jzNzQWrQk1VrOlueHtKl3QcdfFON6qzY2UEHO+hZl+ezLfEbEQI2nYCAAFPmR/EwhQMN/+4Z9PK1kPvAgFdIPp8e8v8VX2/XnyJ9BN8IoC74a3RvMU9uqBwIcK0eSQ/HAw3XwDgNph/U28CsAKMW5jpUnbUscqv9ikfVz422dpQlmxtGJusSZWVlJROVOAjAFwExi0ErASwzXDsI+Gltsdu3JTPAr5u3zSIDWIZbAeVmAhLJMLQpK7xbnWxCWvdE5yq54S0tkNyY+TBvMsROuPPErpau1uKqIh+Dm+nyWkmdenGVfP+0feLwS6ewkCZh7o7YFP10XL1+lk9Qw2VfQjWLboZoLmm4yhQHCa+LNlS/+Cu3ygu+7vVXA3gL4Cor6MlHwiNOIlGdFEOzowdBc23w9wN3ysE/IUUHmhrL38Uz8xND/ro5ZHu9cDHyP55HcAyIOt3vZE66gi4EsDnIHETyHiIfXwDaUwC0WRo7A+ifQDeB1k7uJKeP72lApXY+ffckm8IxDxdzCkp4wx6saWuzl9yafn3AEzwOJIvVNct3CfRsuADtxcmwjTv/SUAAM+tjV/RKaLUF6LpYJEnmB7bmX421fcrCn8A4wYB7fOBkZ/O9aW6LjqPGV9wY60BIfx3qmXe7j0Gkru1yoCfuaRtZy+mGip7CISj3wfzN4Z+5B4JA3R1sqVheX/fLK5E2odaOHgXMjt8FZCbkrdrEjMaeAOMb+EU+v1Ifjg4OzYBnXwPzDQ6rIDim5Ir5j/kxmI9Scl9AO4LhKLHKMJiBjwrAQAAEM4iTQuSrQ1f8VRn0BjEdhjXJVd9473BHtD22I2bAuHoHQRc53Esfmb/VwH8l5uLjp+5uBrakZmOx2YsuIj5ZBEhxvPvP7Fgp2tIckbqyeDKwIcAJnmsfnD1jKYjE6saX81nkcDM5mNZ4ya3ghqAFcnqSf/d/7domoBrIACw0+1/SkKoL1UbPvgkSAn1I2RR7Dc2iKU6FP02A/9uSr/AYSa6LtVS/4uBHlBcifRUeg3WhmXkLGMfJnm+IwdUQGMqbcxrjU7+BYBPuBNQzqwmxfMSK+Z79sGdijf8HZFIXTBe9V0Q/T+vdHr4crAuujLZ0nC7xzq7E4korITUIJbHc3mY30HU8eFaeF5uwnMxZekPhjzBGAZ+JzMdJDYIQXxnrCrUdCCkPImpnxuFSEQj3PxniWNt7VPnARhxIl0bunWcozPLkN3s8Qh6rzuDL2H5hQNZlQpdh+mVjY9emxr6cS6rKiV1+tPLOxvi130kqthDdSj2FSb+ngntEbINQAZCm2wMujHVUj/o7IviSqQt+ZH1bxb/UBougXDsMwBfICjJYHw3WTvpe4NcONwjEtFJ4D+C4WgKwI881WI0V9ctfNCLUoPBCLRUHw2f9t5XGQB0bg4TG1Y1vBkMRR8G4SyPI5pcXdl5bgJwzQ2CIDRBDll/ZSmtXkj5pMo6wDzg8/sDAM8Tacpatv7vSH9eU+bH8HaTIc2gL21+ZF6/E/Zqzlo0WWf0fh7q98GMr7KUbed2PQM3rwBQHW4+BeAfm9AeBAfASyA8zcAzStNbRPq98k797k4nSXOW+SZ0vF9JDlX5tO9QYj2VmaaCMA1unSwxfy8VbxjS2MIm0pbCYk6klBLcJLUbQEAXgy9JxuePqAQlH5KtDQuDddHpYHzRQ5kJmn03Aqj3UGM3yO9M89AJbieYfDlfhFjRImL2OpEGa1wDFxNpEEk1Pn24w19ZDmI9TaovlaH7fb0kOypaghM6UwACHocwfXzolppN8RvahvuDwXD0agYu8SKoXoh4QbJl3oDWlzrNnxJr/TbVaChk27kdA/XRNac3TdKgeyDVNDoI2esw/sLMf8wg80BO743lFzodQBLZP+8A6GkCZKquW3SSZv4cAV/ASG86CdFk6/z/yOWho60u11LkBNoC88EylmkEdGnQBclW+SS6F631N5G1z/MMAr42cdZte3mpsRsslvilx3amn831wakZyb8i+6HrLYQza8LN7uwaRiIKECqTMTWiWO71sr5nmuHuPDM3TTLDe3yl5D9nuD8UCEWPAdDkQTx9oLsTLfMXD/oQybHZ5MgPYsmOcpey7QRgYODM7FiZ9qt7IFVONTD/BFFjN6f3TbY2fDEVn//rkdxg7gxxoqV+Taq14VvJ1oYjlEIdgN8jWw6SK79IttQ35vpgm0hbCoaaU28aT8C35RT56lRr/V/l9HanPd64lr2/eJd3Z7q97e7fFRK72D63a+PYoEQiGoRB691cgrRL9baBluqj4b3bSBaSL+s4MHR7OQjHiYjx4PX0zDLDWZhoWDZ4E2fdPJYUlgEY41FIAPAGynH1kI9iLfXe7kie0ZFXU+ZI8GstZ9uZZVtbbeJFQT0Eu/gmGO03o/fA+Fqyo/ywZEt9c/7J88C0rWhoTbY2fFGzPoyA2wgYYHDXdpYlayZdDVDO5+I2kbYUDFxSfjmkEgZwrO+4W5ModrEEYADI2/KRnagKNVWBpRpFh19DqbX+GYAtHgSzK1dMnHVz3ladkoNYWMsfMW+kzVPg7UCR7fAQR+g++B6AhCsU49OYHcv5SD2dLr0VjCM9jGgL4HwheX99x6CPmrK0BKATPYyjL0YGsZDcjUIWxtNYHvH0VLIvNTOjYTDmSentQpqA/y0p6ToyGW/4mZsN2UPRHm9cm2htuJaZDiXGvQM87K/JjvJLh9srZRNpS4HAxIRrRaQIb5aPqygYq5+MVquGflR+EHBazwhmz1FQ0yD02cKkhp34tccb2wG604t4dqEq3V1ysQvrSF3Y0xXjy3Muk3ELIsmJjYPvuG+IX7eZGA8LRDIu2JWbBWZ1KPYVAF/2MhgiXJNsXfDykLFUbTsenrqF9MVMo6GgbWePntzzDM6OTdAapmYzvK5Zn5xobbhx/YPflNjI6JdkvP79RLzhs0S4HMB2dzFmtI7pdOaMJLm3ibSlIKgOx+oAHCUixvzv6+6dWzAjvTeuun4thle/NWwYKOssIxnnB8EaSp2hEV6EMlFIGOESXZ//GkK/T8bzRt4Xcg4J6YoxZc8M9SBW3p8QAQDnMOWwdkb0MCaOeRoH0+JES8MdOT1YK7nTkWE0EbuGaD9CFsLwNwNGTCc3AThATK8HAn7jY//U9njj89LaA5FoabiDfTiWQXEAq33pzvOHVSbYB5tIWwoC7fGOSx/+nmxtuEdIK0eIkR1B7imalMyRLEt1vPPHu44uzpVk64KXCfD8JADA8dV1sREPGpEskxmq7MFDhBJpfiGXG4U0+f4Mj29sAYCIP4tBrG0ODN1e7viwDN765a5JVeQ+0ZEhVvbATklafEBJTz+CjG1nL5QReZ7BcPPZyE7XFYb/K9Faf9mG+HWb5bUHJ/Vww7upM5Izfew/s+2xG0d8DbaJtMU8kYgi8NkSUgT66XCaCATxfuw9s4D3KxOEdnSYVE6DWAb8efAit2IZXEdfM9KfVUSnQOpz2kCjYeDM6P4A9pHQYs5t52/TiusTDHrU63gA7B+YGf3kQN/soE0xAMd7qJ/UrC/C/fVDNV/1Qazs4fWOvy1ICmltR7IfoYd/inj8z1nmA+gWz3V2hplwTbJ1/ncK9JqbJRLR+Sb5NpG2GKdmZeAEgCTs2Zxu7paojR0WgTOXVkKg2YqIar3WCM5cdCS89+HNkmdjXLJm8h8B/NOlaAaG6aIeS63hI+cfnUeZzMghR9JKLXdrP+WmB/hgOk7/7h3BcPRCgL/mobQY/sJlAAAgAElEQVQG45IBrQD7ocdC8yDvQtoJMzaM0k4WJPM8g4l1VwI4RkKrl+xEwIZCG/biCTaRthiHiWYLCa3x0mZnpJDuPFpChz32qwYAOIIOE/mWIiy/0CHwT1wKZzAqSti5YkQ/yVI7gCMvk8kTuXp6X/+DWPqDGfdAoIaeafc66drQwkMB/NRbYfxXMt7wwHB+JNPd+SmvwukHQ42Gwom0gEvOxFk3jwVTxGudnWBuTrXWDzkRcLRgE2mLeZjPFJFR3CKhM1wYOFZIx/tGMiV29JspYd+QjWND0c2ZnwDodCGeQSHG13samYYBE8Ajrq8enlJ+ZTJ5IFdP/3BjzoN4kvH69wHO+/WVAyfVhm7de/u/ZsfKMuS/G97agK5I1k763rB/Su69DXaEB5RA2rYzCw3hIuMG6XTZNyA6eIUfS6L9m3J65rGJtMU4UokkQEPaO5mAmEISOgr0huciQhPqGPSiG80rPScUd7sQ0qAwcEhwZdWwRpNXz2g+AkVSJjMiZsfKCDhBQoox/ISFZMo7lIP0Z3r/EdiGWwjsYVMwvZfm9MXD9ckFIHg6gk2piRNfEdLajqRtJ5CdrJsowwteatScetN4gBd4qbELCbC6GPGI5826hYR/0O+u4TPAuAjAQeAhHmvZcyB0gXAHTqa8E5Ca05smaaFkQQFvS+gMi0hE0UquE+nEIPq7l8sHZ8cmoJO9HBqxHeWix6x2KKp87LlrDIOuAfC3nB/v802XcOgDAFZafAcw2O2cyFA5DyXJCx7Bzp/Df4CP/seDaHaiZ8rhzwN1sfOI+ToPpdIM+tKIytvmLPNx24dTPIipP9aMKNHPF4VpQm83AAADzwyv0XP46NKyqyDqQkL/mj3N2bMYODlezT8E48bt/5YcmGkpfBjHwYWdPKfUdyhpmU+vDJAQERoG1SsDYQY8bwIEsK1iW9rbZKlbnwKQkMOEezuo7avqnwuGYk+A2NPddALOrQo1HTiMBi+xMpkyf1qijGFntGCpwAheL4lVja8Gw9HXABzhQUjbIWBWdWjREcz6l/DwSkuMxmR83mMj+dmq9R8dCx/GuR1Tv3DuTaHu6kqVGfXgtUvOnGU+tH2Yv4997jyabJ13O1AvKFkY9H/Re5KvBvok0RbLrjDiLq1T5co6OVCqfcamKQ0EA5cJST0yUrP5nBEc1qAy7pYiMPFiN9cbAB8pdVXOjyYWSTQZ9KKZSWNKZkAQkCkr6Xp6JD9IjD+6HUw/VDA5KwEEPVMg3JWIN9w64h/3yzXhMSDuHy1p27kdj8upghs++jyAg73U6ANrh+oL2ubOQ3ZPpJ/i2SCM+A1n2WPIbRLWUGhPm2p2oltrodG2udHTZHSRkFzOJQUjhsWGNSQ2rKp/y80FUx3lywF47ueqGFdjdmzIcoaaU28aDxaa9AlDO4CAiAtEXjcKikRs8Dy2/3wDZTQ3rxXY29OavkoZZMTr9UVtO3fg7fMkbvR0/Z3gP7Svqn9OTq+w2DmRfoqPgcZvMVTttGXPhrAO72KFG0spsNhrzV/i1Ehp5YJD6X8HUC6k5nEizQQiEYcJIjzh+s7HM3PTIPzM1TX7gYHawDb+/JCPKy0/GYDP63iyYu7Vm+dKzVmLJgMSA4KAfG4UEi3zngLoPTejEWYL4HwheX99Rz6LkJwt3JtGLEoFbTuz0Hte1hJXhxYdAaEbVQDMCt8V0ipIdiTSj/JkaNwH6fGYluKD8WtcSK40gzCx2NhQ1mrAKWLSBGYs+iSyzWcSPJlsXeCpY0l1aPEnAIxs6Mhw8ehIVKX1Ugh4bRNh6P93yUEsSt5qTKdZzpM4rxsFYgb/2b1gZCHCNfm+98fPXFwNxqFuxTQYDPmhQABErf168PR5Mjlf8nL9XViRWjH/RUG9giObSD/NY1CCPwIQ2iGwFDUOfu3aWgp57ZQMDz5HTmtgakO3jiOfvgNAiYQeMwnU/8rU8wJwtdGwL22PNH4I8O+9WHsXZmRvpAaGWez32baxZV7O/squoQQHseR5oyA15dBtmGlxoqUh7xI8v5OZDim7AY/e20MiZNvZR9Dj50kXe7t+X3iPmF44GArMCg7uhHShvaU4ITyLT9FLrq2n9TrX1hqa8yvPbJJqvuifKUtLNDJ3AjhOSPGjVG1yudciTGL10ZrL6SnPVle8yLO1+8r49NcH/i4TAJFGPGIPymRyQa6ePu8bhQSnVgIouImoQ7AmVYEbXFlJchCLduRtGGfHJgAytp3b8dBusroudjKAw71afxc+SnZUFO2JjVsorMHNAM43HYilSNBodnO5ZE3HmwCkzNv9yvE1CWntzuxYWWBC5/L+xgJ7yBIsj3g/GhxiOzp/z7feczCSKxqfAMO7RL0HBi7PXsB3p3ZG7FAAMvX8BPlGwylLSwDycOjIDly5UYhHMgy6z6WQJEhq1he55VFMLHZ6sKUdGz31uu+Xbn0KhAexTHCqPGvMY63FyjoY+D2emZuW0itU/ADOQNb1f9ejmy0QqBfMkQ4A8gbt/ZMyHUAPGoyNYmqE9QB+h2nkrh3U8kg3wtG34LFXay8E/mww3NyYbJ0vmlAHZ/xoP3Ty7wCINOT18KGP/Z4/z5pTbxqvgaO91unB86NfAi1h8O0ey4zjTn0pgCW7fkP7eLrYSbqSP0qvruw6gRkyDjou3Sgodv7ApC53Yy2P0WBcMgyv8sGJRBRWypxWM2ONkYl4WokNPgIABp5bG7+i0zMBRZ+Rejo+1r+TUSps/DiFppoOwrKnww8CJJJIZ6FbquuimURLg8AxPlMwFPsqCDcDcp7ZAEDgf3NjjPZQiDpMCNRQJirw22An3+SxJRkIdB3At+2+Y0pS/soOOX7Pd993hTVPlxrw5daNQkUX/21rObYAGOvGep7B+K9kvOEBt5YLtFQfDZ+WsSg1Vh+tp4EEJ8556JITODO6Pxwc5tX6fSFgQ1vtPo9IaBU6YscZFsuAUP6jxoeJYkYsUBf7Q1Wo6UAvBPadvrAiGI5eHayLvQzCTyGcRAO4L9E6/1ciSnJHv6CM9v5ie399F4N+7rkOcFRg5qLTdvsqiU1Ye0niRms35BoNXbtReP+JBdvAeNCNtTxkRbJ20vfcXJB8crZwPs8b8PpDzrazD549T3LoTK/W3hUGtRgZ5V6A2ETaYpxkS/0TBLwtrUvMn1OkXg+Goz8LhmLTepq8Rkw2eW4+OxhqbtpW7vsngKVgyDaxZPlIZXTuE/TyRS4xak/UbXxdQkiRcysAz2v/SOudrPAmn7d0DDNEbBqJTe0Air1eXL1RIFXI7h30XprTF3uQ2IjdJCslP9FQ1LazB/Z7NxqcwDO9WntXmDgupVXo2MErlgKAGBT9LhgyO6g7UwrgqyD+ajAc+wiIrSTC35n1q4B+zcdlCVW6ddP2yWhzIqUTOiaMK+tCUKuS/bXmw4j4cADHbQVOBVAOkqy42420Bl2cfKTxQxk5JnBMqhThSUQiWkIo0bLgg2A4+mcAF3irRBfsNbN54scr5q8HgK2bu05SUp/LJD/RcK+ZzRMzGgdKaBHcbaR0tL5XkepG9jOjkEgz6EueDDIhTJP4MCPg7d73gCyCtp1Z1qUebnjXm6WZGLGwN2vvjo+5VUqr0LGJtKUgSFRPujPY9tGNAEs1rfXH3gBfxIyLss1ePjiUgZMuRTAcZQAZtGW9nx0CwFq0tC4HmMBXtbc2rJQSrJ0RO9QBakXEhHdQNWiRAnucSKPUcegqAP8DAEQ8XeoujJRffEfaYZIbxOJyqUB7vLE9GI6uAiB2fJ4LxGhMxuc95va6VaGmKjA+4fa6/WLCPQYAk9jo8148e56VZzYfBEdN8mr9XUi1tTa8AcwXkitsbGmHpTBYfqED4qshZ4U3XAhCA1RGCIPRKFYX3UPWYUIIkq2hbG+tXwnA84ldTDQXc5ZlmzXlyh4SbSuue1NIaweC9fTKcf8IncEFVt5BdyfiDbd6sbKCmgapHMGjaaU5ILsj7WFDpV8rqdkEYMbzRvznCxSbSFsKhmRLw+PEiJiOowjRIJ6bjDdE5aXFhjWwky5dI6TVF0+SlJ3h/Wra1n0GAEhoEAuAJ01cCJnFGikTG1bVv+X2oj6/748wWrm1E6+jHFd7trrg9Eky4NhRc+pN4yFn2wkAYA9vGFjjWK/W3hUCvyClVQzYRNpSUCRCqR8wuexVPbpJM9GlyZb5PzWiTmIX21c3PnqtuId7+bjyXwNIeq2jQddUzlh0EIC9vdYCACKS3wGcsrQEhCkSUkTeTGxse2jeOgAmbuh2ZTMUfcHL4URgsZvkbW0d5Z6f/OyKqG1nlnTF+PJnPVudZJqUe5AfnFPA2ETaUlhEIjpVnbwIzPebDqUISEDxZ1It9b81IT5x1s1jpRwmIDCIpT/W3Tt3K4i8Hs4CAGf7lJYb+MHyjYY1EzqPBTBGRMzLnT8m4+UdRLg2uaL+Fe8UmACWsoV7ysh0PMEyox6959fdO3erd8uTWGkHEa2V0ioGbCJtKTyWR7pVie8qAPIet8XD85r11OSK+Q+ZCqArXTYVcg3L4tZYvTjKWQLAa7cQAuHfPNboRXM5yQ9ikWzsUsqzGwW/5nu8WjsXGFiUaGm4w0uN6hnNRwAIeKnRCxlwjwEAlvNrz+Lh8zwwdHs5gQ/2av3dYPWBmFYRYBNpS8FRU9d0os7oRwGMMx1LgXJ7+bjyU10bAzxCfGAxBwZ2vEuMhmLjw43vEOOvAlLlAhoA4WVPSwIGQq5UQHMZP+3V4htWNbwJwMPd4EFZk6pJ3eC1CPt8ckmmNjSIRa4foUdRefY8U/72yRDM5xTU+1JaxYC1v7MUFNXh5ss101JIJRXFxQcMmptqrZdI6oZEg6aRTN/VptTEiaYSFwAAK1oM5vNMxuAabMhqDGI7gH/3/EaB+R4QHeWpxu4kNeuLsDzSLaAl566CUvFEuse2s0ZSU2e860tQGTUZclas2shE1ALG7khbCoZgOPafDPolbBK9Kwzg5+wrP7pQkmgAILDUjs5q06Noky3zHgLwmskYXMOAQ8LEWbftBUDo6Nn7UgGlxG3wNBiXiJ1CkdigkrUb4td9JKS1HVHbTgAAf7xx1bx/eLU6ESZ7tXY/eFbnXazYRNpinjnLfMFw9OcAfxcQvK8uDlYo4KRka8NVqYfnbjQdTC+VZzYdDGCiiBibOPrdFWIiFrDC8x7S8mUyTrpLzkqNvTtC76WtpfFZAJ4lRrtD303GGx6QUKo59abxYAjttpupjxa07QQAMKnHvVyfQCJuPz10CWoVBba0Yzis4b3BuBzAwaA9IOHTWA8/YphK7o+e7SUU8Qfb1v0KoC95plGEEOE5DfXtVMu8gnQvURnfdCkbYi9rC4cDdXX9H5eWfw9ApelY8qA9EUq8gbisKDNNl/rEJNIyyRnhz2A0CCitSNbs/T8COgAALqk4BWARWziCmfe2YJlRFo8Hzmjw3oIJiYzzThFhE+lceZLDYNwDoApA4VjyewkBcHAwgEs9WX/K0pIgdf0G4DmerF98OAD/STEvamttjJsOZgjEBrFkuNuYY0df2h67cVMgHP0VAfNMx5IHTyIS8dqBZDc0idXTJ6VGF2umPyiwx4k0vZfm7otFS5sUpold35TQTU8fJs66eWw6jWMkNdnj50nMFSCxVLoCU5aWGLEsLFBsaUcuPM5BEO5GbxK9Z+FRXSNTYELnz20SDQBYC+bvafIdkmydf0FbvOCTaJCUlRnhrU3xG7w7ERkmfgeL4L0VnnewAT/uOct8BJ4qpCY2sbG9Zu9HCdjgoUQaxBdLv/6ZxeqjOxPBdvEJeU63/yTIbiJmyvzpZ7wUYCLJwTKoCXbXSuoVOjaRzgUfbgKwp75wPvZi0WA49iMCLnNxyW4CfgOg3cU1vaQNhJ9p4jOSrfUHJ+Pz/6O95fp/mg4qF/advrACkBlHy0zGbO/6I2t9Rsa8u/NGyf8+q9Z/dCzkrCzlbhSWX+gwcK9XyzN4frKlwdPa2n5UBW3h+BkhB5KdVUmJlnUw6MX1D35zi5caSnZCI6D1J0T1ChybSA/FU3wygCtNh2EQ1zuqg+HoAgCNLi6ZJtYXJVobLh3T6Uxm4BIi/AXANhc13OBFBn7AUKclaybtnWxp+Fp7y/xVUjtobrFljH8qgBIRMQMOE0PBrBebjmGEsNPtFx/EQn45KzUSvvFi9si9g3BXqnX+Ek/WHoTaGbFDIWULZ+gmWQs3Gko0VLJQTft2PUeqGbU4sDXSg9HKfmgsxZ58w0FY7+Zywbrop8D4oZtrgvmmRLzxjwDw/hMLtgG4E8Cdk89bOmbblq6ZxPrMni7tEyCUABLQxcDzAB4n1qu6HN9jmx+p9/IYWA4tZx3FmcJLpFPxhr8Gw7E3ABxuOpbhQa9sfPTalLis3Chmrf1lojcKlah8eBNtvMnNNTUrx699P3BzzZy1/YL10SAjvQ+Ctp1ZCsJ1yF2YEAYwKlyM3MAm0oMxBo0AjjcdhmFcS6THz1xcDa3vAtjFZJbeKx9f3u9FZ929c7cie/R6L5AtSegsKznaIX04AUcwcCAx9gZhEgETefjlO90EvMfAWgBrCXgbrF9VWr28YeKkd0x7H3sFMaYJOTBsaVfJl0SUhgUxEF0K4EemIxkeZi7oRDxdJDkjvCxtEbk2fkUnIDba3XtYzs2CVEZ8R7qyLnYImGVsO3vQHo6r74WhEkLNvL2cjdmxMtxfb63wYBPpgVnD+4Hxn6bDKABcK+0oZaeZgf3cWg8AGPqHPQnzkPTsVj/d82d3piwtqa7cspfWvoCPUMZMAQ1dTlDl1Ft7TXqTYp1wKvwfGxmzXAiQTA0lg55CPJKR0BoumvUvFKn/AjDWdCw5Y6DRMHvz7BwqIsbeTY7bYyCxHel3Ey0LPhBR6oPSYpsAvbRtbJn3DlDvqQgxfyz8vMYFtvHnU8BdoqoFik2kB0KjGSTWIFO4OHDlwy4Yik1j5kvcWKsPyYpxFb907az6mbnpBPAB4M5zHo1UhZoOBGSmaKkCPhJtjze2B8PNvwZorulYcoYc8R1Av5OZDhLy5SJTwz1GBz22cJ8UkjP13hatjybGExI9MKzoY2LZVhsi/BvAdxdbj48X7Lm1v0NBONF0CMZhrEEJnnVhIQJxFO5PLfxdrrvRFncgKLkLUQE2Gu6EUjEUj6N8R/KMjlfFVZVcYxdldGG/XgocUVs4MtNoKGbbuV0QIs9TgVztZcqR46rDUTedt4oWuyM9EFtxGMZgP6hhJn8OAnnpKlTlNTXRQSUorxukCWD4AKzHeNyPoylv0/VA3eJPg3FyvuvsCjN7Zj1l6R8SHNag2F8Qg1gGIrmi/pVAKBqnbONNoWNkEAvJNRq2J+o2vo5VQmqjEEepaWJ7ix5P+uuPfacvrNgqZNvZCymZ5+nozDuK5PdFGdQcDMVakvH698XFCwibSA9EmDIA/mE6jNEAsfakQIyVvwAb0UY5cs1I/9gQv85160W3UUSLGVwEibSBMplIRGElThJSM3KjMKoQuukhoCtRgecktPqyZYx/Kmk3G92HxCFHxm6yPd64NhiOJgBUS+j1IQDF91WetuQMI45AOVB52pKAb3zG8bKnyZZ2WDyldkb0MACzPFhat89oe8+DdS0DMTtWRsBxElIEmSPRfEnU7P0nZF1bChsDnr2BR6qOATBBRMzExMZRBgkNYmGmZ424PQjadvbw0ob4dZvF1NiNMswR6X7S50//reb0pklG9AegNrTw0EA4uthXkn4P2/TXvNSyibTFU7SfLoI3rzMVeHTSeA/WtQxAoJOmMlAmIlbo9dG9LL/QYcJS02EMAWfKnDXiqo7gBDkDExtHE5UzFh0EYG8RMUNNoYJlRlk94c0AAjwdQz6E+Enar56uCsfOMBYDAIQi/kCo+dxAOPpHh3yvE3AdgLEg8nSonk2kLZ7CrD/t1drK2XaEV2tbdofYEWw0LFzHjl3J6PTPUHhTNPvyesffFiSlRUlpqdeLkYmNownl03I3Pabe20K2nTuQfZ5k3rVmsgK3BsLRXwVn/MhVm9uhqArHjguGowuDFHifiO4l4HzsnN8eFayLfsorfVsjbfGMytOWBIC0dx9eTF8BUNANaaMKRVKNhp2JYPsLIkousCl+Q1swHL0LwBWmYxkAMxdYlnLsMDSxcXQhd5OcccQTaUnbzl5I+UWfZ3mnfmhruW8zYNS2lwi4DD7/xcG66O+V1kvbavd5xP3hZEw14diJGjgHwBcBHrqJlHElgMfdjSOLTaQtnqFKnWlg715jTLgyOLPpV8kVjabvxPcM5I5Gn8bySLeQlito1jFFqlATaROJSxWkRqib34kregSnla5LrvqGeG+LqG1nlkTbiuveBK4XE3z/iQXbguHYXwG+SEx0YErAuFiTujjY9mGCwtEHwHiCffpZ1dn997bHbtyU60KTz1s6Jr2xcx/28ZEadBzAxwOxT+nhlyJdVBu6db4Xdes2kbZ4B/MxHiuUQqvfB0LRC1Pxhkc91tqj6Tmq21dErAgbx9rjjc8Hw9HHAXh2fDhS2PF+RPGukPJPB2uZ0kFdPGVAhciBodvLO6hDpIkY5M2O4JCyxNPdH2MwKE8aGVTC+B0IhZBI96WagUtAuARaQZeWIxiObgTofQY2EDgDcAegHDD32v9OQHZnfZ/OzZ2V8AE7/v9G/P84zkH6IgA/z/sZ7YJNpC2eQWCJ0cCTiLAqGGp+gAh3dXPmvk3xG9oEdPcsfP7RX0OZJ8xYRFRwifSm1MSJr0iLZuvphRIXn/yNwmhiI22eQkCpiJixmx65wUAAQGRmXH35+LL7Ojd3poA851l4TyXAlTs+IQgAC3xkqK/CJtKWIqNKSIdANJuB2SVU4gTDzc8B9DITXlPA6yB+P8MqiW5/0tZSjhi5CXVUnBPqUpvKfx+c0PkBgH1Mx9KHNe7XJ+YA03ShPHpj8vTka1ghojUqIdLTxeZzGnBXOTB0e3kHOo4XFWUz5Ubr7p27NRhuXgTQf5rQL3iIpwdnxo5Krqh3dXPBJtIWzyBGBYuepgEAfABNBTCVuGd+MxN8YKAkjWA4ygDakXVZ6ARhCxjdBGxmIL39iAloB5iJOKWZNJg2kmIHjA4Q0gBvVowuZrVVgzt9Sm9NK7Szj9s7ujo6EI9kxJ+5lzBNkzmppPcSLQs+EBByn2fmphGO/QTg75oOZTtGLuhMoJjUIJbVdhBLnsj1PqTHbHOek7aPEd1xz6K5nIy5yGRKddTf7VsAs02HhUu26fAGN5e0ibTFOwg5NxQIQsgee2WPvnpyQ97p2zv+xdwzr317Vt77bYLu+ToB0KzgcwA4QJACQDi6lYAPGfwRgPUM+oCAtQS8rR31zth0+q33n1hQyJZpO5gdK0MnnyAjVtyNYyUlJT/OpLu/Jea3PQRMSnx3PxhuOgrwyZxGUXEM7ilwpBLp50x85hE700CCOzqEl72cojcUHX9bkAyGoz8BsMBUDAUN85cxO/ZtN4cC2UTa4hkMrDcdg0HGMHAIQIcAO0q/GAD5NLb6fDoYjr4F0AvE/AIDz2joJ9vjje3mQu6f4DacAEK5jFpx1kf3sv7Baz6uDkd/B+AS07EA4Ax3y9tDsk+qrAPQxdeYWkj0NBHLlCKZuukhkp1oyOZv7roz9MNSP18OoMZ0LAVITbBTn5sEfu/WgjaRtngGMz9LkjsBxYUCcDjAhzNhTvYLSgfD0dcIWAmmexJIxguiRIS0XMe7Ku5EGgCYaTGICyGRftNI4y2J7XCamdg4mhBsImZzNz2y1ncFMJV18yP1GwLhaAMBvzEdS0HC+CpcTKTtZEOLZ5B2VgKw9Yu5owAcxcA1TPxQkAIfBcPNP66e0XSk2bBkOt4J6JrgVD0noeUlyXj9k2AYn7THMOMcAEAmOSO8ZmJi4yhDLMlk5RPfqRXdce+BdGG4yKRaG+5koj+ajqMgITo7cGZ0f7eWs4m0xTOSq77xHtj20+dBNUBz2adeDoajf60JR6cYikPkYsvAc2vjV3RKaHkNES82HYOJnbHAmUsrARwhIlYAR+hFj9j0SXzY3nL9P4W0diBp25mlPRFKvCGsOSAKmesBWDvY3VHk4MuuLebWQhZLfzCp7wJi5kqjFQJwjgbWBMLRX40P3SJW91Zz1qLJAFy7cx8ULv6yjl4S5epuGO4RYO3ID2LRXadA6rpSpH7jBcOcSClIqInY3JAl6YmGTxaSi0yiZcEHzPg8gKKaFCvElYhEXPmssom0xVNSrfMeA/Ar03GMEhQBl5VQyXOBUPQ0CUGdcSR3dEZPYnR/fRcTfmYwgi3t2Ph3cVXNgjW38p7Eo4nqtqoTAJkmYiZj/1fCO9KF95pMxRseZeAK2DLLXTmwOh6sc2Mhm0hbPKekpPs6AC+YjmMUsS8RWoN1sfmeK8kd/UIr/+hJpAH4fGoJgLQJbWasMdKoKtdo2JGqnfSqkNaohEnJJZnKwE3y7FgZAUK2nT0UQKNhf6RaG+4E4SoA8sOZChQiPAef3ujGWjaRtnjO+ge/uQVM5wIomNqxUYAfzE3BULTBUxUS22E0U0PpIW0PzVsHwp+MiBu5oDMBOFlGCquNTGwcTQgOYqkYU/aMkNZ2gttwgrCfOzvdfuNNxgORbGm4nYALAGw1HYth3mGif0nMSE1NrJjvyv+XTaQtIiTj9e/7HJwLYFQ0kxUMhKZgOHqhJ2tPWVoC0ImerL0bxT2IZSA0eJEJXZ8BP+7qGc1HAAiKiBXozl9xwUKJNL+w7t658skbaemyjlc2PnptSlZzeCRaG/5Ejp4Kwp54mtPGTP+WLKejUi31v3Wzlt0m0hYRguHmsx0fHoZQTd4eBAFYstfM5oluL1xdte14ABVur9sfDPkJfBK0t8xfBQNlTUpBfBAL+5WclRoVhsVYsVJzetMkAAdIaDGbem/LlaVlKY7m18SqxldRRrd9QQkAAAq+SURBVNMYWIQ9o9TjHRA1+th/UCpef5ObEw17sYm0xVMmn7d0TDAc/QVAD0DK/WHPozqt1f+6vqoe5TWUUjBErfAIePvjFfPlHUNYbIIcZ4jsIJY8YL9P7r1Npk6bpCcaFs+pWvL++o5Ua0O9In0yIH/TLQAzKE6ELyTPSB2WbKlv3hC/brNXYjaRtnhGbWjhoZ2bO59AtmPY4iEE/lJ13UJXBw8w9KiuoZRiTJfzGwAJMUFjo5ilSgXwxqYV18v9Pkchgu9taJ8Wv0nO2nbyfqKiJP8886WtpfHZ5BmpTxHjKwC9bDoeF/iAQd/3OfhEqrU+nGhp+IOEHaFNpC2eEAw3n+2Qbw2AY03HsodQwqyudndJqR0dQzWUQrz/xIJtAP9CTNDAKOaaU28aD8ZRImLGdjhHEWJuPPzxxocb35HR2oGwbScAdCTP6CjOuuNIRCfiDf+XbJ33SRCdDeABFNXsB/4YwC+Y1DnJmkkHpFrrv71hVcObkhH4JcUsewaBUPRiZL2jS0zHskdB9HkA33FjqcrTlgSAtAbg+UWQif7mtYZpHMd3m8+nLxDRgn5MQqcvXFp2FAAR1xUCtUjojFoiEYWVCEDgvQ1Q3HuN3WGogwkslsBTgQ1iGRnEyRY8CODBmnDzJxi4gEHnA5iKwtt0fZFBfyHGvclQao3p3z2ZFLeMPgJ10a8T41YU3htvT4BVRu/T9kjjh6YDsVgsFkvxU3N60yRdQueC1VkATwVwkHAI7QCtBvRqBq3OKN/qQivtsom0xTV6kujbXF62nYEfEDALwAzYXe4h4C8mW+f/3nQUFovFYhl9TDh7YdCfUVOYaYpifJIZ+4GwDwH75Onb3QnCP8B4hxgvMfh5RXi+rbXhDYAKutTEJtIWVwjWNc8B028B+FxcNk3A7ERrwwoA2Hf6wootY/xTFevjGOpAgA8AY39kbZxct38rRgjUkGitj5mOw2KxWCx7FhNn3bZXt9O1t3LUXuzTBEYVNBSIKvs+jhhdTLxZMScc7U/4ONNWzCepNpG25E113aI6sL7P9SlSxFcnW+b/NNeHV562JKDK0+ORwQTy6fHQNAGECQCqoDEBisYTuBxMxEBVH6FK9JaisB4Hot5d7zHY8ZzKev4NAGORHTxRcLvjDPwg1drwLdNxWCwWi8WyJ2CbDS15UXN60yTNzm8BcjWJJuA3iWEk0QDQM1VKbLJUbejWcY7P2R+sj4bGsSB8GqApMHiDSswiA1QsFovFYrHYRNqSD5GI0ivp1wDt5eayDHpLdW+7xs01vaDH4P2Vnj/LAfxHMBTbFwrzwfx1ZHeuZSHaJK5psVgsFsseinVWsIyY6pWBGwGqc3tdBb6h7bEbizIhTMbr30+21N8ApiNgYmIUoUNc02KxWCyWPRSbSFtGRHDGj/Zj4D9cX5jxVKK1/s+urytMMl7/PvvKz4aQt24vxPyxpJ7FYrFYLHsyNpG2jAjy+78PwPV6XCZECt3qJldSD8/dyEw/kNSk0THm1WKxWCyWosAm0pZhUxNaNJUZl7i9LgEbUjWTRtmUO5acMueUjisvzjG1FovFYrEUITaRtgwbTfqb8MCZgoE/Y/mFjtvrmqRifLnYmFoAb6+7d+5WQT2LxWKxWPZobCJtGRZ7zWyeCOBzXqzNwD1erGuS7vatlUM/yi24VU7LYrFYLBaLTaQtwyLNdAWAUi/WznB6jRfrmoRLfPsJyj0kqGWxWCwWyx6PTaQtw4KAf/Fo6Y82xW9o82htY2jGGUJSjmZeIaRlsVgsFosFNpG2DIPa0K17g3GMR8u3e7SuQZgIfKmQ2N/a442j8HdosVgsFkvhYhNpS85klBOGV+OvCaPC8q4vgbpF5wI4VkKLiX4soWOxWCwWi2UHNpG25Awxwp4tzjgQkcioeT3Whm4dR8wxIbl/pqr3vk9Iy2KxWCwWSw+jJnGxCOBdWQcAVAQeCZ7q4fpyRCIqo5w7ABwoIUeghaPNNtBisVgslmLAJtKW3CE+3NP1NX/D0/UlCEX8gZWBXxKzJxaB/fBGoqPsNiEti8VisVgsfbCJtCUnxs9cXA2g2ksNAs4PhJqlmvNcZ6+ZzRODFHiAgMukNJnoBjwzNy2lZ7FYLBaLZQc2kbbkRCnrQyR0FNHPgnWxWRJa7sEUCDVfmtH0AoCZUqpE+Euqpf5eKT2LxWKxWCw7YxNpS06QdsZI6DBQBua/VNdF5wHsjUOIazAFQ9FPB8OxJ4joDgATBcXXdaXpSkE9i8VisVgsu1DgiYqlUKiZGQ1rjRZh2TUEfCvRWt8CUMHY41XWxQ5RGl8k4isBeFs33j+OUjirbUWDHQlusVgsFotBbCJtyYmqUNPxitRzhuRfIcadGvhTKpR6BZGIlpNmqqxbdLDSmAZgGhGfCeAIOf3dIfC3E63zv28yBovFYrFYLDaRtuRI5WlLAr6SdNJ0HAA2gfE8FJ4F8AI0PmQfr/N184a2vff5eLg2cONnLq4ugZ5ITHtrzZOI9F4gtQ8x783gTwB0JICx3jyVEUD4WbKl4Wumw7BYLBaLxWITacswCIZj7wK8n+k4BkED2Njz93YADKAbQGnP1yqR7QsoAyBS8+0yDyQ5dR7ikYzpQCwWi8VisQB+0wFYigl+CEAhN7gpAIGevwcGe2DxwS0+Lpljk2iLxWKxWAoH69phGQa8zHQEeya0PFmuztkQv26z6UgsFovFYrHswCbSlpxJtjY8CNDLpuPYk2Cmxckzkhfj/vou07FYLBaLxWLZGVsjbRkWwXDz2QA9YDqOPYDNxDQvEa//pelALBaLxWKx9I/PdACW4mLb2gfeHnPg7L1BmGo6ltEKg571Kd+sROu8FaZjsVgsFovFMjC2tMMybMZjQiMRTHlKj2a6GfT9VE1yetuK698wHYzFYrFYLJbBsaUdlhFReWbTwT5HPQJgsulYRgn3+RzM37Cq4U3TgVgsFovFYskNm0hbRkztjOhhjg8tAPY1HUsR8zoTfTPVUn+v6UAsFovFYrEMD5tIW/Kisi52iI/5PgCHm46lqCC8xBrfT9VOWj7caYwWi8VisVgKA5tIW/Km5tSbxnNZ+RJmXGo6liJgNbH+YSI+/08AselgLBaLxWKxjBybSFtcIxBqvpSI/hfAJNOxFBgJEH7NxL9IrZj/oulgLBaLxWKxuINNpC2uMnHWzWPT6bJvAPxNAONMx2OQrQw89P/bu39X2uM4juPP99cJOUh+DiSDumy6g0lRZFE2g9FiU/IX2Fn8BTbDvZNYb938yGJwduUknZJ8D0rC93zeBjeDyeD4uLwe03f69Ppuz+FTH4ONtN429aCKiIjI16OQlqpoGlttz1ntHDBveH/sPR+kBGy7+1b+Pvw5O1i6iz1IREREqkchLVXm1jq+NkGwWWAaaIu96B2VwHbNfL8Swu7V38WC7j2LiIh8Hwpp+Tgzv2raLs9H3cMUMAL8BHKRV73VNVAAPzKzwyxL9q53Fk5ijxIREZF4FNISTdfkSr5SqR0OwYfABnAGMf8B1hlpkgMl8KJhRTeODQpZlhwpmkVEROQ1hbR8On1j6/W3lHseLdddY96L0xOgO3F6AzSa0YzRgFMHtAB1QJ7nEL76d8zLt2PB8BSsDCE1rOzuKUZqnpSBs4SseNFxc8rv5YcY/ywiIiL/nyfZjN/lfTww6gAAAABJRU5ErkJggg==;perimeterSpacing=1;strokeWidth=1;imageBackground=#ffffff;" vertex="1" parent="70vNNEtvRkJ1yF6m3qAn-2">
          <mxGeometry x="8.71999999999997" y="11.879999999999995" width="68.56" height="16.24" as="geometry" />
        </mxCell>
        <mxCell id="70vNNEtvRkJ1yF6m3qAn-5" value="&lt;font style=&quot;font-size: 11px&quot;&gt;Targets discovery via docker API&lt;/font&gt;" style="text;html=1;strokeColor=none;fillColor=none;align=center;verticalAlign=middle;whiteSpace=wrap;rounded=0;fontFamily=Manrope;fontSource=https%3A%2F%2Ffonts.googleapis.com%2Fcss%3Ffamily%3DManrope;" vertex="1" parent="gBTGp2xAHOtJdxLIhFSI-1">
          <mxGeometry x="220" y="80" width="125" height="30" as="geometry" />
        </mxCell>
        <mxCell id="70vNNEtvRkJ1yF6m3qAn-6" style="edgeStyle=none;rounded=0;orthogonalLoop=1;jettySize=auto;html=1;exitX=0.5;exitY=0;exitDx=0;exitDy=0;fontFamily=Manrope;fontSource=https%3A%2F%2Ffonts.googleapis.com%2Fcss%3Ffamily%3DManrope;" edge="1" parent="gBTGp2xAHOtJdxLIhFSI-1" source="70vNNEtvRkJ1yF6m3qAn-3">
          <mxGeometry relative="1" as="geometry">
            <mxPoint x="453" y="45.389999999999986" as="targetPoint" />
          </mxGeometry>
        </mxCell>
        <mxCell id="70vNNEtvRkJ1yF6m3qAn-7" value="" style="group;aspect=fixed;" vertex="1" connectable="0" parent="gBTGp2xAHOtJdxLIhFSI-1">
          <mxGeometry x="253" y="230" width="400" height="126.95" as="geometry" />
        </mxCell>
        <mxCell id="70vNNEtvRkJ1yF6m3qAn-8" value="" style="rounded=1;whiteSpace=wrap;html=1;fillColor=#bac8d3;strokeColor=#23445d;" vertex="1" parent="70vNNEtvRkJ1yF6m3qAn-7">
          <mxGeometry width="399.99999999999994" height="126.95" as="geometry" />
        </mxCell>
        <mxCell id="70vNNEtvRkJ1yF6m3qAn-9" value="" style="group" vertex="1" connectable="0" parent="70vNNEtvRkJ1yF6m3qAn-7">
          <mxGeometry x="63.492063492063494" y="90.13449999999996" width="31.746031746031747" height="31.7375" as="geometry" />
        </mxCell>
        <mxCell id="70vNNEtvRkJ1yF6m3qAn-10" value="" style="group" vertex="1" connectable="0" parent="70vNNEtvRkJ1yF6m3qAn-9">
          <mxGeometry width="31.746031746031747" height="31.7375" as="geometry" />
        </mxCell>
        <mxCell id="70vNNEtvRkJ1yF6m3qAn-11" value="" style="whiteSpace=wrap;html=1;aspect=fixed;fillColor=#001135;strokeColor=none;connectable=1;allowArrows=1;fontFamily=Manrope;fontSource=https%3A%2F%2Ffonts.googleapis.com%2Fcss%3Ffamily%3DManrope;" vertex="1" parent="70vNNEtvRkJ1yF6m3qAn-10">
          <mxGeometry width="31.736408566721575" height="31.736408566721575" as="geometry" />
        </mxCell>
        <mxCell id="70vNNEtvRkJ1yF6m3qAn-12" value="" style="endArrow=open;html=1;edgeStyle=orthogonalEdgeStyle;rounded=0;endFill=0;startSize=6;endSize=2;strokeColor=#FFFFFF;fontFamily=Manrope;fontSource=https%3A%2F%2Ffonts.googleapis.com%2Fcss%3Ffamily%3DManrope;" edge="1" parent="70vNNEtvRkJ1yF6m3qAn-10">
          <mxGeometry width="52.9100529100529" height="52.895833333333336" as="geometry">
            <mxPoint x="3.1746031746031758" y="12.694999999999995" as="sourcePoint" />
            <mxPoint x="11.640211640211643" y="3.1737499999999987" as="targetPoint" />
            <Array as="points">
              <mxPoint x="11.640211640211643" y="12.694999999999995" />
            </Array>
          </mxGeometry>
        </mxCell>
        <mxCell id="70vNNEtvRkJ1yF6m3qAn-13" value="" style="endArrow=open;html=1;edgeStyle=orthogonalEdgeStyle;rounded=0;endFill=0;startSize=6;endSize=2;strokeColor=#FFFFFF;fontFamily=Manrope;fontSource=https%3A%2F%2Ffonts.googleapis.com%2Fcss%3Ffamily%3DManrope;" edge="1" parent="70vNNEtvRkJ1yF6m3qAn-10">
          <mxGeometry width="52.9100529100529" height="52.895833333333336" as="geometry">
            <mxPoint x="11.640211640211643" y="28.56375" as="sourcePoint" />
            <mxPoint x="3.1746031746031758" y="20.100416666666668" as="targetPoint" />
            <Array as="points">
              <mxPoint x="11.640211640211643" y="20.100416666666668" />
            </Array>
          </mxGeometry>
        </mxCell>
        <mxCell id="70vNNEtvRkJ1yF6m3qAn-14" value="" style="endArrow=open;html=1;edgeStyle=orthogonalEdgeStyle;rounded=0;endFill=0;startSize=6;endSize=2;strokeColor=#FFFFFF;fontFamily=Manrope;fontSource=https%3A%2F%2Ffonts.googleapis.com%2Fcss%3Ffamily%3DManrope;" edge="1" parent="70vNNEtvRkJ1yF6m3qAn-10">
          <mxGeometry width="52.9100529100529" height="52.895833333333336" as="geometry">
            <mxPoint x="19.04761904761905" y="3.1737499999999987" as="sourcePoint" />
            <mxPoint x="28.571428571428566" y="12.694999999999995" as="targetPoint" />
            <Array as="points">
              <mxPoint x="19.04761904761905" y="12.694999999999995" />
            </Array>
          </mxGeometry>
        </mxCell>
        <mxCell id="70vNNEtvRkJ1yF6m3qAn-15" value="" style="endArrow=open;html=1;edgeStyle=orthogonalEdgeStyle;rounded=0;endFill=0;startSize=6;endSize=2;strokeColor=#FFFFFF;fontFamily=Manrope;fontSource=https%3A%2F%2Ffonts.googleapis.com%2Fcss%3Ffamily%3DManrope;" edge="1" parent="70vNNEtvRkJ1yF6m3qAn-10">
          <mxGeometry width="52.9100529100529" height="52.895833333333336" as="geometry">
            <mxPoint x="28.571428571428566" y="20.100416666666668" as="sourcePoint" />
            <mxPoint x="19.04761904761905" y="28.56375" as="targetPoint" />
            <Array as="points">
              <mxPoint x="19.04761904761905" y="20.100416666666668" />
            </Array>
          </mxGeometry>
        </mxCell>
        <mxCell id="70vNNEtvRkJ1yF6m3qAn-16" value="&lt;font color=&quot;#001135&quot; style=&quot;font-size: 9px&quot;&gt;leaf1&lt;/font&gt;" style="text;html=1;align=center;verticalAlign=middle;resizable=0;points=[];autosize=1;fontSize=14;fontFamily=Manrope;fontColor=#FFFFFF;fontStyle=0" vertex="1" parent="70vNNEtvRkJ1yF6m3qAn-7">
          <mxGeometry x="33.4968253968254" y="101.88273250000006" width="30" height="20" as="geometry" />
        </mxCell>
        <mxCell id="70vNNEtvRkJ1yF6m3qAn-17" value="" style="group" vertex="1" connectable="0" parent="70vNNEtvRkJ1yF6m3qAn-7">
          <mxGeometry x="136.7492063492064" y="90.13449999999996" width="31.746031746031747" height="31.7375" as="geometry" />
        </mxCell>
        <mxCell id="70vNNEtvRkJ1yF6m3qAn-18" value="" style="group" vertex="1" connectable="0" parent="70vNNEtvRkJ1yF6m3qAn-17">
          <mxGeometry width="31.746031746031747" height="31.7375" as="geometry" />
        </mxCell>
        <mxCell id="70vNNEtvRkJ1yF6m3qAn-19" value="" style="whiteSpace=wrap;html=1;aspect=fixed;fillColor=#001135;strokeColor=none;connectable=1;allowArrows=1;fontFamily=Manrope;fontSource=https%3A%2F%2Ffonts.googleapis.com%2Fcss%3Ffamily%3DManrope;" vertex="1" parent="70vNNEtvRkJ1yF6m3qAn-18">
          <mxGeometry width="31.736408566721575" height="31.736408566721575" as="geometry" />
        </mxCell>
        <mxCell id="70vNNEtvRkJ1yF6m3qAn-20" value="" style="endArrow=open;html=1;edgeStyle=orthogonalEdgeStyle;rounded=0;endFill=0;startSize=6;endSize=2;strokeColor=#FFFFFF;fontFamily=Manrope;fontSource=https%3A%2F%2Ffonts.googleapis.com%2Fcss%3Ffamily%3DManrope;" edge="1" parent="70vNNEtvRkJ1yF6m3qAn-18">
          <mxGeometry width="52.9100529100529" height="52.895833333333336" as="geometry">
            <mxPoint x="3.1746031746031758" y="12.694999999999995" as="sourcePoint" />
            <mxPoint x="11.640211640211643" y="3.1737499999999987" as="targetPoint" />
            <Array as="points">
              <mxPoint x="11.640211640211643" y="12.694999999999995" />
            </Array>
          </mxGeometry>
        </mxCell>
        <mxCell id="70vNNEtvRkJ1yF6m3qAn-21" value="" style="endArrow=open;html=1;edgeStyle=orthogonalEdgeStyle;rounded=0;endFill=0;startSize=6;endSize=2;strokeColor=#FFFFFF;fontFamily=Manrope;fontSource=https%3A%2F%2Ffonts.googleapis.com%2Fcss%3Ffamily%3DManrope;" edge="1" parent="70vNNEtvRkJ1yF6m3qAn-18">
          <mxGeometry width="52.9100529100529" height="52.895833333333336" as="geometry">
            <mxPoint x="11.640211640211643" y="28.56375" as="sourcePoint" />
            <mxPoint x="3.1746031746031758" y="20.100416666666668" as="targetPoint" />
            <Array as="points">
              <mxPoint x="11.640211640211643" y="20.100416666666668" />
            </Array>
          </mxGeometry>
        </mxCell>
        <mxCell id="70vNNEtvRkJ1yF6m3qAn-22" value="" style="endArrow=open;html=1;edgeStyle=orthogonalEdgeStyle;rounded=0;endFill=0;startSize=6;endSize=2;strokeColor=#FFFFFF;fontFamily=Manrope;fontSource=https%3A%2F%2Ffonts.googleapis.com%2Fcss%3Ffamily%3DManrope;" edge="1" parent="70vNNEtvRkJ1yF6m3qAn-18">
          <mxGeometry width="52.9100529100529" height="52.895833333333336" as="geometry">
            <mxPoint x="19.04761904761905" y="3.1737499999999987" as="sourcePoint" />
            <mxPoint x="28.571428571428566" y="12.694999999999995" as="targetPoint" />
            <Array as="points">
              <mxPoint x="19.04761904761905" y="12.694999999999995" />
            </Array>
          </mxGeometry>
        </mxCell>
        <mxCell id="70vNNEtvRkJ1yF6m3qAn-23" value="" style="endArrow=open;html=1;edgeStyle=orthogonalEdgeStyle;rounded=0;endFill=0;startSize=6;endSize=2;strokeColor=#FFFFFF;fontFamily=Manrope;fontSource=https%3A%2F%2Ffonts.googleapis.com%2Fcss%3Ffamily%3DManrope;" edge="1" parent="70vNNEtvRkJ1yF6m3qAn-18">
          <mxGeometry width="52.9100529100529" height="52.895833333333336" as="geometry">
            <mxPoint x="28.571428571428566" y="20.100416666666668" as="sourcePoint" />
            <mxPoint x="19.04761904761905" y="28.56375" as="targetPoint" />
            <Array as="points">
              <mxPoint x="19.04761904761905" y="20.100416666666668" />
            </Array>
          </mxGeometry>
        </mxCell>
        <mxCell id="70vNNEtvRkJ1yF6m3qAn-24" value="&lt;font color=&quot;#001135&quot; style=&quot;font-size: 9px&quot;&gt;leaf2&lt;/font&gt;" style="text;html=1;align=center;verticalAlign=middle;resizable=0;points=[];autosize=1;fontSize=14;fontFamily=Manrope;fontColor=#FFFFFF;fontStyle=0" vertex="1" parent="70vNNEtvRkJ1yF6m3qAn-7">
          <mxGeometry x="100.23539682539693" y="101.8779825" width="40" height="20" as="geometry" />
        </mxCell>
        <mxCell id="70vNNEtvRkJ1yF6m3qAn-25" value="&lt;font color=&quot;#001135&quot; style=&quot;font-size: 9px&quot;&gt;spine1&lt;/font&gt;" style="text;html=1;align=center;verticalAlign=middle;resizable=0;points=[];autosize=1;fontSize=14;fontFamily=Manrope;fontColor=#FFFFFF;fontStyle=0" vertex="1" parent="70vNNEtvRkJ1yF6m3qAn-7">
          <mxGeometry x="90.0039682539682" y="12.694999999999995" width="40" height="20" as="geometry" />
        </mxCell>
        <mxCell id="70vNNEtvRkJ1yF6m3qAn-26" value="" style="group" vertex="1" connectable="0" parent="70vNNEtvRkJ1yF6m3qAn-7">
          <mxGeometry x="137.1428571428571" y="6.3474999999999975" width="31.746031746031747" height="31.7375" as="geometry" />
        </mxCell>
        <mxCell id="70vNNEtvRkJ1yF6m3qAn-27" value="" style="group" vertex="1" connectable="0" parent="70vNNEtvRkJ1yF6m3qAn-26">
          <mxGeometry width="31.746031746031747" height="31.7375" as="geometry" />
        </mxCell>
        <mxCell id="70vNNEtvRkJ1yF6m3qAn-28" value="" style="whiteSpace=wrap;html=1;aspect=fixed;fillColor=#001135;strokeColor=none;connectable=1;allowArrows=1;fontFamily=Manrope;fontSource=https%3A%2F%2Ffonts.googleapis.com%2Fcss%3Ffamily%3DManrope;" vertex="1" parent="70vNNEtvRkJ1yF6m3qAn-27">
          <mxGeometry width="31.736408566721575" height="31.736408566721575" as="geometry" />
        </mxCell>
        <mxCell id="70vNNEtvRkJ1yF6m3qAn-29" value="" style="endArrow=open;html=1;edgeStyle=orthogonalEdgeStyle;rounded=0;endFill=0;startSize=6;endSize=2;strokeColor=#FFFFFF;fontFamily=Manrope;fontSource=https%3A%2F%2Ffonts.googleapis.com%2Fcss%3Ffamily%3DManrope;" edge="1" parent="70vNNEtvRkJ1yF6m3qAn-27">
          <mxGeometry width="52.9100529100529" height="52.895833333333336" as="geometry">
            <mxPoint x="3.1746031746031758" y="12.694999999999995" as="sourcePoint" />
            <mxPoint x="11.640211640211643" y="3.1737499999999987" as="targetPoint" />
            <Array as="points">
              <mxPoint x="11.640211640211643" y="12.694999999999995" />
            </Array>
          </mxGeometry>
        </mxCell>
        <mxCell id="70vNNEtvRkJ1yF6m3qAn-30" value="" style="endArrow=open;html=1;edgeStyle=orthogonalEdgeStyle;rounded=0;endFill=0;startSize=6;endSize=2;strokeColor=#FFFFFF;fontFamily=Manrope;fontSource=https%3A%2F%2Ffonts.googleapis.com%2Fcss%3Ffamily%3DManrope;" edge="1" parent="70vNNEtvRkJ1yF6m3qAn-27">
          <mxGeometry width="52.9100529100529" height="52.895833333333336" as="geometry">
            <mxPoint x="11.640211640211643" y="28.56375" as="sourcePoint" />
            <mxPoint x="3.1746031746031758" y="20.100416666666668" as="targetPoint" />
            <Array as="points">
              <mxPoint x="11.640211640211643" y="20.100416666666668" />
            </Array>
          </mxGeometry>
        </mxCell>
        <mxCell id="70vNNEtvRkJ1yF6m3qAn-31" value="" style="endArrow=open;html=1;edgeStyle=orthogonalEdgeStyle;rounded=0;endFill=0;startSize=6;endSize=2;strokeColor=#FFFFFF;fontFamily=Manrope;fontSource=https%3A%2F%2Ffonts.googleapis.com%2Fcss%3Ffamily%3DManrope;" edge="1" parent="70vNNEtvRkJ1yF6m3qAn-27">
          <mxGeometry width="52.9100529100529" height="52.895833333333336" as="geometry">
            <mxPoint x="19.04761904761905" y="3.1737499999999987" as="sourcePoint" />
            <mxPoint x="28.571428571428566" y="12.694999999999995" as="targetPoint" />
            <Array as="points">
              <mxPoint x="19.04761904761905" y="12.694999999999995" />
            </Array>
          </mxGeometry>
        </mxCell>
        <mxCell id="70vNNEtvRkJ1yF6m3qAn-32" value="" style="endArrow=open;html=1;edgeStyle=orthogonalEdgeStyle;rounded=0;endFill=0;startSize=6;endSize=2;strokeColor=#FFFFFF;fontFamily=Manrope;fontSource=https%3A%2F%2Ffonts.googleapis.com%2Fcss%3Ffamily%3DManrope;" edge="1" parent="70vNNEtvRkJ1yF6m3qAn-27">
          <mxGeometry width="52.9100529100529" height="52.895833333333336" as="geometry">
            <mxPoint x="28.571428571428566" y="20.100416666666668" as="sourcePoint" />
            <mxPoint x="19.04761904761905" y="28.56375" as="targetPoint" />
            <Array as="points">
              <mxPoint x="19.04761904761905" y="20.100416666666668" />
            </Array>
          </mxGeometry>
        </mxCell>
        <mxCell id="70vNNEtvRkJ1yF6m3qAn-33" style="rounded=0;orthogonalLoop=1;jettySize=auto;html=1;fontFamily=Manrope;fontSize=12;fontColor=#FFFFFF;endArrow=oval;endFill=1;startArrow=oval;startFill=1;entryX=0.25;entryY=0;entryDx=0;entryDy=0;strokeColor=#98A2AE;" edge="1" parent="70vNNEtvRkJ1yF6m3qAn-7" target="70vNNEtvRkJ1yF6m3qAn-19">
          <mxGeometry relative="1" as="geometry">
            <mxPoint x="152.38095238095238" y="38.08500000000001" as="sourcePoint" />
            <mxPoint x="67.61904761904762" y="96.48199999999999" as="targetPoint" />
          </mxGeometry>
        </mxCell>
        <mxCell id="70vNNEtvRkJ1yF6m3qAn-34" style="rounded=0;orthogonalLoop=1;jettySize=auto;html=1;fontFamily=Manrope;fontSize=12;fontColor=#FFFFFF;endArrow=oval;endFill=1;startArrow=oval;startFill=1;entryX=0.25;entryY=0;entryDx=0;entryDy=0;strokeColor=#98A2AE;endSize=6;startSize=6;exitX=0.5;exitY=1;exitDx=0;exitDy=0;" edge="1" parent="70vNNEtvRkJ1yF6m3qAn-7" source="70vNNEtvRkJ1yF6m3qAn-28" target="70vNNEtvRkJ1yF6m3qAn-11">
          <mxGeometry relative="1" as="geometry">
            <mxPoint x="87.9365079365079" y="62.2055" as="sourcePoint" />
            <mxPoint x="53.26031746031742" y="82.51749999999997" as="targetPoint" />
          </mxGeometry>
        </mxCell>
        <mxCell id="70vNNEtvRkJ1yF6m3qAn-35" value="" style="group" vertex="1" connectable="0" parent="70vNNEtvRkJ1yF6m3qAn-7">
          <mxGeometry x="245.07936507936492" y="6.3474999999999975" width="31.746031746031747" height="31.7375" as="geometry" />
        </mxCell>
        <mxCell id="70vNNEtvRkJ1yF6m3qAn-36" value="" style="whiteSpace=wrap;html=1;aspect=fixed;fillColor=#001135;strokeColor=none;connectable=1;allowArrows=1;fontFamily=Manrope;fontSource=https%3A%2F%2Ffonts.googleapis.com%2Fcss%3Ffamily%3DManrope;" vertex="1" parent="70vNNEtvRkJ1yF6m3qAn-35">
          <mxGeometry width="31.736408566721575" height="31.736408566721575" as="geometry" />
        </mxCell>
        <mxCell id="70vNNEtvRkJ1yF6m3qAn-37" value="" style="endArrow=open;html=1;edgeStyle=orthogonalEdgeStyle;rounded=0;endFill=0;startSize=6;endSize=2;strokeColor=#FFFFFF;fontFamily=Manrope;fontSource=https%3A%2F%2Ffonts.googleapis.com%2Fcss%3Ffamily%3DManrope;" edge="1" parent="70vNNEtvRkJ1yF6m3qAn-35">
          <mxGeometry width="52.9100529100529" height="52.895833333333336" as="geometry">
            <mxPoint x="3.1746031746031758" y="12.694999999999995" as="sourcePoint" />
            <mxPoint x="11.640211640211643" y="3.1737499999999987" as="targetPoint" />
            <Array as="points">
              <mxPoint x="11.640211640211643" y="12.694999999999995" />
            </Array>
          </mxGeometry>
        </mxCell>
        <mxCell id="70vNNEtvRkJ1yF6m3qAn-38" value="" style="endArrow=open;html=1;edgeStyle=orthogonalEdgeStyle;rounded=0;endFill=0;startSize=6;endSize=2;strokeColor=#FFFFFF;fontFamily=Manrope;fontSource=https%3A%2F%2Ffonts.googleapis.com%2Fcss%3Ffamily%3DManrope;" edge="1" parent="70vNNEtvRkJ1yF6m3qAn-35">
          <mxGeometry width="52.9100529100529" height="52.895833333333336" as="geometry">
            <mxPoint x="11.640211640211643" y="28.56375" as="sourcePoint" />
            <mxPoint x="3.1746031746031758" y="20.100416666666668" as="targetPoint" />
            <Array as="points">
              <mxPoint x="11.640211640211643" y="20.100416666666668" />
            </Array>
          </mxGeometry>
        </mxCell>
        <mxCell id="70vNNEtvRkJ1yF6m3qAn-39" value="" style="endArrow=open;html=1;edgeStyle=orthogonalEdgeStyle;rounded=0;endFill=0;startSize=6;endSize=2;strokeColor=#FFFFFF;fontFamily=Manrope;fontSource=https%3A%2F%2Ffonts.googleapis.com%2Fcss%3Ffamily%3DManrope;" edge="1" parent="70vNNEtvRkJ1yF6m3qAn-35">
          <mxGeometry width="52.9100529100529" height="52.895833333333336" as="geometry">
            <mxPoint x="19.04761904761905" y="3.1737499999999987" as="sourcePoint" />
            <mxPoint x="28.571428571428566" y="12.694999999999995" as="targetPoint" />
            <Array as="points">
              <mxPoint x="19.04761904761905" y="12.694999999999995" />
            </Array>
          </mxGeometry>
        </mxCell>
        <mxCell id="70vNNEtvRkJ1yF6m3qAn-40" value="" style="endArrow=open;html=1;edgeStyle=orthogonalEdgeStyle;rounded=0;endFill=0;startSize=6;endSize=2;strokeColor=#FFFFFF;fontFamily=Manrope;fontSource=https%3A%2F%2Ffonts.googleapis.com%2Fcss%3Ffamily%3DManrope;" edge="1" parent="70vNNEtvRkJ1yF6m3qAn-35">
          <mxGeometry width="52.9100529100529" height="52.895833333333336" as="geometry">
            <mxPoint x="28.571428571428566" y="20.100416666666668" as="sourcePoint" />
            <mxPoint x="19.04761904761905" y="28.56375" as="targetPoint" />
            <Array as="points">
              <mxPoint x="19.04761904761905" y="20.100416666666668" />
            </Array>
          </mxGeometry>
        </mxCell>
        <mxCell id="70vNNEtvRkJ1yF6m3qAn-41" value="&lt;font color=&quot;#001135&quot; style=&quot;font-size: 9px&quot;&gt;spine2&lt;/font&gt;" style="text;html=1;align=center;verticalAlign=middle;resizable=0;points=[];autosize=1;fontSize=14;fontFamily=Manrope;fontColor=#FFFFFF;fontStyle=0" vertex="1" parent="70vNNEtvRkJ1yF6m3qAn-7">
          <mxGeometry x="283.0158730158729" y="12.694999999999995" width="40" height="20" as="geometry" />
        </mxCell>
        <mxCell id="70vNNEtvRkJ1yF6m3qAn-42" style="rounded=0;orthogonalLoop=1;jettySize=auto;html=1;fontFamily=Manrope;fontSize=12;fontColor=#FFFFFF;endArrow=oval;endFill=1;startArrow=oval;startFill=1;entryX=0.75;entryY=0;entryDx=0;entryDy=0;strokeColor=#98A2AE;endSize=6;startSize=6;exitX=0.5;exitY=1;exitDx=0;exitDy=0;" edge="1" parent="70vNNEtvRkJ1yF6m3qAn-7" source="70vNNEtvRkJ1yF6m3qAn-36" target="70vNNEtvRkJ1yF6m3qAn-11">
          <mxGeometry relative="1" as="geometry">
            <mxPoint x="70.7936507936508" y="62.2055" as="sourcePoint" />
            <mxPoint x="53.968253968254" y="90.76924999999996" as="targetPoint" />
          </mxGeometry>
        </mxCell>
        <mxCell id="70vNNEtvRkJ1yF6m3qAn-43" style="rounded=0;orthogonalLoop=1;jettySize=auto;html=1;fontFamily=Manrope;fontSize=12;fontColor=#FFFFFF;endArrow=oval;endFill=1;startArrow=oval;startFill=1;entryX=0.75;entryY=0;entryDx=0;entryDy=0;exitX=0.5;exitY=1;exitDx=0;exitDy=0;strokeColor=#98A2AE;" edge="1" parent="70vNNEtvRkJ1yF6m3qAn-7" source="70vNNEtvRkJ1yF6m3qAn-36" target="70vNNEtvRkJ1yF6m3qAn-19">
          <mxGeometry relative="1" as="geometry">
            <mxPoint x="86.66666666666663" y="62.2055" as="sourcePoint" />
            <mxPoint x="145.32063492063503" y="90.76924999999996" as="targetPoint" />
          </mxGeometry>
        </mxCell>
        <mxCell id="70vNNEtvRkJ1yF6m3qAn-44" value="" style="group" vertex="1" connectable="0" parent="70vNNEtvRkJ1yF6m3qAn-7">
          <mxGeometry x="241.2698412698413" y="90.13449999999996" width="31.746031746031747" height="31.7375" as="geometry" />
        </mxCell>
        <mxCell id="70vNNEtvRkJ1yF6m3qAn-45" value="" style="group" vertex="1" connectable="0" parent="70vNNEtvRkJ1yF6m3qAn-44">
          <mxGeometry width="31.746031746031747" height="31.7375" as="geometry" />
        </mxCell>
        <mxCell id="70vNNEtvRkJ1yF6m3qAn-46" value="" style="whiteSpace=wrap;html=1;aspect=fixed;fillColor=#001135;strokeColor=none;connectable=1;allowArrows=1;fontFamily=Manrope;fontSource=https%3A%2F%2Ffonts.googleapis.com%2Fcss%3Ffamily%3DManrope;" vertex="1" parent="70vNNEtvRkJ1yF6m3qAn-45">
          <mxGeometry width="31.736408566721575" height="31.736408566721575" as="geometry" />
        </mxCell>
        <mxCell id="70vNNEtvRkJ1yF6m3qAn-47" value="" style="endArrow=open;html=1;edgeStyle=orthogonalEdgeStyle;rounded=0;endFill=0;startSize=6;endSize=2;strokeColor=#FFFFFF;fontFamily=Manrope;fontSource=https%3A%2F%2Ffonts.googleapis.com%2Fcss%3Ffamily%3DManrope;" edge="1" parent="70vNNEtvRkJ1yF6m3qAn-45">
          <mxGeometry width="52.9100529100529" height="52.895833333333336" as="geometry">
            <mxPoint x="3.1746031746031758" y="12.694999999999995" as="sourcePoint" />
            <mxPoint x="11.640211640211643" y="3.1737499999999987" as="targetPoint" />
            <Array as="points">
              <mxPoint x="11.640211640211643" y="12.694999999999995" />
            </Array>
          </mxGeometry>
        </mxCell>
        <mxCell id="70vNNEtvRkJ1yF6m3qAn-48" value="" style="endArrow=open;html=1;edgeStyle=orthogonalEdgeStyle;rounded=0;endFill=0;startSize=6;endSize=2;strokeColor=#FFFFFF;fontFamily=Manrope;fontSource=https%3A%2F%2Ffonts.googleapis.com%2Fcss%3Ffamily%3DManrope;" edge="1" parent="70vNNEtvRkJ1yF6m3qAn-45">
          <mxGeometry width="52.9100529100529" height="52.895833333333336" as="geometry">
            <mxPoint x="11.640211640211643" y="28.56375" as="sourcePoint" />
            <mxPoint x="3.1746031746031758" y="20.100416666666668" as="targetPoint" />
            <Array as="points">
              <mxPoint x="11.640211640211643" y="20.100416666666668" />
            </Array>
          </mxGeometry>
        </mxCell>
        <mxCell id="70vNNEtvRkJ1yF6m3qAn-49" value="" style="endArrow=open;html=1;edgeStyle=orthogonalEdgeStyle;rounded=0;endFill=0;startSize=6;endSize=2;strokeColor=#FFFFFF;fontFamily=Manrope;fontSource=https%3A%2F%2Ffonts.googleapis.com%2Fcss%3Ffamily%3DManrope;" edge="1" parent="70vNNEtvRkJ1yF6m3qAn-45">
          <mxGeometry width="52.9100529100529" height="52.895833333333336" as="geometry">
            <mxPoint x="19.04761904761905" y="3.1737499999999987" as="sourcePoint" />
            <mxPoint x="28.571428571428566" y="12.694999999999995" as="targetPoint" />
            <Array as="points">
              <mxPoint x="19.04761904761905" y="12.694999999999995" />
            </Array>
          </mxGeometry>
        </mxCell>
        <mxCell id="70vNNEtvRkJ1yF6m3qAn-50" value="" style="endArrow=open;html=1;edgeStyle=orthogonalEdgeStyle;rounded=0;endFill=0;startSize=6;endSize=2;strokeColor=#FFFFFF;fontFamily=Manrope;fontSource=https%3A%2F%2Ffonts.googleapis.com%2Fcss%3Ffamily%3DManrope;" edge="1" parent="70vNNEtvRkJ1yF6m3qAn-45">
          <mxGeometry width="52.9100529100529" height="52.895833333333336" as="geometry">
            <mxPoint x="28.571428571428566" y="20.100416666666668" as="sourcePoint" />
            <mxPoint x="19.04761904761905" y="28.56375" as="targetPoint" />
            <Array as="points">
              <mxPoint x="19.04761904761905" y="20.100416666666668" />
            </Array>
          </mxGeometry>
        </mxCell>
        <mxCell id="70vNNEtvRkJ1yF6m3qAn-51" value="&lt;font color=&quot;#001135&quot; style=&quot;font-size: 9px&quot;&gt;leaf3&lt;/font&gt;" style="text;html=1;align=center;verticalAlign=middle;resizable=0;points=[];autosize=1;fontSize=14;fontFamily=Manrope;fontColor=#FFFFFF;fontStyle=0" vertex="1" parent="70vNNEtvRkJ1yF6m3qAn-7">
          <mxGeometry x="271.10825396825385" y="101.88323249999999" width="40" height="20" as="geometry" />
        </mxCell>
        <mxCell id="70vNNEtvRkJ1yF6m3qAn-52" value="" style="group" vertex="1" connectable="0" parent="70vNNEtvRkJ1yF6m3qAn-7">
          <mxGeometry x="311.1111111111111" y="90.13449999999996" width="31.746031746031747" height="31.7375" as="geometry" />
        </mxCell>
        <mxCell id="70vNNEtvRkJ1yF6m3qAn-53" value="" style="group" vertex="1" connectable="0" parent="70vNNEtvRkJ1yF6m3qAn-52">
          <mxGeometry width="31.746031746031747" height="31.7375" as="geometry" />
        </mxCell>
        <mxCell id="70vNNEtvRkJ1yF6m3qAn-54" value="" style="whiteSpace=wrap;html=1;aspect=fixed;fillColor=#001135;strokeColor=none;connectable=1;allowArrows=1;fontFamily=Manrope;fontSource=https%3A%2F%2Ffonts.googleapis.com%2Fcss%3Ffamily%3DManrope;" vertex="1" parent="70vNNEtvRkJ1yF6m3qAn-53">
          <mxGeometry width="31.736408566721575" height="31.736408566721575" as="geometry" />
        </mxCell>
        <mxCell id="70vNNEtvRkJ1yF6m3qAn-55" value="" style="endArrow=open;html=1;edgeStyle=orthogonalEdgeStyle;rounded=0;endFill=0;startSize=6;endSize=2;strokeColor=#FFFFFF;fontFamily=Manrope;fontSource=https%3A%2F%2Ffonts.googleapis.com%2Fcss%3Ffamily%3DManrope;" edge="1" parent="70vNNEtvRkJ1yF6m3qAn-53">
          <mxGeometry width="52.9100529100529" height="52.895833333333336" as="geometry">
            <mxPoint x="3.1746031746031758" y="12.694999999999995" as="sourcePoint" />
            <mxPoint x="11.640211640211643" y="3.1737499999999987" as="targetPoint" />
            <Array as="points">
              <mxPoint x="11.640211640211643" y="12.694999999999995" />
            </Array>
          </mxGeometry>
        </mxCell>
        <mxCell id="70vNNEtvRkJ1yF6m3qAn-56" value="" style="endArrow=open;html=1;edgeStyle=orthogonalEdgeStyle;rounded=0;endFill=0;startSize=6;endSize=2;strokeColor=#FFFFFF;fontFamily=Manrope;fontSource=https%3A%2F%2Ffonts.googleapis.com%2Fcss%3Ffamily%3DManrope;" edge="1" parent="70vNNEtvRkJ1yF6m3qAn-53">
          <mxGeometry width="52.9100529100529" height="52.895833333333336" as="geometry">
            <mxPoint x="11.640211640211643" y="28.56375" as="sourcePoint" />
            <mxPoint x="3.1746031746031758" y="20.100416666666668" as="targetPoint" />
            <Array as="points">
              <mxPoint x="11.640211640211643" y="20.100416666666668" />
            </Array>
          </mxGeometry>
        </mxCell>
        <mxCell id="70vNNEtvRkJ1yF6m3qAn-57" value="" style="endArrow=open;html=1;edgeStyle=orthogonalEdgeStyle;rounded=0;endFill=0;startSize=6;endSize=2;strokeColor=#FFFFFF;fontFamily=Manrope;fontSource=https%3A%2F%2Ffonts.googleapis.com%2Fcss%3Ffamily%3DManrope;" edge="1" parent="70vNNEtvRkJ1yF6m3qAn-53">
          <mxGeometry width="52.9100529100529" height="52.895833333333336" as="geometry">
            <mxPoint x="19.04761904761905" y="3.1737499999999987" as="sourcePoint" />
            <mxPoint x="28.571428571428566" y="12.694999999999995" as="targetPoint" />
            <Array as="points">
              <mxPoint x="19.04761904761905" y="12.694999999999995" />
            </Array>
          </mxGeometry>
        </mxCell>
        <mxCell id="70vNNEtvRkJ1yF6m3qAn-58" value="" style="endArrow=open;html=1;edgeStyle=orthogonalEdgeStyle;rounded=0;endFill=0;startSize=6;endSize=2;strokeColor=#FFFFFF;fontFamily=Manrope;fontSource=https%3A%2F%2Ffonts.googleapis.com%2Fcss%3Ffamily%3DManrope;" edge="1" parent="70vNNEtvRkJ1yF6m3qAn-53">
          <mxGeometry width="52.9100529100529" height="52.895833333333336" as="geometry">
            <mxPoint x="28.571428571428566" y="20.100416666666668" as="sourcePoint" />
            <mxPoint x="19.04761904761905" y="28.56375" as="targetPoint" />
            <Array as="points">
              <mxPoint x="19.04761904761905" y="20.100416666666668" />
            </Array>
          </mxGeometry>
        </mxCell>
        <mxCell id="70vNNEtvRkJ1yF6m3qAn-59" value="&lt;font color=&quot;#001135&quot; style=&quot;font-size: 9px&quot;&gt;leaf4&lt;/font&gt;" style="text;html=1;align=center;verticalAlign=middle;resizable=0;points=[];autosize=1;fontSize=14;fontFamily=Manrope;fontColor=#FFFFFF;fontStyle=0" vertex="1" parent="70vNNEtvRkJ1yF6m3qAn-7">
          <mxGeometry x="342.85634920634874" y="101.87848249999996" width="40" height="20" as="geometry" />
        </mxCell>
        <mxCell id="70vNNEtvRkJ1yF6m3qAn-60" style="rounded=0;orthogonalLoop=1;jettySize=auto;html=1;fontFamily=Manrope;fontSize=12;fontColor=#FFFFFF;endArrow=oval;endFill=1;startArrow=oval;startFill=1;entryX=0.25;entryY=0;entryDx=0;entryDy=0;strokeColor=#98A2AE;exitX=0.5;exitY=1;exitDx=0;exitDy=0;" edge="1" parent="70vNNEtvRkJ1yF6m3qAn-7" source="70vNNEtvRkJ1yF6m3qAn-28" target="70vNNEtvRkJ1yF6m3qAn-54">
          <mxGeometry relative="1" as="geometry">
            <mxPoint x="200.63492063492072" y="31.7375" as="sourcePoint" />
            <mxPoint x="271.42857142857133" y="95.21249999999998" as="targetPoint" />
          </mxGeometry>
        </mxCell>
        <mxCell id="70vNNEtvRkJ1yF6m3qAn-61" style="rounded=0;orthogonalLoop=1;jettySize=auto;html=1;fontFamily=Manrope;fontSize=12;fontColor=#FFFFFF;endArrow=oval;endFill=1;startArrow=oval;startFill=1;entryX=0.25;entryY=0;entryDx=0;entryDy=0;strokeColor=#98A2AE;endSize=6;startSize=6;exitX=0.5;exitY=1;exitDx=0;exitDy=0;" edge="1" parent="70vNNEtvRkJ1yF6m3qAn-7" source="70vNNEtvRkJ1yF6m3qAn-28" target="70vNNEtvRkJ1yF6m3qAn-46">
          <mxGeometry relative="1" as="geometry">
            <mxPoint x="162.53968253968253" y="38.08500000000001" as="sourcePoint" />
            <mxPoint x="257.0698412698411" y="81.248" as="targetPoint" />
          </mxGeometry>
        </mxCell>
        <mxCell id="70vNNEtvRkJ1yF6m3qAn-62" style="rounded=0;orthogonalLoop=1;jettySize=auto;html=1;fontFamily=Manrope;fontSize=12;fontColor=#FFFFFF;endArrow=oval;endFill=1;startArrow=oval;startFill=1;entryX=0.75;entryY=0;entryDx=0;entryDy=0;strokeColor=#98A2AE;endSize=6;startSize=6;exitX=0.5;exitY=1;exitDx=0;exitDy=0;" edge="1" parent="70vNNEtvRkJ1yF6m3qAn-7" source="70vNNEtvRkJ1yF6m3qAn-36" target="70vNNEtvRkJ1yF6m3qAn-46">
          <mxGeometry relative="1" as="geometry">
            <mxPoint x="337.4603174603174" y="61.57075000000001" as="sourcePoint" />
            <mxPoint x="257.7777777777777" y="89.49975000000002" as="targetPoint" />
          </mxGeometry>
        </mxCell>
        <mxCell id="70vNNEtvRkJ1yF6m3qAn-63" style="rounded=0;orthogonalLoop=1;jettySize=auto;html=1;fontFamily=Manrope;fontSize=12;fontColor=#FFFFFF;endArrow=oval;endFill=1;startArrow=oval;startFill=1;entryX=0.75;entryY=0;entryDx=0;entryDy=0;exitX=0.5;exitY=1;exitDx=0;exitDy=0;strokeColor=#98A2AE;" edge="1" parent="70vNNEtvRkJ1yF6m3qAn-7" source="70vNNEtvRkJ1yF6m3qAn-36" target="70vNNEtvRkJ1yF6m3qAn-54">
          <mxGeometry relative="1" as="geometry">
            <mxPoint x="353.3333333333334" y="61.57075000000001" as="sourcePoint" />
            <mxPoint x="349.1301587301584" y="89.49975000000002" as="targetPoint" />
          </mxGeometry>
        </mxCell>
        <mxCell id="70vNNEtvRkJ1yF6m3qAn-64" value="&lt;font style=&quot;font-size: 9px&quot;&gt;Docker Daemon&lt;/font&gt;" style="rounded=1;whiteSpace=wrap;html=1;fontFamily=Manrope;fontSource=https%3A%2F%2Ffonts.googleapis.com%2Fcss%3Ffamily%3DManrope;labelBackgroundColor=none;fillColor=#dae8fc;strokeColor=#6c8ebf;" vertex="1" parent="70vNNEtvRkJ1yF6m3qAn-7">
          <mxGeometry width="76.19047619047619" height="25.38999999999999" as="geometry" />
        </mxCell>
        <mxCell id="70vNNEtvRkJ1yF6m3qAn-65" value="" style="endArrow=classic;startArrow=classic;html=1;fontFamily=Manrope;fontSource=https%3A%2F%2Ffonts.googleapis.com%2Fcss%3Ffamily%3DManrope;entryX=0.5;entryY=1;entryDx=0;entryDy=0;exitX=0.5;exitY=0;exitDx=0;exitDy=0;" edge="1" parent="gBTGp2xAHOtJdxLIhFSI-1" source="70vNNEtvRkJ1yF6m3qAn-8" target="70vNNEtvRkJ1yF6m3qAn-3">
          <mxGeometry width="50" height="50" relative="1" as="geometry">
            <mxPoint x="340" y="260" as="sourcePoint" />
            <mxPoint x="390" y="210" as="targetPoint" />
          </mxGeometry>
        </mxCell>
        <mxCell id="70vNNEtvRkJ1yF6m3qAn-66" value="gNMI" style="text;html=1;strokeColor=none;fillColor=none;align=center;verticalAlign=middle;whiteSpace=wrap;rounded=0;labelBackgroundColor=none;fontFamily=Manrope;fontSource=https%3A%2F%2Ffonts.googleapis.com%2Fcss%3Ffamily%3DManrope;" vertex="1" parent="gBTGp2xAHOtJdxLIhFSI-1">
          <mxGeometry x="458" y="170" width="40" height="20" as="geometry" />
        </mxCell>
        <mxCell id="70vNNEtvRkJ1yF6m3qAn-67" value="" style="shape=image;verticalLabelPosition=bottom;labelBackgroundColor=#ffffff;verticalAlign=top;aspect=fixed;imageAspect=0;image=data:image/svg+xml,PHN2ZyB4bWxucz0iaHR0cDovL3d3dy53My5vcmcvMjAwMC9zdmciIHhtbG5zOnhsaW5rPSJodHRwOi8vd3d3LnczLm9yZy8xOTk5L3hsaW5rIiB2aWV3Qm94PSIwIDAgNzkgODEiIGZpbGw9IiNmZmYiIGZpbGwtcnVsZT0iZXZlbm9kZCIgc3Ryb2tlPSIjMDAwIiBzdHJva2UtbGluZWNhcD0icm91bmQiIHN0cm9rZS1saW5lam9pbj0icm91bmQiPjx1c2UgeGxpbms6aHJlZj0iI0EiIHg9Ii41IiB5PSIuNSIvPjxzeW1ib2wgaWQ9IkEiIG92ZXJmbG93PSJ2aXNpYmxlIj48ZyBzdHJva2U9Im5vbmUiIGZpbGwtcnVsZT0ibm9uemVybyI+PHBhdGggZD0iTTI0LjY4NiA3Ny4zMTRjLTIuMTEyLTIuODk3LTEuNDQ4LTYuODggMS40NDgtOC45OTIuNjA0LS40MjIgMS4yNjctLjcyNCAxLjkzLS45NjZsLjEyLTIuNDE0Yy0xLjU3LS42NjQtMi44MzYtMi4zNTQtMi45NTctNC4wNDNsLTIuMzU0LS42MDNjLS40MjIuNjAzLS45MDUgMS4wODYtMS41MSAxLjUxLTIuODk3IDIuMTEyLTYuOTQgMS40NDgtOC45OTItMS40NDgtMi4xMTItMi44OTctMS40NDgtNi44OCAxLjQ0OC04Ljk5MnM2Ljg4LTEuNDQ4IDguOTkyIDEuNDQ4Yy41NDMuNzg1Ljk2NiAxLjcgMS4xNDcgMi41OTVsNC4xMDQgMS4wODZjMS4wODYtLjQyMiAyLjI5My0uNDgzIDMuMzgtLjA2bDIuMzU0LTEuN2MtLjYwNC0yLjQ3NC4zNjItNS4yIDIuNDc0LTYuNyAyLjg5Ny0yLjExMiA2Ljk0LTEuNDQ4IDguOTkyIDEuNDQ4IDIuMTEyIDIuODM2IDEuNDQ4IDYuODgtMS40NDggOC45OTItMi4xMTIgMS41MS00Ljk1IDEuNjMtNy4xMi4zMDJsLTIuMzU0IDEuN2MuMDYgMS4xNDctLjM2MiAyLjI5My0xLjA4NiAzLjJsLS4yNCA0LjIyNGMuODQ1LjQ4MyAxLjU3IDEuMDg2IDIuMTEyIDEuODcgMi4wNTIgMi44OTcgMS40NDggNi44OC0xLjQ0OCA4Ljk5Mi0yLjgzNiAyLjExMi02Ljg4IDEuNDQ4LTguOTkyLTEuNDQ4aDB6IiBmaWxsPSIjMDY5MGJhIi8+PHBhdGggZD0iTTMzLjY4IDcwLjc5N2MtLjY2NC0uOTA1LTEuNTctMS41MS0yLjUzNS0xLjc1bC4zNjItNi4xNTZjLjk2Ni0uNzg1IDEuMzI4LTIuMDUyLjkwNS0zLjJsNC4zNDUtMy4xMzhhNC42IDQuNiAwIDAgMCA2LjAzNS40ODNjMi4xMTItMS41MSAyLjUzNS00LjQwNSAxLjAyNi02LjUxOC0xLjUxLTIuMDUyLTQuNDA1LTIuNTM1LTYuNTE4LTEuMDI2LTEuODcgMS4zODgtMi40NzQgMy45MjMtMS4zODggNS45MTRsLTQuNDA1IDMuMTM4Yy0uOTA1LS43ODUtMi4yMzMtLjg0NS0zLjMyLS4xOGwtNS45NzUtMS41N2MuMDYtMS4wMjYtLjI0LTIuMTEyLS44NDUtMi45NTctMS41MS0yLjA1Mi00LjQ2Ni0yLjUzNS02LjUxOC0xLjAyNi0yLjExMiAxLjUxLTIuNTM1IDQuNDA1LTEuMDI2IDYuNTE4czQuNDA2IDIuNTM1IDYuNTE4IDEuMDI2Yy43ODUtLjYwMyAxLjMyOC0xLjMyOCAxLjYzLTIuMTczbDUuMjUgMS4zODhjLS40MjIuODQ1LS4zMDIgMS45My4zMDIgMi43MTYuNjA0Ljg0NSAxLjU3IDEuMjA3IDIuNTM1IDEuMTQ3bC0uMzAyIDUuNDNjLS45MDUgMC0xLjguMzAyLTIuNTk1LjkwNS0yLjA1MiAxLjUxLTIuNTM1IDQuNDA2LTEuMDI2IDYuNTE4czQuNDA2IDIuNTM1IDYuNTE4IDEuMDI2IDIuNTM1LTQuNDA1IDEuMDI2LTYuNTE4aDB6bTQuNzY4LTE5LjY3NGMxLjIwNy0uODQ1IDIuODM2LS42MDQgMy42OC42MDNzLjYwMyAyLjgzNi0uNjAzIDMuNjhjLS45NjYuNzI0LTIuMjkzLjY2NC0zLjItLjA2bC43ODUtLjYwM2MuNTQzLjMwMiAxLjMyOC4zMDIgMS44Ny0uMTIuNzg1LS41NDMuOTY2LTEuNjMuMzYyLTIuNDE0LS41NDMtLjc4NS0xLjYzLS45NjYtMi40MTQtLjM2Mi0uNTQzLjQyMi0uNzg1IDEuMDg2LS42NjQgMS43NWwtLjc4NS42MDNhMi43OCAyLjc4IDAgMCAxIC45NjYtMy4wNzhoMHptLTE5LjE5IDcuNzI1Yy0xLjI2Ny45MDUtMy4wMTcuNjAzLTMuOTIzLS42NjRzLS42MDQtMy4wMTcuNjY0LTMuOTIzIDMuMDE3LS42MDMgMy45MjMuNjAzYy4zMDIuNDIyLjQ4My45MDUuNTQzIDEuMzg4bC0uOTY2LS4yNGMtLjA2LS4xOC0uMTItLjQyMi0uMzAyLS42MDMtLjYwMy0uODQ1LTEuOC0xLjAyNi0yLjY1NS0uNDIycy0xLjAyNiAxLjgtLjQyMiAyLjY1NSAxLjggMS4wMjYgMi42NTUuNDIyYy4yNC0uMTguNDIyLS40MjIuNTQzLS42NjRsLjkwNS4yNGMtLjI0LjQ4My0uNTQzLjkwNS0uOTY2IDEuMjA3aDB6bTguMzkgMTYuMzU1Yy0uOTA1LTEuMjY3LS42MDMtMy4wMTcuNjA0LTMuOTIzLjQyMi0uMzAyLjkwNS0uNDgzIDEuMzg4LS41NDNsLS4wNi45NjZjLS4zMDIuMDYtLjU0My4xMi0uNzg1LjMwMi0uODQ1LjYwMy0xLjAyNiAxLjgtLjQyMiAyLjY1NXMxLjggMS4wMjYgMi42NTUuNDIyIDEuMDI2LTEuOC40MjItMi42NTVjLS4xMi0uMTgtLjMwMi0uMzAyLS40ODMtLjQyMmwuMDYtMS4wMjZhMi43NCAyLjc0IDAgMCAxIDEuMTQ3LjkwNWMuOTA1IDEuMjY3LjYwNCAzLjAxNy0uNjY0IDMuOTIzLTEuMjA3Ljk2Ni0yLjk1Ny42NjQtMy44NjItLjYwM2gweiIgZmlsbD0iI2MzZThmMiIvPjxwYXRoIGQ9Ik03Mi4xMiA2Ny41MzhjLTMuMzggMS4wODYtNy0uNzg1LTguMDg3LTQuMTY0LS4yNC0uNzI0LS4zMDItMS4zODgtLjMwMi0yLjExMmwtMi4yOTMtLjg0NWMtMS4wODYgMS4zMjgtMy4xMzggMS45My00Ljc2OCAxLjUxbC0xLjMyOCAyLjA1MmMuNDIyLjU0My43ODUgMS4yMDcuOTY2IDEuOTMgMS4wODYgMy4zOC0uNzg1IDctNC4xNjQgOC4xNDctMy4zOCAxLjA4Ni03LS43ODUtOC4wODctNC4xNjRzLjc4NS03IDQuMTY0LTguMDg3Yy45MDUtLjMwMiAxLjg3LS4zNjIgMi44MzYtLjI0bDIuMjkzLTMuNTZjLS4wNi0xLjE0Ny4yNC0yLjI5MyAxLjAyNi0zLjJsLS45MDUtMi43NzZjLTIuNTM1LS4xOC00Ljc2OC0xLjk5Mi01LjYxMi00LjQwNS0xLjA4Ni0zLjM4Ljc4NS03IDQuMTY0LTguMDg3czcgLjc4NSA4LjA4NyA0LjE2NGMuNzg1IDIuNDc0IDAgNS4yLTEuOTMgNi44OGwuOTA1IDIuNzc2YzEuMTQ3LjMwMiAyLjExMiAxLjAyNiAyLjcxNiAyLjA1MmwyLjg5NyAxLjM4OGMuNzI0LS42NjQgMi41OTUtMS4wMjYgMy41LTEuMzI4IDMuMzgtMS4wODYgNyAuNzg1IDguMTQ3IDQuMTY0IDEuMDI2IDMuMi0uODQ1IDYuODItNC4yMjQgNy45MDZoMHoiIGZpbGw9IiMwNjkwYmEiLz48cGF0aCBkPSJNNjguNjggNTYuOTc3Yy0xLjAyNi4zNjItMS45MyAxLjAyNi0yLjQ3NCAxLjg3bC01Ljc5NC0yLjIzM2MtLjQyMi0xLjE0Ny0xLjU3LTEuODctMi43NzYtMS44bC0xLjYzLTUuMDdjMi4wNTItMS4wMjYgMy4wNzgtMy4zOCAyLjM1NC01LjYxMi0uNzg1LTIuNDc0LTMuNDQtMy44MDItNS44NTQtMy4wMTdzLTMuODAyIDMuNDQtMy4wMTcgNS44NTRjLjcyNCAyLjIzMyAyLjk1NyAzLjU2IDUuMiAzLjEzOGwxLjYzIDUuMTNhMi42OSAyLjY5IDAgMCAwLTEuMTQ3IDMuMDc4bC0zLjM4IDUuMmMtLjk2Ni0uMzYyLTIuMDUyLS40MjItMy4wNzgtLjEyLTIuNDc0Ljc4NS0zLjgwMiAzLjQ0LTMuMDE3IDUuODU0Ljc4NSAyLjQ3NCAzLjQ0IDMuODAyIDUuODU0IDMuMDE3IDIuNDc0LS43ODUgMy44MDItMy40NCAzLjAxNy01Ljg1NC0uMzAyLS45MDUtLjg0NS0xLjctMS41Ny0yLjIzM2wyLjk1Ny00LjU4N2EyLjc4IDIuNzggMCAwIDAgMi43MTYuNjAzYy45NjYtLjMwMiAxLjYzLTEuMDg2IDEuODctMi4wNTJsNS4wNyAxLjk5MmE0LjY0IDQuNjQgMCAwIDAgLjA2IDIuNzE2Yy43ODUgMi40NzQgMy40NCAzLjgwMiA1Ljg1NCAzLjAxNyAyLjQ3NC0uNzg1IDMuODAyLTMuNDQgMy4wMTctNS44NTQtLjc4NS0yLjQ3NC0zLjM4LTMuODAyLTUuODU0LTMuMDE3aDB6bS0xNy4yLTEwLjYyYy0uNDIyLTEuMzg4LjMwMi0yLjg5NyAxLjctMy4zMiAxLjM4OC0uNDgzIDIuODk3LjMwMiAzLjMyIDEuNy4zNjIgMS4xNDctLjEyIDIuNDE0LTEuMDg2IDMuMDE3bC0uMzAyLS45MDVjLjQ4My0uNDIyLjcyNC0xLjE0Ny40ODMtMS44YTEuNzEgMS43MSAwIDAgMC0zLjI1OSAxLjA4NiAxLjg1IDEuODUgMCAwIDAgMS40NDggMS4yMDdsLjMwMi45NjZjLTEuMTQ3LS4wNi0yLjIzMy0uNzg1LTIuNTk1LTEuOTNoMHptMS4zODggMjAuNjRjLjQ4MyAxLjUxLS4zNjIgMy4wNzgtMS44IDMuNTYtMS41MS40ODMtMy4wNzgtLjM2Mi0zLjU2LTEuOHMuMzYyLTMuMDc4IDEuOC0zLjU2Yy40ODMtLjE4IDEuMDI2LS4xOCAxLjUxLS4wNmwtLjU0My44NDVjLS4xOCAwLS40MjIgMC0uNjY0LjA2LS45NjYuMzAyLTEuNTEgMS4zODgtMS4yMDcgMi40MTQuMzAyLjk2NiAxLjM4OCAxLjUxIDIuNDE0IDEuMjA3Ljk2Ni0uMzAyIDEuNTEtMS4zODggMS4yMDctMi4zNTQtLjEyLS4zMDItLjI0LS41NDMtLjQ4My0uNzI0bC41NDMtLjc4NWMuMzAyLjMwMi42MDMuNzI0Ljc4NSAxLjIwN2gwem0xOC4xMDUtMi44OTdjLTEuNTEuNDgzLTMuMDc4LS4zNjItMy41Ni0xLjgtLjE4LS40ODMtLjE4LTEuMDI2LS4wNi0xLjUxbC45MDUuMzYyYy0uMDYuMzAyLS4wNi42MDMuMDYuODQ1LjMwMiAxLjAyNiAxLjM4OCAxLjUxIDIuNDE0IDEuMjA3czEuNTctMS4zODggMS4yMDctMi40MTRjLS4zMDItLjk2Ni0xLjM4OC0xLjUxLTIuNDE0LTEuMjA3LS4xOC4wNi0uNDIyLjE4LS41NDMuMzAybC0uOTY2LS4zNjJjLjMwMi0uMzYyLjcyNC0uNjY0IDEuMjY3LS44NDUgMS41MS0uNDgzIDMuMDc4LjM2MiAzLjU2IDEuOC40MjIgMS41Ny0uMzYyIDMuMTM4LTEuODcgMy42MmgweiIgZmlsbD0iI2MzZThmMiIvPjxwYXRoIGQ9Ik03NyAxOS45MjJjMCAzLjU2LTIuODk3IDYuNDU3LTYuNDU3IDYuNDU3LS43MjQgMC0xLjQ0OC0uMTItMy4yLS40ODNsLTEuNTEgMS44N2MxLjkzIDEuNTcgMS45MyAzLjY4IDEuMDI2IDUuMTNsMS41MSAxLjg3Yy42NjQtLjI0IDEuMzg4LS4zNjIgMi4xMTItLjM2MiAzLjU2IDAgNi40NTcgMi44OTcgNi40NTcgNi40NTdzLTIuODk3IDYuNDU3LTYuNDU3IDYuNDU3LTYuNDU3LTIuODk3LTYuNDU3LTYuNDU3YzAtLjk2Ni4yNC0xLjkzLjYwMy0yLjc3NmwtMi42NTUtMy4yNmMtMS4xNDctLjMwMi0yLjExMi0uOTY2LTIuNzc2LTEuOTNINTYuM2MtLjg0NSAyLjM1NC0zLjIgMy45MjMtNS43OTQgMy45MjMtMy41NiAwLTYuNDU3LTIuODk3LTYuNDU3LTYuNDU3czIuODk3LTYuNDU3IDYuNDU3LTYuMzk3YTYuNDYgNi40NiAwIDAgMSA1LjkxNCAzLjk4M2gyLjg5N2MuNjY0LS45NjYgMS42My0xLjcgMi43NzYtMS45M2wyLjY1NS0zLjI2Yy0uNDIyLS44NDUtLjYwNC0xLjgtLjYwNC0yLjc3NiAwLTMuNTYgMi44OTctNi40NTcgNi40NTctNi40NTdTNzcgMTYuNDIyIDc3IDE5LjkyMmgweiIgZmlsbD0iIzA2OTBiYSIvPjxwYXRoIGQ9Ik02NS45MDUgMTkuOTIyYzAgMS4wODYuMzYyIDIuMTEyIDEuMDI2IDIuODk3bC0zLjkyMyA0Ljc2OGMtMS4yMDcuMDYtMi4yOTMuOTA1LTIuNTk1IDIuMDUyaC01LjM3Yy0uMzYyLTIuMjMzLTIuMjkzLTMuOTgzLTQuNTg3LTMuOTgzYTQuNjEgNC42MSAwIDAgMC00LjY0NyA0LjY0NyA0LjY1IDQuNjUgMCAwIDAgNC42NDcgNC42NDdjMi4zNTQgMCA0LjI4NS0xLjc1IDQuNjQ3LTMuOTgzaDUuMzdjLjMwMiAxLjE0NyAxLjMyOCAxLjk5MiAyLjU5NSAyLjA1MmwzLjkyMyA0Ljc2OGMtLjY2NC43ODUtMS4wMjYgMS44LTEuMDI2IDIuODk3YTQuNjUgNC42NSAwIDAgMCA0LjY0NyA0LjY0NyA0LjY1IDQuNjUgMCAwIDAgNC42NDctNC42NDcgNC42MSA0LjYxIDAgMCAwLTQuNjQ3LTQuNjQ3IDQuNyA0LjcgMCAwIDAtMi41OTUuNzg1bC0zLjQ0LTQuMjI0Yy44NDUtLjQ4MyAxLjM4OC0xLjM4OCAxLjM4OC0yLjM1NCAwLTEuMDI2LS41NDMtMS45My0xLjM4OC0yLjQxNGwzLjQ0LTQuMjI0YTQuNyA0LjcgMCAwIDAgMi41OTUuNzg1IDQuNjUgNC42NSAwIDAgMCA0LjY0Ny00LjY0NyA0LjY1IDQuNjUgMCAwIDAtNC42NDctNC42NDdjLTIuNTk1LjE4LTQuNzA3IDIuMjkzLTQuNzA3IDQuODI4aDB6bS0xNS4zOSAxMy4wOTZhMi42OCAyLjY4IDAgMCAxLTIuNjU1LTIuNjU1IDIuNjggMi42OCAwIDAgMSAyLjY1NS0yLjY1NWMxLjIwNyAwIDIuMjMzLjg0NSAyLjUzNSAxLjkzaC0uOTY2Yy0uMjQtLjYwMy0uODQ1LTEuMDI2LTEuNTctMS4wMjYtLjk2NiAwLTEuNy43ODUtMS43IDEuNyAwIC45NjYuNzg1IDEuNzUgMS43IDEuNzUuNzI0IDAgMS4zMjgtLjQyMiAxLjU3LTEuMDI2aC45NjZjLS4zMDIgMS4yMDctMS4zMjggMS45OTItMi41MzUgMS45OTJoMHptMjAuMDM2IDUuMDdjMS41NyAwIDIuODM2IDEuMjY3IDIuODM2IDIuODM2cy0xLjI2NyAyLjgzNi0yLjgzNiAyLjgzNi0yLjgzNi0xLjI2Ny0yLjgzNi0yLjgzNmMwLS41NDMuMTgtMS4wMjYuNDIyLTEuNDQ4bC42NjQuNzg1YTIuMTcgMi4xNyAwIDAgMC0uMTIxLjY2NCAxLjg4IDEuODggMCAwIDAgMS44NzEgMS44NzEgMS44OCAxLjg4IDAgMCAwIDEuODcxLTEuODcxIDEuODggMS44OCAwIDAgMC0xLjg3MS0xLjg3MWMtLjMwMiAwLS42MDMuMDYtLjg0NS4xOGwtLjYwNC0uNzI0Yy40MjItLjMwMi45NjYtLjQyMiAxLjQ0OC0uNDIyaDB6bTIuODM2LTE4LjE2NWMwIDEuNTctMS4yNjcgMi44MzYtMi44MzYgMi44MzYtLjU0MyAwLTEuMDI2LS4xMi0xLjQ0OC0uNDIybC42MDQtLjcyNGMuMjQuMTIuNTQzLjE4Ljg0NS4yNGExLjg4IDEuODggMCAwIDAgMS44NzEtMS44NzEgMS44OCAxLjg4IDAgMCAwLTEuODcxLTEuODcxIDEuODggMS44OCAwIDAgMC0xLjg3MSAxLjg3MWMwIC4yNC4wNi40MjIuMTIuNjAzbC0uNjY0Ljc4NWMtLjI0LS40MjItLjQyMi0uOTA1LS40MjItMS40NDggMC0xLjU3IDEuMjY3LTIuODM2IDIuODM2LTIuODM2IDEuNTcuMDYgMi44MzYgMS4yNjcgMi44MzYgMi44MzZoMHoiIGZpbGw9IiNjM2U4ZjIiLz48cGF0aCBkPSJNMzMuMjU2LjMxYTYuNDIgNi40MiAwIDAgMSA0LjEwNCA4LjE0N2MtLjI0LjcyNC0uNTQzIDEuMzI4LTEuMDI2IDEuOTNsMS4zMjggMi4wNTJjMS43LS40MjIgMy42OC4yNCA0Ljc2OCAxLjU3bDIuMjkzLS44NDVjMC0uNzI0LjEyLTEuNDQ4LjMwMi0yLjExMmE2LjQyIDYuNDIgMCAwIDEgOC4xNDctNC4xMDRjMy4zOCAxLjA4NiA1LjI1IDQuNzA3IDQuMTA0IDguMTQ3YTYuNDIgNi40MiAwIDAgMS04LjE0NyA0LjEwNGMtLjkwNS0uMzAyLTEuNzUtLjc4NS0yLjQxNC0xLjQ0OGwtMy45MjMgMS41MWMtLjYwNC45NjYtMS41NyAxLjc1LTIuNzE2IDIuMDUybC0uOTA1IDIuNzc2YzEuOTMgMS43IDIuNzE2IDQuNDA2IDEuOTMgNi44OGE2LjQyIDYuNDIgMCAwIDEtOC4xNDcgNC4xMDRjLTMuMzItMS4yNjctNS4yLTQuODg4LTQuMTA0LTguMjY4Ljc4NS0yLjQ3NCAzLjA3OC00LjIyNCA1LjYxMi00LjQwNWwuOTA1LTIuNzc2Yy0uNzI0LS45MDUtMS4wODYtMi4wNTItLjk2Ni0zLjI2TDMyLjExIDEyLjhjLS45NjYuMTItMS45My4wNi0yLjgzNi0uMjQtMy4zOC0xLjA4Ni01LjI1LTQuNzA3LTQuMTY0LTguMDg3IDEuMTQ3LTMuMzggNC43NjgtNS4yNSA4LjE0Ny00LjE2NGgweiIgZmlsbD0iIzA2OTBiYSIvPjxwYXRoIGQ9Ik0yOS44MTcgMTAuODdjMS4wMjYuMzYyIDIuMTEyLjMwMiAzLjA3OC0uMDZsMy4zMiA1LjJjLS4zNjIgMS4yMDcuMTggMi40MTQgMS4xNDcgMy4wNzhsLTEuNyA1LjA3Yy0yLjIzMy0uMzYyLTQuNDY2LjkwNS01LjIgMy4xMzgtLjc4NSAyLjQ3NC41NDMgNS4wNyAyLjk1NyA1LjkxNCAyLjQxNC43ODUgNS4wNy0uNTQzIDUuOTE0LTIuOTU3LjcyNC0yLjIzMy0uMzAyLTQuNTg3LTIuMzU0LTUuNjEybDEuNy01LjA3YzEuMjA3LjA2IDIuMzU0LS42NjQgMi43NzYtMS44bDUuNzk0LTIuMjMzYy41NDMuODQ1IDEuMzg4IDEuNTcgMi40NzQgMS44NyAyLjQ3NC43ODUgNS4wNy0uNTQzIDUuOTE0LTMuMDE3Ljc4NS0yLjQ3NC0uNTQzLTUuMDctMy4wMTctNS45MTQtMi40NzQtLjc4NS01LjA3LjU0My01LjkxNCAyLjk1N2E0LjY0IDQuNjQgMCAwIDAtLjA2IDIuNzE2bC01LjA3IDEuOTkyYy0uMTgtLjkwNS0uODQ1LTEuNzUtMS44LTIuMDUyYTIuOTEgMi45MSAwIDAgMC0yLjcxNi41NDNMMzQuMSAxMC4wMjVjLjcyNC0uNTQzIDEuMjY3LTEuMzI4IDEuNTctMi4yMzMuNzg1LTIuNDc0LS41NDMtNS4wNy0zLjAxNy01Ljg1NHMtNS4wNy41NDMtNS44NTQgMy4wMTcuNTQzIDUuMTMgMy4wMTcgNS45MTRoMHptNy42NjQgMTguNzdjLS40ODMgMS4zODgtMS45MyAyLjE3My0zLjMyIDEuN3MtMi4xNzMtMS45My0xLjctMy4zMmMuMzYyLTEuMTQ3IDEuNTEtMS44NyAyLjY1NS0xLjhsLS4zMDIuOTA1Yy0uNjY0LjA2LTEuMjA3LjU0My0xLjQ0OCAxLjE0N2ExLjcxIDEuNzEgMCAwIDAgMy4yNTkgMS4wODZjLjI0LS42NjQgMC0xLjM4OC0uNDgzLTEuOGwuMzAyLS45NjZjLjk2Ni42NjQgMS40NDggMS44NyAxLjAyNiAzLjA3OGgwem0xMC45ODQtMTcuNTYyYy40ODMtMS41MSAyLjA1Mi0yLjI5MyAzLjU2LTEuOCAxLjQ0OC40ODMgMi4yOTMgMi4xMTIgMS44IDMuNTZzLTIuMDUyIDIuMjkzLTMuNTYgMS44Yy0uNDgzLS4xOC0uOTA1LS40ODMtMS4yMDctLjg0NWwuOTY2LS4zNjJjLjE4LjEyLjM2Mi4yNC42MDMuMzAyLjk2Ni4zMDIgMi4wNTItLjI0IDIuMzU0LTEuMjA3cy0uMjQtMi4wNTItMS4yMDctMi4zNTQtMi4wNTIuMjQtMi40MTQgMS4yMDdjLS4wNi4zMDItLjEyLjYwMy0uMDYuODQ1bC0uOTA1LjM2MmMtLjA2LS40ODMtLjA2LTEuMDI2LjA2LTEuNTFoMHpNMzIuMSAzLjc1YzEuNTEuNDgzIDIuMjkzIDIuMDUyIDEuOCAzLjU2LS4xOC40ODMtLjQyMi45MDUtLjg0NSAxLjI2N2wtLjQ4My0uNzg1YTIuMTcgMi4xNyAwIDAgMCAuNDgzLS43MjRjLjMwMi0xLjAyNi0uMjQtMi4wNTItMS4yMDctMi40MTQtLjk2Ni0uMzAyLTIuMDUyLjI0LTIuNDE0IDEuMjA3LS4zMDIuOTY2LjI0IDIuMDUyIDEuMjA3IDIuMzU0LjE4LjA2LjQyMi4xMi42MDQuMDZsLjU0My44NDVjLS40ODMuMTItLjk2Ni4xMi0xLjUxLS4wNi0xLjUxLS40ODMtMi4yOTMtMi4wNTItMS44LTMuNTYuNTQzLTEuMzg4IDIuMTczLTIuMjMzIDMuNjItMS43NWgweiIgZmlsbD0iI2MzZThmMiIvPjxwYXRoIGQ9Ik0xMC4yMDMgMzQuMjg1Yy42MDMuNDIyIDEuMDg2Ljk2NiAxLjUxIDEuNTdsMi4zNTQtLjYwM2MuMTItMS43IDEuMzg4LTMuNDQgMi45NTctNC4wNDNsLS4xMi0yLjQxNGMtLjY2NC0uMTgtMS4zMjgtLjU0My0xLjkzLS45NjYtMi44MzYtMi4xNzMtMy41LTYuMjE2LTEuMzg4LTkuMTEzczYuMDk1LTMuNSA4Ljk5Mi0xLjM4OGMyLjgzNiAyLjExMiAzLjUgNi4wOTUgMS4zODggOC45OTItLjU0My43ODUtMS4yNjcgMS4zODgtMi4xMTIgMS44N2wuMjQgNC4yMjRjLjcyNC45MDUgMS4xNDcgMi4wNTIgMS4wODYgMy4ybDIuMzU0IDEuN2MyLjE3My0xLjMyOCA1LjAxLTEuMjA3IDcuMTIuMzAyIDIuODk3IDIuMTEyIDMuNSA2LjE1NiAxLjM4OCA4Ljk5Mi0yLjA1MiAyLjg5Ny02LjA5NSAzLjUtOC45OTIgMS40NDgtMi4xMTItMS41MS0zLjA3OC00LjIyNC0yLjQ3NC02LjdsLTIuMzU0LTEuN2MtMS4wODYuNDIyLTIuMjkzLjQyMi0zLjM4LS4wNmwtNC4xMDQgMS4wODZjLS4xOC45NjYtLjU0MyAxLjg3LTEuMTQ3IDIuNTk1LTIuMDUyIDIuODM2LTYuMDM1IDMuNS04LjkzMiAxLjM4OC0yLjg5Ny0yLjA1Mi0zLjUtNi4wOTUtMS40NDgtOC45OTIgMi4xMTItMi44OTcgNi4wOTUtMy41IDguOTkyLTEuMzg4eiIgZmlsbD0iIzA2OTBiYSIvPjxwYXRoIGQ9Ik0xMC4yMDMgNDIuMjUyYy42NjQtLjkwNS45NjYtMS45My45MDUtMi45NTdsNS45NzUtMS41N2EyLjgxIDIuODEgMCAwIDAgMy4zMTktLjE4MWw0LjM0NSAzLjEzOGMtMS4wMjYgMS45OTItLjQ4MyA0LjUyNiAxLjM4OCA1LjkxNCAyLjExMiAxLjUxIDUuMDEgMS4wODYgNi41MTgtMS4wMjYgMS41MS0yLjA1MiAxLjA4Ni01LjAxLTEuMDI2LTYuNTE4LTEuODctMS4zODgtNC40NjYtMS4xNDctNi4wOTUuNDgzbC00LjM0NS0zLjEzOGMuNDIyLTEuMDg2LjEyLTIuNDE0LS44NDUtMy4ybC0uMzYyLTYuMTU2YTQuMTcgNC4xNyAwIDAgMCAyLjUzNS0xLjc1YzEuNTEtMi4xMTIgMS4wMjYtNS4wMS0xLjAyNi02LjUxOHMtNS4wMS0xLjA4Ni02LjUxOCAxLjAyNmMtMS41MSAyLjA1Mi0xLjA4NiA1LjAxIDEuMDI2IDYuNTE4Ljc4NS41NDMgMS43Ljg0NSAyLjU5NS45MDVsLjMwMiA1LjQzYy0uOTY2LS4xMi0xLjkzLjMwMi0yLjUzNSAxLjE0N2EyLjc3IDIuNzcgMCAwIDAtLjMwMiAyLjcxNmwtNS4yNSAxLjM4OGMtLjMwMi0uODQ1LS44NDUtMS42My0xLjYzLTIuMTczLTIuMTEyLTEuNTEtNS4wMS0xLjAyNi02LjUxOCAxLjAyNnMtMS4wODYgNS4wMSAxLjAyNiA2LjUxOCA1LjAxIDEuMDI2IDYuNTE4LTEuMDI2aDB6bTIwLjIxNy0xLjU3YzEuMjA3Ljg0NSAxLjQ0OCAyLjUzNS42MDMgMy42OC0uODQ1IDEuMjA3LTIuNTM1IDEuNDQ4LTMuNjguNjA0LS45NjYtLjcyNC0xLjMyOC0xLjk5Mi0uOTA1LTMuMDc4bC43ODUuNjA0Yy0uMTIuNjY0LjEyIDEuMzI4LjY2NCAxLjc1Ljc4NS41NDMgMS44Ny4zNjIgMi40MTQtLjM2Mi41NDMtLjc4NS40MjItMS44Ny0uMzYyLTIuNDE0LS41NDMtLjQyMi0xLjMyOC0uNDIyLTEuODctLjEybC0uOTA1LS42MDNjLjk2Ni0uNzI0IDIuMjMzLS43ODUgMy4yNi0uMDZoMHpNMTcuMDgyIDI0LjgxYy0xLjI2Ny0uOTA1LTEuNTEtMi43MTYtLjYwNC0zLjkyMy45MDUtMS4yNjcgMi43MTYtMS41MSAzLjkyMy0uNjAzIDEuMjY3LjkwNSAxLjU3IDIuNzE2LjYwNCAzLjkyM2EyLjc0IDIuNzQgMCAwIDEtMS4xNDcuOTA1bC0uMDYtMS4wMjZjLjE4LS4xMi4zNjItLjI0LjQ4My0uNDIyLjYwMy0uODQ1LjQyMi0yLjA1Mi0uNDIyLTIuNjU1cy0yLjA1Mi0uNDIyLTIuNjU1LjQyMi0uNDIyIDIuMDUyLjQyMiAyLjY1NWMuMjQuMTguNTQzLjMwMi43ODUuMzAybC4wNi45NjZjLS40MjItLjA2LS45MDUtLjI0LTEuMzg4LS41NDNoMHpNNC4xNjggMzcuODQ2Yy45MDUtMS4yNjcgMi43MTYtMS41NyAzLjkyMy0uNjAzLjQyMi4zMDIuNzI0LjcyNC45NjYgMS4xNDdsLS45NjYuMjRjLS4xMi0uMjQtLjMwMi0uNDgzLS41NDMtLjY2NC0uODQ1LS42MDMtMi4wNTItLjQyMi0yLjY1NS40MjJzLS40MjIgMi4wNTIuNDIyIDIuNjU1IDIuMDUyLjQyMiAyLjY1NS0uNDIyYy4xMi0uMTguMjQtLjM2Mi4zMDItLjYwM2wxLjAyNi0uMjRjLS4wNi40ODMtLjE4Ljk2Ni0uNTQzIDEuMzg4LS45MDUgMS4yNjctMi42NTUgMS41MS0zLjkyMy42MDMtMS4zMjgtLjkwNS0xLjU3LTIuNzE2LS42NjQtMy45MjNoMHoiIGZpbGw9IiNjM2U4ZjIiLz48L2c+PC9zeW1ib2w+PC9zdmc+;" vertex="1" parent="gBTGp2xAHOtJdxLIhFSI-1">
          <mxGeometry x="431" y="10.000000000000071" width="37.38" height="38.33" as="geometry" />
        </mxCell>
      </root>
    </mxGraphModel>
  </diagram>
</mxfile>
